{"glyphs":{"0":{"ha":769,"x_min":71,"x_max":699,"o":"m 80 311 q 75 349 80 311 q 71 486 71 387 q 80 662 71 585 q 111 801 89 738 q 169 905 134 865 q 259 968 205 946 q 385 990 313 990 q 510 968 456 990 q 600 905 564 946 q 658 801 635 865 q 689 662 680 738 q 699 486 699 585 q 689 311 699 387 q 658 171 680 235 q 600 67 635 108 q 510 4 564 26 q 385 -18 456 -18 q 259 4 313 -18 q 169 67 205 26 q 111 171 134 108 q 80 311 89 235 m 184 486 q 186 392 184 431 q 192 308 187 352 q 205 233 197 263 q 229 173 214 202 q 265 126 244 143 q 316 98 286 109 q 385 87 346 87 q 453 98 423 87 q 504 126 484 109 q 539 173 525 144 q 563 233 554 203 q 576 308 571 263 q 582 392 581 353 q 583 486 583 431 q 582 581 583 541 q 576 665 581 620 q 563 740 571 709 q 539 799 554 770 q 504 846 525 829 q 453 874 484 864 q 385 885 423 885 q 316 874 346 885 q 265 846 286 863 q 229 799 244 829 q 205 739 214 769 q 192 664 197 708 q 186 580 187 620 q 184 486 184 541 z "},"1":{"ha":431,"x_min":56,"x_max":315,"o":"m 56 905 l 224 972 l 315 972 l 315 0 l 203 0 l 203 859 l 90 812 l 56 905 z "},"2":{"ha":708,"x_min":61,"x_max":652,"o":"m 61 0 l 61 41 q 86 150 61 96 q 153 250 112 204 q 242 340 193 295 q 341 430 292 385 q 431 518 390 474 q 497 612 471 562 q 522 713 522 663 q 475 837 522 789 q 346 885 428 885 q 164 734 204 885 l 65 762 q 82 817 71 789 q 116 877 93 845 q 170 933 139 909 q 247 974 200 958 q 349 990 294 990 q 561 913 484 990 q 637 715 637 836 q 613 600 637 656 q 551 496 589 543 q 466 405 512 450 q 372 321 419 361 q 284 245 324 281 q 219 171 245 209 q 191 100 193 134 l 652 100 l 652 0 l 61 0 z "},"3":{"ha":729,"x_min":54,"x_max":665,"o":"m 54 195 l 150 229 q 355 86 196 86 q 495 141 439 86 q 550 281 550 196 q 490 418 550 366 q 322 471 431 471 l 248 471 l 248 561 l 504 871 l 86 871 l 86 972 l 631 972 l 631 867 l 376 570 q 454 560 415 570 q 532 528 494 550 q 600 473 570 505 q 647 391 629 440 q 665 283 665 342 q 577 69 665 155 q 357 -17 488 -17 q 233 2 288 -17 q 143 54 178 21 q 87 121 108 86 q 54 195 66 155 z "},"4":{"ha":777,"x_min":43,"x_max":733,"o":"m 43 245 l 43 330 l 486 972 l 606 972 l 606 346 l 733 346 l 733 245 l 606 245 l 606 0 l 494 0 l 494 245 l 43 245 m 167 346 l 494 346 l 494 827 l 167 346 z "},"5":{"ha":726,"x_min":54,"x_max":665,"o":"m 54 195 l 151 229 q 221 125 170 165 q 357 86 272 86 q 499 148 446 86 q 551 302 551 209 q 496 457 551 395 q 347 519 441 519 q 257 503 294 519 q 186 456 220 486 l 92 472 l 113 972 l 608 972 l 608 869 l 214 869 l 200 570 q 363 616 269 616 q 581 530 497 616 q 665 309 665 444 q 581 75 665 168 q 361 -18 496 -18 q 260 -5 307 -18 q 180 29 213 8 q 121 79 147 50 q 79 136 95 107 q 54 195 64 164 z "},"6":{"ha":758,"x_min":68,"x_max":690,"o":"m 68 408 q 428 990 68 990 q 647 921 545 990 l 596 835 q 432 885 526 885 q 332 863 376 885 q 260 806 288 841 q 216 722 233 770 q 191 624 198 673 q 184 521 184 574 q 271 599 217 567 q 401 631 325 631 q 613 543 536 631 q 690 317 690 456 q 608 72 690 161 q 383 -18 525 -18 q 68 408 68 -18 m 182 393 q 186 299 182 340 q 203 217 190 258 q 237 148 216 175 q 297 104 259 121 q 387 87 335 87 q 526 147 474 87 q 578 314 578 206 q 528 468 578 408 q 386 528 477 528 q 265 492 317 528 q 182 393 213 456 z "},"7":{"ha":671,"x_min":40,"x_max":637,"o":"m 40 869 l 40 972 l 637 972 l 637 886 l 294 0 l 175 0 l 515 869 l 40 869 z "},"8":{"ha":762,"x_min":62,"x_max":700,"o":"m 62 272 q 79 369 62 324 q 123 442 96 413 q 176 490 150 471 q 228 519 201 509 q 185 547 206 530 q 142 591 163 565 q 107 653 121 617 q 94 730 94 690 q 175 918 94 846 q 380 990 256 990 q 587 918 506 990 q 668 730 668 846 q 655 653 668 690 q 620 591 642 617 q 577 547 599 565 q 534 519 556 530 q 587 490 561 509 q 640 442 612 471 q 683 369 667 413 q 700 272 700 324 q 611 62 700 142 q 380 -18 522 -18 q 151 62 239 -18 q 62 272 62 142 m 178 272 q 232 139 178 194 q 380 85 286 85 q 529 139 475 85 q 583 272 583 194 q 526 411 583 359 q 380 463 469 463 q 235 411 292 463 q 178 272 178 359 m 208 726 q 257 613 208 660 q 380 566 307 566 q 505 613 456 566 q 554 726 554 660 q 508 841 554 795 q 380 886 462 886 q 254 841 299 886 q 208 726 208 795 z "},"9":{"ha":758,"x_min":68,"x_max":690,"o":"m 68 656 q 151 901 68 811 q 375 990 233 990 q 690 564 690 990 q 330 -18 690 -18 q 111 52 214 -18 l 163 138 q 326 87 233 87 q 427 110 382 87 q 498 167 471 132 q 543 251 525 202 q 567 349 560 300 q 574 452 574 398 q 487 374 541 406 q 357 342 433 342 q 145 429 222 342 q 68 656 68 517 m 180 659 q 231 505 180 565 q 372 444 281 444 q 493 480 441 444 q 576 579 545 517 q 572 673 576 633 q 555 756 568 714 q 521 824 543 798 q 461 868 499 851 q 371 885 423 885 q 232 826 284 885 q 180 659 180 766 z "}," ":{"ha":353,"x_min":0,"x_max":0,"o":""},"!":{"ha":358,"x_min":102,"x_max":258,"o":"m 125 5 q 113 16 125 5 q 102 60 102 28 q 125 115 102 92 q 180 138 149 138 q 235 115 212 138 q 258 60 258 92 q 235 5 258 28 q 180 -18 212 -18 q 125 5 149 -18 m 122 972 l 237 972 l 228 244 l 132 244 l 122 972 z "},"\"":{"ha":414,"x_min":66,"x_max":347,"o":"m 66 972 l 164 972 l 155 697 l 75 697 l 66 972 m 250 972 l 347 972 l 339 697 l 257 697 l 250 972 z "},"#":{"ha":900,"x_min":41,"x_max":857,"o":"m 41 267 l 60 357 l 221 357 l 275 614 l 115 614 l 132 704 l 294 704 l 350 972 l 449 972 l 395 704 l 595 704 l 650 972 l 749 972 l 694 704 l 857 704 l 840 614 l 675 614 l 623 357 l 786 357 l 768 267 l 603 267 l 547 0 l 449 0 l 503 267 l 301 267 l 245 0 l 147 0 l 203 267 l 41 267 m 321 357 l 522 357 l 576 614 l 375 614 l 321 357 z "},"$":{"ha":703,"x_min":47,"x_max":646,"o":"m 47 196 l 143 237 q 355 86 196 86 q 483 129 434 86 q 532 248 532 172 q 507 334 532 296 q 441 397 481 372 q 353 445 401 422 q 256 492 304 467 q 167 549 207 517 q 102 629 127 580 q 77 742 77 678 q 140 907 77 839 q 311 986 203 975 l 311 1064 l 396 1064 l 396 987 q 489 960 447 981 q 559 911 532 939 q 603 856 587 882 q 629 804 620 830 l 534 765 q 517 797 527 781 q 492 829 508 812 q 456 859 475 846 q 410 880 437 871 q 353 888 383 888 q 232 846 275 888 q 189 742 189 805 q 205 677 189 707 q 247 626 220 648 q 308 586 273 605 q 380 549 342 567 q 455 513 418 532 q 527 469 493 494 q 588 416 562 445 q 630 345 614 387 q 646 254 646 304 q 578 72 646 147 q 396 -16 511 -3 l 396 -119 l 311 -119 l 311 -16 q 207 11 254 -10 q 129 64 159 33 q 78 127 98 95 q 47 196 59 160 z "},"%":{"ha":1051,"x_min":56,"x_max":994,"o":"m 56 777 q 116 928 56 866 q 268 990 177 990 q 425 928 363 990 q 488 777 488 867 q 425 627 488 688 q 269 566 362 566 q 117 627 178 566 q 56 777 56 688 m 98 0 l 839 972 l 953 972 l 211 0 l 98 0 m 149 777 q 183 688 149 724 q 271 652 218 652 q 359 688 326 652 q 393 777 393 724 q 358 867 393 830 q 269 904 323 904 q 182 867 216 904 q 149 777 149 830 m 624 43 q 593 73 624 43 q 562 193 562 104 q 624 345 562 283 q 777 407 685 407 q 932 345 870 407 q 994 193 994 283 q 932 43 994 104 q 778 -18 870 -18 q 624 43 686 -18 m 690 283 q 673 265 690 283 q 656 193 656 247 q 690 103 656 140 q 778 66 725 66 q 866 103 833 66 q 900 193 900 139 q 866 283 900 248 q 777 319 832 319 q 690 283 724 319 z "},"&":{"ha":871,"x_min":52,"x_max":846,"o":"m 52 269 q 222 532 52 433 q 145 632 173 583 q 117 747 117 682 q 134 838 117 795 q 184 916 152 882 q 268 970 217 949 q 382 990 319 990 q 580 923 507 990 q 653 746 653 856 q 598 594 653 660 q 435 468 543 528 l 665 245 q 702 343 693 296 q 711 464 711 390 l 817 464 q 802 303 817 371 q 745 168 787 235 l 846 66 l 766 -9 l 672 90 q 549 11 623 41 q 389 -18 476 -18 q 143 64 235 -18 q 52 269 52 146 m 161 275 q 227 134 161 186 q 389 82 292 82 q 507 106 451 82 q 599 167 563 130 l 294 460 q 199 387 237 435 q 161 275 161 340 m 221 743 q 232 683 221 712 q 266 626 243 654 q 310 579 289 599 q 364 530 330 559 q 549 743 549 624 q 503 854 549 810 q 383 897 457 897 q 267 854 312 897 q 221 743 221 810 z "},"'":{"ha":232,"x_min":66,"x_max":164,"o":"m 66 972 l 164 972 l 155 697 l 75 697 l 66 972 z "},"(":{"ha":415,"x_min":93,"x_max":318,"o":"m 93 25 l 93 836 q 318 1060 93 1060 l 318 964 q 203 842 203 964 l 203 20 q 230 -70 203 -37 q 318 -103 258 -103 l 318 -199 q 151 -143 209 -199 q 93 25 93 -87 z "},")":{"ha":415,"x_min":97,"x_max":322,"o":"m 97 -103 q 185 -70 157 -103 q 212 20 212 -37 l 212 842 q 97 964 212 964 l 97 1060 q 322 836 322 1060 l 322 25 q 264 -143 322 -87 q 97 -199 206 -199 l 97 -103 z "},"*":{"ha":594,"x_min":69,"x_max":524,"o":"m 69 650 l 214 733 l 69 818 l 113 889 l 253 806 l 253 972 l 339 972 l 339 804 l 481 889 l 522 819 l 378 734 l 524 652 l 481 581 l 339 664 l 339 498 l 253 498 l 253 664 l 113 581 l 69 650 z "},"+":{"ha":764,"x_min":56,"x_max":708,"o":"m 56 386 l 56 479 l 332 479 l 332 775 l 432 775 l 432 479 l 708 479 l 708 386 l 432 386 l 432 89 l 332 89 l 332 386 l 56 386 z "},",":{"ha":294,"x_min":68,"x_max":227,"o":"m 68 60 q 90 115 68 92 q 144 138 113 138 q 203 115 180 138 q 227 54 227 92 q 119 -168 227 -73 l 68 -118 q 111 -73 90 -101 q 136 -17 132 -45 q 87 9 106 -13 q 68 60 68 32 z "},"-":{"ha":469,"x_min":57,"x_max":411,"o":"m 57 367 l 57 469 l 411 469 l 411 367 l 57 367 z "},".":{"ha":296,"x_min":68,"x_max":225,"o":"m 92 5 q 80 16 92 5 q 68 60 68 28 q 92 115 68 92 q 147 138 115 138 q 202 115 179 138 q 225 60 225 92 q 202 5 225 28 q 147 -18 179 -18 q 92 5 115 -18 z "},"/":{"ha":591,"x_min":35,"x_max":557,"o":"m 35 -150 l 456 1042 l 557 1042 l 136 -150 l 35 -150 z "},":":{"ha":294,"x_min":68,"x_max":225,"o":"m 92 5 q 80 16 92 5 q 68 60 68 28 q 92 115 68 92 q 147 138 115 138 q 202 115 179 138 q 225 60 225 92 q 202 5 225 28 q 147 -18 179 -18 q 92 5 115 -18 m 92 543 q 80 555 92 543 q 68 599 68 567 q 91 653 68 631 q 147 676 115 676 q 202 653 179 676 q 225 599 225 631 q 202 543 225 567 q 147 519 179 519 q 92 543 115 519 z "},";":{"ha":294,"x_min":68,"x_max":227,"o":"m 68 60 q 90 115 68 92 q 144 138 113 138 q 203 115 180 138 q 227 54 227 92 q 119 -168 227 -73 l 68 -118 q 136 -17 128 -71 q 87 9 106 -13 q 68 60 68 32 m 92 543 q 80 555 92 543 q 68 599 68 567 q 91 653 68 631 q 147 676 115 676 q 202 653 179 676 q 225 599 225 631 q 202 543 225 567 q 147 519 179 519 q 92 543 115 519 z "},"<":{"ha":684,"x_min":60,"x_max":624,"o":"m 60 389 l 60 478 l 624 734 l 624 632 l 175 435 l 624 233 l 624 132 l 60 389 z "},"=":{"ha":764,"x_min":56,"x_max":708,"o":"m 56 265 l 56 358 l 708 358 l 708 265 l 56 265 m 56 496 l 56 587 l 708 587 l 708 496 l 56 496 z "},">":{"ha":684,"x_min":60,"x_max":625,"o":"m 60 132 l 60 233 l 510 435 l 60 632 l 60 734 l 625 478 l 625 389 l 60 132 z "},"?":{"ha":648,"x_min":54,"x_max":593,"o":"m 54 812 q 84 872 65 843 q 135 928 104 901 q 212 973 165 956 q 314 990 258 990 q 517 917 441 990 q 593 730 593 844 q 579 644 593 684 q 544 574 566 604 q 495 517 522 544 q 442 466 469 490 q 394 418 416 441 q 358 366 372 394 q 345 306 345 337 l 345 244 l 236 244 l 236 310 q 249 382 236 348 q 284 444 262 417 q 331 496 305 471 q 383 546 357 521 q 430 597 409 571 q 465 656 452 623 q 478 726 478 690 q 433 844 478 798 q 311 889 389 889 q 142 772 195 889 l 54 812 m 237 5 q 225 16 237 5 q 214 60 214 28 q 237 115 214 92 q 293 138 261 138 q 348 115 325 138 q 371 60 371 92 q 348 5 371 28 q 293 -18 325 -18 q 237 5 261 -18 z "},"@":{"ha":1237,"x_min":57,"x_max":1178,"o":"m 57 366 q 100 592 57 486 q 217 774 142 698 q 398 895 292 850 q 627 939 505 939 q 858 897 753 939 q 1032 785 962 856 q 1140 619 1101 713 q 1178 418 1178 524 q 1118 171 1178 255 q 954 86 1058 86 q 855 116 894 86 q 803 192 817 145 q 781 162 795 178 q 744 129 767 147 q 685 98 720 110 q 610 86 650 86 q 421 162 497 86 q 346 359 346 237 q 421 557 346 480 q 607 633 496 633 q 694 617 653 633 q 753 584 734 600 q 783 553 771 568 l 783 625 l 876 625 l 876 271 q 961 170 876 170 q 1050 231 1016 170 q 1084 416 1084 293 q 1053 592 1084 511 q 962 732 1021 673 q 817 823 903 790 q 625 856 730 856 q 378 789 487 856 q 211 612 269 723 q 153 367 153 500 q 211 119 153 229 q 376 -54 269 9 q 616 -117 482 -117 q 876 -53 762 -117 l 918 -121 q 789 -178 869 -154 q 616 -201 708 -201 q 399 -159 502 -201 q 220 -42 296 -116 q 101 139 145 33 q 57 366 57 245 m 446 359 q 494 224 446 275 q 616 172 543 172 q 738 222 689 172 q 787 363 787 273 q 740 495 787 445 q 615 546 693 546 q 494 495 543 546 q 446 359 446 444 z "},"A":{"ha":876,"x_min":17,"x_max":859,"o":"m 17 0 l 380 972 l 494 972 l 859 0 l 745 0 l 628 315 l 248 315 l 131 0 l 17 0 m 282 412 l 595 412 l 437 848 l 282 412 z "},"B":{"ha":755,"x_min":110,"x_max":700,"o":"m 110 0 l 110 972 l 378 972 q 591 906 515 972 q 667 724 667 840 q 633 597 667 652 q 542 510 600 542 q 657 424 614 484 q 700 277 700 363 q 617 74 700 149 q 407 0 535 0 l 110 0 m 222 98 l 387 98 q 530 144 477 98 q 583 279 583 189 q 530 414 583 370 q 386 457 476 457 l 222 457 l 222 98 m 222 551 l 390 551 q 507 596 463 551 q 551 715 551 642 q 509 830 551 788 q 390 872 467 872 l 222 872 l 222 551 z "},"C":{"ha":911,"x_min":54,"x_max":861,"o":"m 54 486 q 93 686 54 592 q 196 846 131 779 q 352 951 261 913 q 545 990 443 990 q 719 960 642 990 q 846 889 795 929 l 810 789 q 770 817 792 803 q 714 848 748 831 q 636 875 680 865 q 547 885 593 885 q 355 833 441 885 q 220 689 269 781 q 171 486 171 598 q 277 201 171 315 q 550 87 383 87 q 827 192 702 87 l 861 93 q 818 61 844 77 q 753 25 793 45 q 659 -6 713 6 q 547 -18 605 -18 q 294 47 407 -18 q 118 229 181 113 q 54 486 54 344 z "},"D":{"ha":884,"x_min":110,"x_max":831,"o":"m 110 0 l 110 972 l 310 972 q 694 844 557 972 q 831 486 831 715 q 694 124 831 248 q 310 0 557 0 l 110 0 m 222 100 l 332 100 q 613 199 510 100 q 715 486 715 299 q 612 769 715 667 q 332 871 508 871 l 222 871 l 222 100 z "},"E":{"ha":658,"x_min":110,"x_max":586,"o":"m 110 0 l 110 972 l 571 972 l 571 869 l 222 869 l 222 546 l 526 546 l 526 444 l 222 444 l 222 102 l 586 102 l 586 0 l 110 0 z "},"F":{"ha":648,"x_min":110,"x_max":571,"o":"m 110 0 l 110 972 l 571 972 l 571 869 l 222 869 l 222 536 l 528 536 l 528 435 l 222 435 l 222 0 l 110 0 z "},"G":{"ha":1022,"x_min":54,"x_max":940,"o":"m 54 485 q 117 742 54 626 q 293 924 180 857 q 546 990 406 990 q 675 976 614 990 q 780 938 736 962 q 852 893 824 914 q 904 848 881 872 l 832 774 q 549 885 715 885 q 395 854 466 885 q 276 771 325 824 q 200 644 227 718 q 172 485 172 570 q 278 198 172 310 q 547 86 385 86 q 655 97 604 86 q 740 125 705 108 q 796 158 775 143 q 832 187 817 172 l 832 392 l 615 392 l 615 490 l 940 490 l 940 139 q 764 20 861 58 q 543 -18 667 -18 q 350 19 441 -18 q 195 122 260 56 q 92 282 130 188 q 54 485 54 376 z "},"H":{"ha":961,"x_min":110,"x_max":851,"o":"m 110 0 l 110 972 l 222 972 l 222 546 l 739 546 l 739 972 l 851 972 l 851 0 l 739 0 l 739 443 l 222 443 l 222 0 l 110 0 z "},"I":{"ha":332,"x_min":110,"x_max":222,"o":"m 110 0 l 110 972 l 222 972 l 222 0 l 110 0 z "},"J":{"ha":479,"x_min":31,"x_max":370,"o":"m 31 5 l 43 106 q 135 93 89 93 q 257 235 257 93 l 257 972 l 370 972 l 370 220 q 311 51 370 109 q 147 -8 252 -8 q 31 5 71 -8 z "},"K":{"ha":785,"x_min":110,"x_max":762,"o":"m 110 0 l 110 972 l 222 972 l 222 525 l 610 972 l 746 972 l 338 507 l 762 0 l 625 0 l 222 489 l 222 0 l 110 0 z "},"L":{"ha":623,"x_min":110,"x_max":586,"o":"m 110 0 l 110 972 l 222 972 l 222 102 l 586 102 l 586 0 l 110 0 z "},"M":{"ha":1204,"x_min":109,"x_max":1095,"o":"m 109 0 l 109 972 l 253 972 l 602 222 l 951 972 l 1095 972 l 1095 0 l 986 0 l 986 803 l 657 89 l 546 89 l 216 803 l 216 0 l 109 0 z "},"N":{"ha":977,"x_min":109,"x_max":868,"o":"m 109 0 l 109 972 l 221 972 l 757 199 l 757 972 l 868 972 l 868 0 l 757 0 l 221 771 l 221 0 l 109 0 z "},"O":{"ha":1098,"x_min":53,"x_max":1044,"o":"m 53 486 q 118 743 53 627 q 296 924 182 859 q 549 990 410 990 q 802 924 688 990 q 980 742 916 857 q 1044 486 1044 626 q 980 230 1044 345 q 801 48 915 114 q 547 -18 687 -18 q 295 47 408 -18 q 117 228 182 113 q 53 486 53 344 m 170 486 q 219 281 170 373 q 356 139 269 190 q 549 87 442 87 q 742 139 655 87 q 878 281 828 190 q 928 486 928 373 q 878 690 928 598 q 742 833 829 781 q 549 885 654 885 q 356 833 443 885 q 219 690 269 781 q 170 486 170 598 z "},"P":{"ha":705,"x_min":110,"x_max":667,"o":"m 110 0 l 110 972 l 376 972 q 588 898 510 972 q 667 692 667 823 q 586 484 667 562 q 376 407 506 407 l 222 407 l 222 0 l 110 0 m 222 507 l 367 507 q 503 557 454 507 q 551 692 551 606 q 503 824 551 776 q 367 872 454 872 l 222 872 l 222 507 z "},"Q":{"ha":1098,"x_min":53,"x_max":1044,"o":"m 53 486 q 118 743 53 627 q 296 924 182 859 q 549 990 410 990 q 802 924 688 990 q 980 742 916 857 q 1044 486 1044 626 q 1014 306 1044 391 q 926 155 983 221 l 1029 54 l 956 -20 l 851 82 q 547 -18 722 -18 q 295 47 408 -18 q 117 228 182 113 q 53 486 53 344 m 170 486 q 219 281 170 373 q 356 139 269 190 q 549 87 442 87 q 772 158 681 87 l 664 262 l 736 338 l 844 233 q 928 486 928 334 q 878 690 928 598 q 742 833 829 781 q 549 885 654 885 q 356 833 443 885 q 219 690 269 781 q 170 486 170 598 z "},"R":{"ha":760,"x_min":110,"x_max":732,"o":"m 110 0 l 110 972 l 357 972 q 582 902 505 972 q 660 703 660 831 q 616 542 660 612 q 490 446 572 471 l 732 0 l 607 0 l 387 422 l 222 422 l 222 0 l 110 0 m 222 521 l 357 521 q 542 701 542 521 q 350 872 542 872 l 222 872 l 222 521 z "},"S":{"ha":703,"x_min":47,"x_max":646,"o":"m 47 196 l 143 237 q 355 86 196 86 q 483 129 434 86 q 532 248 532 172 q 507 334 532 296 q 441 397 481 372 q 353 445 401 422 q 256 492 304 467 q 167 549 207 517 q 102 629 127 580 q 77 742 77 678 q 152 920 77 849 q 354 990 228 990 q 447 977 404 990 q 519 944 490 964 q 572 898 549 924 q 608 849 595 871 q 629 804 621 827 l 534 765 q 517 797 527 781 q 492 829 508 812 q 456 859 475 846 q 410 880 437 871 q 353 888 383 888 q 232 846 275 888 q 189 742 189 805 q 205 677 189 707 q 247 626 220 648 q 308 586 273 605 q 380 549 342 567 q 455 513 418 532 q 527 469 493 494 q 588 416 562 445 q 630 345 614 387 q 646 254 646 304 q 565 59 646 137 q 351 -18 485 -18 q 250 -5 297 -18 q 171 30 203 9 q 113 81 139 52 q 73 138 87 110 q 47 196 58 165 z "},"T":{"ha":709,"x_min":29,"x_max":665,"o":"m 29 869 l 29 972 l 665 972 l 665 869 l 404 869 l 404 0 l 292 0 l 292 869 l 29 869 z "},"U":{"ha":933,"x_min":104,"x_max":829,"o":"m 104 349 l 104 972 l 216 972 l 216 350 q 281 156 216 227 q 467 86 345 86 q 653 157 588 86 q 718 351 718 227 l 718 972 l 829 972 l 829 350 q 733 82 829 182 q 467 -18 637 -18 q 199 81 294 -18 q 104 349 104 180 z "},"V":{"ha":884,"x_min":12,"x_max":872,"o":"m 12 972 l 136 972 l 441 134 l 749 972 l 872 972 l 503 0 l 382 0 l 12 972 z "},"W":{"ha":1310,"x_min":16,"x_max":1293,"o":"m 16 972 l 136 972 l 359 143 l 599 972 l 710 972 l 949 143 l 1174 972 l 1293 972 l 1017 0 l 890 0 l 654 807 l 418 0 l 293 0 l 16 972 z "},"X":{"ha":837,"x_min":18,"x_max":818,"o":"m 18 0 l 349 503 l 41 972 l 176 972 l 418 589 l 661 972 l 793 972 l 486 503 l 818 0 l 690 0 l 415 418 l 144 0 l 18 0 z "},"Y":{"ha":739,"x_min":12,"x_max":726,"o":"m 12 972 l 142 972 l 370 562 l 602 972 l 726 972 l 425 456 l 425 0 l 314 0 l 314 456 l 12 972 z "},"Z":{"ha":825,"x_min":49,"x_max":770,"o":"m 49 0 l 49 82 l 621 871 l 66 871 l 66 972 l 766 972 l 766 889 l 193 102 l 770 102 l 770 0 l 49 0 z "},"[":{"ha":415,"x_min":93,"x_max":318,"o":"m 93 -199 l 93 1060 l 318 1060 l 318 964 l 203 964 l 203 -103 l 318 -103 l 318 -199 l 93 -199 z "},"\\":{"ha":591,"x_min":35,"x_max":557,"o":"m 35 1042 l 136 1042 l 557 -150 l 456 -150 l 35 1042 z "},"]":{"ha":423,"x_min":97,"x_max":322,"o":"m 97 -103 l 212 -103 l 212 964 l 97 964 l 97 1060 l 322 1060 l 322 -199 l 97 -199 l 97 -103 z "},"^":{"ha":726,"x_min":62,"x_max":664,"o":"m 62 441 l 315 972 l 410 972 l 664 441 l 554 441 l 363 861 l 171 441 l 62 441 z "},"_":{"ha":842,"x_min":46,"x_max":796,"o":"m 46 -40 l 796 -40 l 796 -132 l 46 -132 l 46 -40 z "},"`":{"ha":679,"x_min":231,"x_max":450,"o":"m 231 1007 l 350 1007 l 450 810 l 353 810 l 231 1007 z "},"a":{"ha":708,"x_min":47,"x_max":625,"o":"m 47 222 q 125 393 47 326 q 325 460 203 460 q 439 440 389 460 q 515 395 490 420 l 515 484 q 469 601 515 559 q 340 643 422 643 q 127 581 233 643 l 83 661 q 350 741 210 741 q 558 669 492 741 q 625 476 625 598 l 625 0 l 530 0 l 518 61 q 322 -18 449 -18 q 125 50 203 -18 q 47 222 47 117 m 158 224 q 208 117 158 160 q 340 74 258 74 q 470 116 420 74 q 519 224 519 158 q 470 332 519 292 q 339 372 420 372 q 208 330 258 372 q 158 224 158 288 z "},"b":{"ha":850,"x_min":94,"x_max":804,"o":"m 94 0 l 94 1004 l 204 1004 l 204 606 q 233 643 215 623 q 282 686 252 663 q 360 725 313 710 q 460 741 407 741 q 708 634 612 741 q 804 359 804 527 q 705 88 804 194 q 452 -18 606 -18 q 367 -6 408 -18 q 301 20 327 5 q 251 57 275 35 q 218 90 228 78 q 200 114 209 101 l 200 0 l 94 0 m 200 358 q 229 219 200 282 q 315 119 258 157 q 444 81 372 81 q 621 157 551 81 q 692 358 692 234 q 623 561 692 481 q 447 640 553 640 q 271 564 341 640 q 200 358 200 488 z "},"c":{"ha":711,"x_min":46,"x_max":669,"o":"m 46 361 q 94 553 46 466 q 227 690 142 640 q 415 741 312 741 q 566 710 503 741 q 669 642 630 680 l 632 547 q 588 585 613 567 q 515 621 563 604 q 418 639 468 639 q 233 559 305 639 q 160 361 160 479 q 235 163 160 243 q 421 82 311 82 q 636 178 541 82 l 669 85 q 635 55 656 71 q 584 22 615 40 q 508 -7 552 4 q 416 -18 464 -18 q 226 32 311 -18 q 94 168 141 81 q 46 361 46 255 z "},"d":{"ha":850,"x_min":46,"x_max":755,"o":"m 46 359 q 141 634 46 527 q 390 741 237 741 q 489 725 442 741 q 566 687 536 710 q 616 643 597 663 q 644 606 635 623 l 644 1004 l 755 1004 l 755 0 l 648 0 l 648 114 q 399 -18 557 -18 q 145 87 243 -18 q 46 359 46 193 m 158 358 q 228 157 158 234 q 404 81 298 81 q 534 119 477 81 q 619 219 590 157 q 648 358 648 282 q 578 564 648 488 q 403 640 508 640 q 227 561 296 640 q 158 358 158 481 z "},"e":{"ha":785,"x_min":47,"x_max":741,"o":"m 47 358 q 75 515 47 443 q 151 636 103 587 q 262 713 198 685 q 397 741 326 741 q 648 638 555 741 q 741 371 741 536 q 739 338 741 351 l 160 338 q 233 149 161 218 q 419 79 304 79 q 644 192 564 79 l 717 139 q 676 85 701 111 q 615 35 651 60 q 527 -4 578 11 q 418 -18 476 -18 q 150 86 253 -18 q 47 358 47 191 m 165 419 l 628 419 q 557 586 623 527 q 397 646 492 646 q 239 582 307 646 q 165 419 172 519 z "},"f":{"ha":408,"x_min":36,"x_max":389,"o":"m 36 629 l 36 722 l 117 722 l 117 760 q 135 873 117 825 q 186 948 154 922 q 258 988 219 975 q 343 1000 297 1000 l 389 997 l 389 901 q 354 904 371 904 q 228 760 228 904 l 228 722 l 382 722 l 382 629 l 228 629 l 228 0 l 117 0 l 117 629 l 36 629 z "},"g":{"ha":843,"x_min":46,"x_max":754,"o":"m 46 359 q 143 633 46 526 q 393 741 241 741 q 492 726 446 741 q 569 687 538 711 q 618 644 600 663 q 648 606 637 624 l 648 722 l 754 722 l 754 100 q 727 -72 754 0 q 651 -186 701 -144 q 537 -247 601 -228 q 392 -267 473 -267 q 254 -246 324 -267 q 134 -195 183 -225 l 172 -109 q 218 -132 191 -120 q 293 -156 244 -144 q 390 -168 342 -168 q 488 -156 444 -168 q 568 -120 532 -144 q 624 -52 604 -95 q 644 50 644 -8 l 644 114 q 627 90 637 102 q 594 56 617 77 q 546 20 572 35 q 480 -7 520 5 q 395 -18 439 -18 q 143 87 240 -18 q 46 359 46 193 m 157 359 q 227 159 157 235 q 404 82 298 82 q 581 161 513 82 q 648 359 648 241 q 578 564 648 488 q 401 640 508 640 q 226 562 296 640 q 157 359 157 483 z "},"h":{"ha":761,"x_min":94,"x_max":673,"o":"m 94 0 l 94 1004 l 204 1004 l 204 618 q 290 705 232 669 q 418 741 347 741 q 607 660 540 741 q 673 452 673 580 l 673 0 l 564 0 l 564 456 q 516 590 564 541 q 393 640 468 640 q 257 584 310 640 q 204 439 204 528 l 204 0 l 94 0 z "},"i":{"ha":298,"x_min":74,"x_max":225,"o":"m 74 908 q 96 961 74 939 q 149 983 117 983 q 203 961 180 983 q 225 908 225 939 q 203 854 225 876 q 149 832 180 832 q 96 854 117 832 q 74 908 74 876 m 94 0 l 94 722 l 204 722 l 204 0 l 94 0 z "},"j":{"ha":298,"x_min":-58,"x_max":225,"o":"m -58 -168 q -28 -170 -40 -170 q 64 -134 33 -170 q 94 -21 94 -98 l 94 722 l 204 722 l 204 -24 q 187 -138 204 -90 q 138 -214 170 -186 q 67 -253 106 -241 q -21 -265 28 -265 l -58 -262 l -58 -168 m 74 908 q 96 961 74 939 q 149 983 117 983 q 203 961 180 983 q 225 908 225 939 q 203 854 225 876 q 149 832 180 832 q 96 854 117 832 q 74 908 74 876 z "},"k":{"ha":663,"x_min":94,"x_max":656,"o":"m 94 0 l 94 1004 l 204 1004 l 204 412 l 498 722 l 637 722 l 326 399 l 656 0 l 514 0 l 204 385 l 204 0 l 94 0 z "},"l":{"ha":298,"x_min":94,"x_max":204,"o":"m 94 0 l 94 1004 l 204 1004 l 204 0 l 94 0 z "},"m":{"ha":1193,"x_min":94,"x_max":1104,"o":"m 94 0 l 94 722 l 203 722 l 203 618 q 281 704 225 668 q 407 741 336 741 q 543 705 486 741 q 625 608 600 669 q 718 706 657 672 q 857 741 779 741 q 1040 665 975 741 q 1104 468 1104 590 l 1104 0 l 994 0 l 994 435 q 832 640 994 640 q 704 586 753 640 q 654 433 654 532 l 654 0 l 545 0 l 545 456 q 500 591 545 542 q 379 640 456 640 q 255 584 306 640 q 204 437 204 527 l 204 0 l 94 0 z "},"n":{"ha":761,"x_min":94,"x_max":672,"o":"m 94 0 l 94 722 l 203 722 l 203 618 q 289 705 231 670 q 418 741 347 741 q 606 660 540 741 q 672 452 672 580 l 672 0 l 562 0 l 562 456 q 515 590 562 541 q 392 640 467 640 q 256 584 309 640 q 204 439 204 528 l 204 0 l 94 0 z "},"o":{"ha":846,"x_min":46,"x_max":800,"o":"m 46 361 q 154 632 46 524 q 424 741 262 741 q 693 632 587 741 q 800 361 800 524 q 692 90 800 199 q 422 -18 585 -18 q 230 30 315 -18 q 95 165 144 79 q 46 361 46 252 m 158 361 q 233 160 158 239 q 422 82 307 82 q 614 161 538 82 q 689 361 689 239 q 614 561 689 481 q 422 640 538 640 q 233 560 307 640 q 158 361 158 480 z "},"p":{"ha":851,"x_min":94,"x_max":804,"o":"m 94 -260 l 94 722 l 200 722 l 200 608 q 218 633 209 621 q 251 666 228 644 q 301 702 275 687 q 367 729 327 717 q 452 741 408 741 q 705 634 606 741 q 804 363 804 528 q 708 88 804 195 q 460 -18 612 -18 q 360 -3 407 -18 q 282 36 313 12 q 233 79 252 60 q 204 117 215 99 l 204 -260 l 94 -260 m 200 363 q 271 158 200 233 q 447 82 341 82 q 623 161 553 82 q 692 363 692 239 q 621 564 692 488 q 444 640 551 640 q 315 602 372 640 q 229 502 258 564 q 200 363 200 439 z "},"q":{"ha":851,"x_min":47,"x_max":755,"o":"m 47 363 q 146 635 47 529 q 400 741 245 741 q 650 608 558 741 l 650 722 l 755 722 l 755 -260 l 646 -260 l 646 117 q 617 79 636 99 q 568 36 599 59 q 491 -3 537 12 q 392 -18 444 -18 q 143 88 239 -18 q 47 363 47 195 m 158 363 q 228 161 158 239 q 403 82 297 82 q 579 158 509 82 q 650 363 650 233 q 621 502 650 439 q 535 602 591 564 q 406 640 479 640 q 229 564 299 640 q 158 363 158 488 z "},"r":{"ha":446,"x_min":94,"x_max":418,"o":"m 94 0 l 94 722 l 203 722 l 203 602 q 281 700 223 659 q 418 741 339 741 l 418 631 q 204 346 204 631 l 204 0 l 94 0 z "},"s":{"ha":579,"x_min":40,"x_max":538,"o":"m 40 136 l 117 186 q 297 75 176 75 q 392 106 353 75 q 431 191 431 137 q 415 244 431 220 q 374 282 399 267 q 316 311 349 296 q 249 338 283 326 q 182 369 215 351 q 124 410 150 388 q 83 466 99 431 q 68 545 68 501 q 134 687 68 634 q 300 741 199 741 q 389 727 348 741 q 456 691 429 713 q 499 646 482 669 q 524 602 515 624 l 443 555 q 293 648 395 648 q 208 621 241 648 q 174 549 174 594 q 189 497 174 519 q 231 460 205 475 q 289 432 256 446 q 356 406 321 418 q 422 375 390 394 q 481 335 455 357 q 522 277 507 313 q 538 196 538 241 q 468 41 538 101 q 292 -18 398 -18 q 40 136 113 -18 z "},"t":{"ha":410,"x_min":18,"x_max":376,"o":"m 18 629 l 18 722 l 103 722 l 103 873 l 212 873 l 212 722 l 371 722 l 371 629 l 212 629 l 212 257 q 242 125 212 159 q 346 90 272 90 l 376 92 l 376 -5 q 310 -9 347 -9 q 103 248 103 -9 l 103 629 l 18 629 z "},"u":{"ha":754,"x_min":87,"x_max":667,"o":"m 87 271 l 87 722 l 197 722 l 197 267 q 245 132 197 182 q 368 82 294 82 q 504 138 452 82 q 555 283 555 194 l 555 722 l 667 722 l 667 0 l 557 0 l 557 104 q 472 17 530 53 q 343 -18 414 -18 q 154 62 221 -18 q 87 271 87 142 z "},"v":{"ha":696,"x_min":8,"x_max":686,"o":"m 8 722 l 126 722 l 349 123 l 570 722 l 686 722 l 408 0 l 288 0 l 8 722 z "},"w":{"ha":1133,"x_min":9,"x_max":1124,"o":"m 9 722 l 129 722 l 318 127 q 513 722 320 132 l 621 722 l 814 127 l 1004 722 l 1124 722 l 879 0 l 758 0 l 567 574 l 374 0 l 253 0 l 9 722 z "},"x":{"ha":700,"x_min":16,"x_max":685,"o":"m 16 0 l 285 374 l 35 722 l 164 722 l 350 452 l 536 722 l 665 722 l 415 374 l 685 0 l 558 0 l 350 292 l 140 0 l 16 0 z "},"y":{"ha":705,"x_min":8,"x_max":696,"o":"m 8 722 l 127 722 l 357 142 l 579 722 l 696 722 l 309 -249 l 199 -249 l 302 7 l 8 722 z "},"z":{"ha":642,"x_min":45,"x_max":595,"o":"m 45 0 l 45 78 l 458 628 l 57 628 l 57 722 l 587 722 l 587 643 l 175 93 l 595 93 l 595 0 l 45 0 z "},"{":{"ha":473,"x_min":50,"x_max":376,"o":"m 50 380 l 50 481 q 126 517 101 481 q 151 637 151 553 l 151 836 q 376 1060 151 1060 l 376 964 q 261 842 261 964 l 261 612 q 250 530 261 566 q 223 474 239 494 q 193 445 206 454 q 168 431 180 435 q 193 417 180 427 q 223 387 206 407 q 250 331 239 368 q 261 249 261 295 l 261 20 q 376 -103 261 -103 l 376 -199 q 151 25 151 -199 l 151 224 q 126 344 151 307 q 50 380 100 380 z "},"|":{"ha":350,"x_min":122,"x_max":228,"o":"m 122 -286 l 122 1088 l 228 1088 l 228 -286 l 122 -286 z "},"}":{"ha":473,"x_min":97,"x_max":424,"o":"m 97 -103 q 212 20 212 -103 l 212 249 q 223 331 212 295 q 251 387 234 368 q 281 417 267 407 q 306 431 294 427 q 281 445 294 435 q 251 474 267 454 q 223 530 234 494 q 212 612 212 566 l 212 842 q 97 964 212 964 l 97 1060 q 322 836 322 1060 l 322 637 q 348 517 322 554 q 424 481 373 481 l 424 380 q 348 344 374 380 q 322 224 322 307 l 322 25 q 97 -199 322 -199 l 97 -103 z "},"~":{"ha":744,"x_min":62,"x_max":682,"o":"m 62 326 q 110 466 62 411 q 239 521 157 521 q 316 506 276 521 q 383 473 355 491 q 444 440 411 455 q 503 425 477 425 q 567 453 545 425 q 590 521 589 480 l 682 521 q 636 384 682 441 q 507 326 589 326 q 448 336 477 326 q 395 360 419 346 q 348 389 371 374 q 296 413 324 403 q 241 422 269 422 q 177 395 199 422 q 153 326 155 368 l 62 326 z "}," ":{"ha":353,"x_min":0,"x_max":0,"o":""},"¡":{"ha":358,"x_min":102,"x_max":258,"o":"m 124 645 q 113 657 124 645 q 102 700 102 668 q 124 755 102 732 q 179 778 147 778 q 235 755 211 778 q 258 700 258 732 q 235 645 258 668 q 179 623 212 623 q 124 645 147 623 m 122 -212 l 132 515 l 228 515 l 237 -212 l 122 -212 z "},"¢":{"ha":719,"x_min":47,"x_max":671,"o":"m 47 468 q 141 725 47 618 q 378 846 235 832 l 378 972 l 464 972 l 464 844 q 588 808 535 837 q 669 749 642 779 l 633 654 q 546 718 601 688 q 419 747 491 747 q 234 667 307 747 q 161 469 161 587 q 236 270 161 351 q 422 189 311 189 q 636 285 545 189 l 671 192 q 630 156 654 174 q 561 118 607 138 q 464 92 514 97 l 464 0 l 378 0 l 378 92 q 140 211 232 105 q 47 468 47 317 z "},"£":{"ha":770,"x_min":54,"x_max":705,"o":"m 54 0 l 54 100 l 147 100 l 147 437 l 66 437 l 66 530 l 147 530 l 147 710 q 223 913 147 836 q 428 990 299 990 q 531 973 484 990 q 609 928 578 956 q 657 871 639 900 q 685 812 676 842 l 595 772 q 536 851 578 817 q 429 885 494 885 q 303 837 347 885 q 260 704 260 788 l 260 530 l 493 530 l 493 437 l 260 437 l 260 100 l 705 100 l 705 0 l 54 0 z "},"¥":{"ha":764,"x_min":25,"x_max":739,"o":"m 25 972 l 154 972 l 382 562 l 614 972 l 739 972 l 485 538 l 659 538 l 659 454 l 437 454 l 437 329 l 659 329 l 659 248 l 437 248 l 437 0 l 326 0 l 326 248 l 106 248 l 106 329 l 326 329 l 326 454 l 106 454 l 106 538 l 279 538 l 25 972 z "},"§":{"ha":662,"x_min":49,"x_max":612,"o":"m 82 288 q 66 312 82 288 q 49 401 49 336 q 84 517 49 467 q 175 590 119 568 q 72 786 72 671 q 144 953 72 888 q 335 1018 216 1018 q 446 1000 396 1018 q 526 954 495 983 q 574 899 556 926 q 603 843 593 871 l 513 806 q 335 917 463 917 q 223 882 262 917 q 184 785 184 846 q 214 699 184 735 q 300 629 243 663 l 454 539 q 612 321 612 443 q 577 204 612 254 q 486 131 543 154 q 589 -65 589 50 q 517 -232 589 -168 q 326 -296 446 -296 q 235 -283 277 -296 q 164 -253 193 -271 q 114 -211 136 -235 q 79 -165 91 -186 q 58 -122 66 -144 l 149 -85 q 326 -195 199 -195 q 437 -160 399 -195 q 476 -64 476 -125 q 447 22 476 -14 q 361 92 417 58 l 165 211 q 82 288 116 240 m 153 403 q 170 338 153 366 q 215 294 188 311 l 387 195 q 474 232 439 197 q 509 318 509 268 q 481 393 509 361 q 404 454 454 426 l 273 526 q 187 489 222 524 q 153 403 153 453 z "},"¨":{"ha":679,"x_min":155,"x_max":522,"o":"m 155 907 q 176 956 155 935 q 225 977 197 977 q 274 956 254 977 q 294 907 294 935 q 275 858 294 878 q 225 838 255 838 q 176 858 196 838 q 155 907 155 878 m 383 907 q 403 956 383 935 q 453 977 423 977 q 502 956 481 977 q 522 907 522 935 q 502 858 522 878 q 453 838 482 838 q 403 858 423 838 q 383 907 383 878 z "},"©":{"ha":1116,"x_min":60,"x_max":1055,"o":"m 60 484 q 97 681 60 587 q 200 842 135 774 q 357 950 265 910 q 554 990 450 990 q 755 950 661 990 q 915 843 849 911 q 1018 682 980 775 q 1055 484 1055 588 q 1018 286 1055 379 q 916 126 981 193 q 757 19 850 58 q 557 -20 664 -20 q 301 47 415 -20 q 123 229 186 114 q 60 484 60 344 m 200 700 q 174 652 200 700 q 149 484 149 603 q 200 268 149 364 q 345 115 252 171 q 557 60 439 60 q 770 115 676 60 q 915 268 864 171 q 966 485 966 364 q 915 701 966 604 q 769 853 864 798 q 554 909 674 909 q 345 853 437 909 q 200 700 252 798 m 376 291 q 341 329 376 291 q 306 482 306 367 q 376 674 306 597 q 562 751 446 751 q 687 721 635 751 q 770 652 740 691 l 708 595 q 562 665 650 665 q 442 615 484 665 q 400 484 400 564 q 442 352 400 403 q 562 301 484 301 q 708 372 649 301 l 770 317 q 688 246 741 277 q 562 215 635 215 q 376 291 446 215 z "},"ª":{"ha":566,"x_min":61,"x_max":498,"o":"m 61 600 q 120 730 61 680 q 272 781 178 781 q 352 767 315 781 q 411 736 389 754 l 411 793 q 376 879 411 848 q 283 909 342 909 q 122 863 205 909 l 86 929 q 292 990 182 990 q 448 936 398 990 q 498 787 498 881 l 498 429 l 424 429 l 414 471 q 269 416 362 416 q 120 468 178 416 q 61 600 61 519 m 149 602 q 186 523 149 555 q 283 492 223 492 q 378 522 341 492 q 415 602 415 553 q 378 679 415 649 q 283 708 342 708 q 186 677 223 708 q 149 602 149 647 z "},"«":{"ha":594,"x_min":47,"x_max":547,"o":"m 47 406 l 220 661 l 326 661 l 154 406 l 326 151 l 220 151 l 47 406 m 267 406 l 440 661 l 547 661 l 374 406 l 547 151 l 440 151 l 267 406 z "},"­":{"ha":469,"x_min":57,"x_max":411,"o":"m 57 367 l 57 469 l 411 469 l 411 367 l 57 367 z "},"®":{"ha":627,"x_min":26,"x_max":599,"o":"m 26 747 q 105 949 26 867 q 310 1031 184 1031 q 519 950 440 1031 q 599 749 599 869 q 565 607 599 671 q 464 504 530 543 q 313 465 398 465 q 105 546 184 465 q 26 747 26 627 m 90 747 q 151 587 90 650 q 313 524 211 524 q 475 586 416 524 q 534 749 534 648 q 474 910 534 848 q 310 971 414 971 q 150 908 210 971 q 90 747 90 846 m 216 597 l 216 897 l 321 897 q 397 872 370 897 q 424 806 424 848 q 411 756 424 777 q 378 726 398 735 l 435 597 l 367 597 l 321 711 l 282 711 l 282 597 l 216 597 m 282 768 l 321 768 q 346 778 337 768 q 355 804 355 788 q 346 831 355 821 q 321 840 336 840 l 282 840 l 282 768 z "},"¯":{"ha":626,"x_min":144,"x_max":481,"o":"m 144 873 l 144 961 l 481 961 l 481 873 l 144 873 z "},"°":{"ha":494,"x_min":43,"x_max":450,"o":"m 43 789 q 100 931 43 873 q 245 990 157 990 q 392 932 334 990 q 450 790 450 874 q 393 647 450 705 q 245 589 336 589 q 99 646 155 589 q 43 789 43 704 m 163 874 q 147 857 163 874 q 131 789 131 840 q 162 704 131 738 q 245 671 194 671 q 329 705 298 671 q 361 790 361 739 q 329 874 361 841 q 245 908 298 908 q 163 874 195 908 z "},"²":{"ha":475,"x_min":64,"x_max":419,"o":"m 64 859 q 124 946 82 909 q 235 983 165 983 q 363 938 315 983 q 411 819 411 892 q 393 751 411 783 q 349 695 376 718 q 291 647 323 671 q 233 601 260 622 q 186 554 205 581 q 165 500 168 527 l 419 500 l 419 422 l 65 422 l 65 478 q 84 553 65 517 q 132 615 103 589 q 193 668 160 642 q 254 717 226 695 q 302 765 283 739 q 321 818 321 791 q 297 878 321 854 q 232 901 273 901 q 136 829 166 901 l 64 859 z "},"³":{"ha":473,"x_min":54,"x_max":424,"o":"m 54 536 l 125 567 q 235 492 159 492 q 304 516 277 492 q 332 586 332 541 q 303 658 332 633 q 218 684 274 684 l 167 684 l 167 751 l 297 893 l 79 893 l 79 972 l 406 972 l 406 905 l 261 749 q 376 703 329 747 q 424 585 424 659 q 371 457 424 504 q 236 411 317 411 q 167 422 198 411 q 114 452 136 433 q 78 491 92 471 q 54 536 64 512 z "},"´":{"ha":679,"x_min":229,"x_max":449,"o":"m 229 810 l 328 1007 l 449 1007 l 325 810 l 229 810 z "},"¶":{"ha":701,"x_min":58,"x_max":600,"o":"m 58 715 q 133 898 58 823 q 315 972 208 972 l 414 972 l 414 -62 l 319 -62 l 319 457 q 134 533 210 458 q 58 715 58 608 m 504 -62 l 504 972 l 600 972 l 600 -62 l 504 -62 z "},"·":{"ha":313,"x_min":78,"x_max":235,"o":"m 78 436 q 101 491 78 468 q 155 514 123 514 q 211 491 187 514 q 235 436 235 468 q 211 380 235 404 q 155 357 187 357 q 101 380 123 357 q 78 436 78 404 z "},"¸":{"ha":626,"x_min":203,"x_max":418,"o":"m 203 -306 l 215 -235 q 257 -239 237 -239 q 335 -182 335 -239 q 314 -140 335 -155 q 256 -125 292 -125 l 229 -127 l 249 14 l 318 14 l 307 -65 q 388 -102 359 -70 q 418 -183 418 -135 q 373 -280 418 -248 q 261 -313 328 -313 q 203 -306 223 -313 z "},"¹":{"ha":353,"x_min":64,"x_max":245,"o":"m 64 930 l 174 972 l 245 972 l 245 422 l 157 422 l 157 884 l 87 856 l 64 930 z "},"º":{"ha":650,"x_min":37,"x_max":608,"o":"m 37 701 q 119 908 37 826 q 325 990 201 990 q 528 908 448 990 q 608 703 608 827 q 527 498 608 580 q 323 416 446 416 q 118 497 199 416 q 37 701 37 578 m 182 849 q 155 820 182 849 q 127 701 127 790 q 182 554 127 612 q 323 496 237 496 q 463 555 408 496 q 518 703 518 614 q 463 850 518 791 q 323 908 408 908 q 182 849 237 908 z "},"»":{"ha":594,"x_min":47,"x_max":547,"o":"m 47 151 l 221 406 l 47 661 l 154 661 l 328 406 l 154 151 l 47 151 m 268 151 l 440 406 l 268 661 l 375 661 l 547 406 l 375 151 l 268 151 z "},"¼":{"ha":1095,"x_min":104,"x_max":1047,"o":"m 104 930 l 212 972 l 286 972 l 286 422 l 196 422 l 196 884 l 127 856 l 104 930 m 228 -57 l 768 1029 l 869 1029 l 329 -57 l 228 -57 m 624 110 l 624 178 l 886 550 l 977 550 l 977 189 l 1047 189 l 1047 110 l 977 110 l 977 0 l 888 0 l 888 110 l 624 110 m 717 189 l 888 189 l 888 436 q 717 189 718 189 z "},"½":{"ha":1109,"x_min":104,"x_max":1032,"o":"m 104 930 l 212 972 l 286 972 l 286 422 l 196 422 l 196 884 l 127 856 l 104 930 m 200 -57 l 742 1029 l 843 1029 l 301 -57 l 200 -57 m 676 436 q 736 524 694 487 q 847 561 778 561 q 976 515 928 561 q 1023 397 1023 470 q 1006 329 1023 361 q 962 273 988 296 q 904 225 935 250 q 845 179 872 200 q 799 132 818 159 q 778 78 780 105 l 1032 78 l 1032 0 l 677 0 l 677 56 q 704 143 677 102 q 768 216 730 185 q 843 275 806 247 q 907 334 880 303 q 933 396 933 366 q 909 456 933 432 q 844 479 885 479 q 749 407 779 479 l 676 436 z "},"¾":{"ha":1172,"x_min":75,"x_max":1101,"o":"m 75 536 l 146 567 q 256 492 180 492 q 326 516 298 492 q 353 586 353 541 q 323 658 353 632 q 239 684 294 684 l 187 684 l 187 751 l 318 893 l 100 893 l 100 972 l 427 972 l 427 905 l 282 749 q 397 703 350 747 q 444 585 444 659 q 391 457 444 504 q 257 411 338 411 q 188 422 219 411 q 135 452 157 433 q 99 491 113 471 q 75 536 85 512 m 304 -57 l 846 1029 l 947 1029 l 406 -57 l 304 -57 m 677 110 l 677 178 l 940 550 l 1031 550 l 1031 189 l 1101 189 l 1101 110 l 1031 110 l 1031 0 l 942 0 l 942 110 l 677 110 m 771 189 l 942 189 l 942 436 q 771 189 772 189 z "},"¿":{"ha":648,"x_min":54,"x_max":593,"o":"m 54 28 q 68 114 54 74 q 103 184 81 155 q 152 241 125 214 q 205 293 178 269 q 253 340 231 317 q 289 393 275 364 q 302 453 302 422 l 302 514 l 411 514 l 411 449 q 398 376 411 411 q 363 315 385 342 q 316 263 342 288 q 264 212 290 237 q 217 161 239 187 q 183 102 196 135 q 170 32 170 68 q 214 -85 170 -40 q 336 -131 259 -131 q 507 -14 454 -131 l 593 -54 q 571 -101 584 -79 q 535 -148 557 -124 q 486 -190 513 -172 q 419 -219 458 -208 q 334 -231 379 -231 q 130 -158 205 -231 q 54 28 54 -85 m 278 699 q 301 754 278 731 q 355 778 323 778 q 410 754 387 778 q 433 699 433 730 q 410 644 433 667 q 355 621 387 621 q 301 644 323 621 q 278 699 278 667 z "},"À":{"ha":876,"x_min":17,"x_max":859,"o":"m 17 0 l 380 972 l 494 972 l 859 0 l 745 0 l 628 315 l 248 315 l 131 0 l 17 0 m 267 1231 l 386 1231 l 486 1034 l 389 1034 l 267 1231 m 282 412 l 595 412 l 437 848 l 282 412 z "},"Á":{"ha":876,"x_min":17,"x_max":859,"o":"m 17 0 l 380 972 l 494 972 l 859 0 l 745 0 l 628 315 l 248 315 l 131 0 l 17 0 m 282 412 l 595 412 l 437 848 l 282 412 m 383 1034 l 482 1231 l 603 1231 l 479 1034 l 383 1034 z "},"Â":{"ha":876,"x_min":17,"x_max":859,"o":"m 17 0 l 380 972 l 494 972 l 859 0 l 745 0 l 628 315 l 248 315 l 131 0 l 17 0 m 249 1040 l 379 1221 l 496 1221 l 627 1040 l 524 1040 l 437 1154 l 353 1040 l 249 1040 m 282 412 l 595 412 l 437 848 l 282 412 z "},"Ã":{"ha":876,"x_min":17,"x_max":859,"o":"m 17 0 l 380 972 l 494 972 l 859 0 l 745 0 l 628 315 l 248 315 l 131 0 l 17 0 m 221 1054 q 257 1160 221 1120 q 351 1200 294 1200 q 414 1184 381 1200 q 476 1154 447 1169 q 525 1139 505 1139 q 563 1155 548 1139 q 578 1200 577 1172 l 656 1200 q 621 1093 656 1133 q 528 1053 585 1053 q 465 1068 497 1053 q 404 1100 433 1084 q 353 1116 375 1116 q 315 1099 330 1116 q 300 1054 300 1082 l 221 1054 m 282 412 l 595 412 l 437 848 l 282 412 z "},"Ä":{"ha":876,"x_min":17,"x_max":859,"o":"m 17 0 l 380 972 l 494 972 l 859 0 l 745 0 l 628 315 l 248 315 l 131 0 l 17 0 m 257 1128 q 277 1177 257 1156 q 326 1197 298 1197 q 376 1177 356 1197 q 396 1128 396 1156 q 376 1079 396 1099 q 326 1059 356 1059 q 277 1079 297 1059 q 257 1128 257 1099 m 282 412 l 595 412 l 437 848 l 282 412 m 485 1128 q 505 1177 485 1156 q 554 1197 524 1197 q 604 1176 583 1197 q 624 1128 624 1156 q 604 1079 624 1099 q 554 1059 583 1059 q 505 1079 524 1059 q 485 1128 485 1099 z "},"Å":{"ha":876,"x_min":17,"x_max":859,"o":"m 17 0 l 380 972 l 494 972 l 859 0 l 745 0 l 628 315 l 248 315 l 131 0 l 17 0 m 282 412 l 595 412 l 437 848 l 282 412 m 313 1149 q 348 1236 313 1202 q 436 1270 383 1270 q 527 1236 492 1270 q 562 1150 562 1202 q 527 1063 562 1097 q 437 1028 492 1028 q 348 1062 384 1028 q 313 1149 313 1097 m 396 1191 q 388 1183 396 1191 q 380 1149 380 1175 q 396 1107 380 1123 q 437 1090 412 1090 q 479 1107 464 1090 q 494 1150 494 1123 q 479 1192 494 1176 q 436 1207 463 1207 q 396 1191 411 1207 z "},"Æ":{"ha":1126,"x_min":11,"x_max":1053,"o":"m 11 0 l 507 972 l 1039 972 l 1039 869 l 690 869 l 690 546 l 994 546 l 994 444 l 690 444 l 690 102 l 1053 102 l 1053 0 l 578 0 l 578 315 l 288 315 l 134 0 l 11 0 m 335 412 l 578 412 l 578 869 l 557 869 l 335 412 z "},"Ç":{"ha":911,"x_min":54,"x_max":861,"o":"m 54 486 q 93 686 54 592 q 196 846 131 779 q 352 951 261 913 q 545 990 443 990 q 719 960 642 990 q 846 889 795 929 l 810 789 q 770 817 792 803 q 714 848 748 831 q 636 875 680 865 q 547 885 593 885 q 355 833 441 885 q 220 689 269 781 q 171 486 171 598 q 277 201 171 315 q 550 87 383 87 q 827 192 702 87 l 861 93 q 818 61 844 77 q 753 25 793 45 q 659 -6 713 6 q 547 -18 605 -18 l 525 -17 l 519 -65 q 601 -102 571 -70 q 631 -183 631 -135 q 586 -280 631 -248 q 473 -313 541 -313 q 415 -306 435 -313 l 428 -235 q 469 -239 450 -239 q 547 -182 547 -239 q 526 -140 547 -155 q 468 -125 505 -125 l 441 -127 l 457 -9 q 166 157 279 20 q 54 486 54 294 z "},"È":{"ha":658,"x_min":110,"x_max":586,"o":"m 110 0 l 110 972 l 571 972 l 571 869 l 222 869 l 222 546 l 526 546 l 526 444 l 222 444 l 222 102 l 586 102 l 586 0 l 110 0 m 201 1231 l 321 1231 l 421 1034 l 323 1034 l 201 1231 z "},"É":{"ha":658,"x_min":110,"x_max":586,"o":"m 110 0 l 110 972 l 571 972 l 571 869 l 222 869 l 222 546 l 526 546 l 526 444 l 222 444 l 222 102 l 586 102 l 586 0 l 110 0 m 283 1034 l 382 1231 l 503 1231 l 379 1034 l 283 1034 z "},"Ê":{"ha":658,"x_min":110,"x_max":586,"o":"m 110 0 l 110 972 l 571 972 l 571 869 l 222 869 l 222 546 l 526 546 l 526 444 l 222 444 l 222 102 l 586 102 l 586 0 l 110 0 m 160 1040 l 290 1221 l 407 1221 l 538 1040 l 435 1040 l 349 1154 l 264 1040 l 160 1040 z "},"Ë":{"ha":658,"x_min":110,"x_max":586,"o":"m 110 0 l 110 972 l 571 972 l 571 869 l 222 869 l 222 546 l 526 546 l 526 444 l 222 444 l 222 102 l 586 102 l 586 0 l 110 0 m 174 1128 q 194 1177 174 1156 q 243 1197 214 1197 q 293 1177 273 1197 q 313 1128 313 1156 q 293 1079 313 1099 q 243 1059 273 1059 q 194 1079 214 1059 q 174 1128 174 1099 m 401 1128 q 421 1177 401 1156 q 471 1197 441 1197 q 520 1176 499 1197 q 541 1128 541 1156 q 520 1079 541 1099 q 471 1059 500 1059 q 421 1079 441 1059 q 401 1128 401 1099 z "},"Ì":{"ha":332,"x_min":8,"x_max":228,"o":"m 8 1231 l 127 1231 l 228 1034 l 131 1034 l 8 1231 m 110 0 l 110 972 l 222 972 l 222 0 l 110 0 z "},"Í":{"ha":332,"x_min":106,"x_max":325,"o":"m 106 1034 l 204 1231 l 325 1231 l 201 1034 l 106 1034 m 110 0 l 110 972 l 222 972 l 222 0 l 110 0 z "},"Î":{"ha":332,"x_min":-18,"x_max":359,"o":"m -18 1040 l 113 1221 l 229 1221 l 359 1040 l 257 1040 l 171 1154 l 86 1040 l -18 1040 m 110 0 l 110 972 l 222 972 l 222 0 l 110 0 z "},"Ï":{"ha":332,"x_min":-11,"x_max":355,"o":"m -11 1128 q 9 1177 -11 1156 q 58 1197 30 1197 q 108 1177 88 1197 q 127 1128 127 1156 q 108 1079 127 1099 q 58 1059 88 1059 q 9 1079 29 1059 q -11 1128 -11 1099 m 110 0 l 110 972 l 222 972 l 222 0 l 110 0 m 216 1128 q 236 1177 216 1156 q 286 1197 256 1197 q 335 1177 315 1197 q 355 1128 355 1156 q 335 1079 355 1099 q 286 1059 315 1059 q 236 1079 256 1059 q 216 1128 216 1099 z "},"Ð":{"ha":888,"x_min":33,"x_max":836,"o":"m 33 441 l 33 542 l 114 542 l 114 972 l 315 972 q 699 844 562 972 q 836 486 836 715 q 699 124 836 248 q 315 0 562 0 l 114 0 l 114 441 l 33 441 m 227 100 l 338 100 q 618 199 516 100 q 720 486 720 299 q 617 769 720 667 q 338 871 514 871 l 227 871 l 227 542 l 428 542 l 428 441 l 227 441 l 227 100 z "},"Ñ":{"ha":977,"x_min":109,"x_max":868,"o":"m 109 0 l 109 972 l 221 972 l 757 199 l 757 972 l 868 972 l 868 0 l 757 0 l 221 771 l 221 0 l 109 0 m 275 1054 q 312 1160 275 1120 q 406 1200 348 1200 q 468 1184 435 1200 q 530 1154 501 1169 q 579 1139 559 1139 q 617 1155 602 1139 q 632 1200 631 1172 l 710 1200 q 675 1093 710 1133 q 582 1053 640 1053 q 519 1068 551 1053 q 458 1100 487 1084 q 407 1116 429 1116 q 369 1099 384 1116 q 354 1054 355 1082 l 275 1054 z "},"Ò":{"ha":1098,"x_min":53,"x_max":1044,"o":"m 53 486 q 118 743 53 627 q 296 924 182 859 q 549 990 410 990 q 802 924 688 990 q 980 742 916 857 q 1044 486 1044 626 q 980 230 1044 345 q 801 48 915 114 q 547 -18 687 -18 q 295 47 408 -18 q 117 228 182 113 q 53 486 53 344 m 170 486 q 219 281 170 373 q 356 139 269 190 q 549 87 442 87 q 742 139 655 87 q 878 281 828 190 q 928 486 928 373 q 878 690 928 598 q 742 833 829 781 q 549 885 654 885 q 356 833 443 885 q 219 690 269 781 q 170 486 170 598 m 386 1231 l 505 1231 l 606 1034 l 509 1034 l 386 1231 z "},"Ó":{"ha":1098,"x_min":53,"x_max":1044,"o":"m 53 486 q 118 743 53 627 q 296 924 182 859 q 549 990 410 990 q 802 924 688 990 q 980 742 916 857 q 1044 486 1044 626 q 980 230 1044 345 q 801 48 915 114 q 547 -18 687 -18 q 295 47 408 -18 q 117 228 182 113 q 53 486 53 344 m 170 486 q 219 281 170 373 q 356 139 269 190 q 549 87 442 87 q 742 139 655 87 q 878 281 828 190 q 928 486 928 373 q 878 690 928 598 q 742 833 829 781 q 549 885 654 885 q 356 833 443 885 q 219 690 269 781 q 170 486 170 598 m 479 1034 l 578 1231 l 699 1231 l 575 1034 l 479 1034 z "},"Ô":{"ha":1098,"x_min":53,"x_max":1044,"o":"m 53 486 q 118 743 53 627 q 296 924 182 859 q 549 990 410 990 q 802 924 688 990 q 980 742 916 857 q 1044 486 1044 626 q 980 230 1044 345 q 801 48 915 114 q 547 -18 687 -18 q 295 47 408 -18 q 117 228 182 113 q 53 486 53 344 m 170 486 q 219 281 170 373 q 356 139 269 190 q 549 87 442 87 q 742 139 655 87 q 878 281 828 190 q 928 486 928 373 q 878 690 928 598 q 742 833 829 781 q 549 885 654 885 q 356 833 443 885 q 219 690 269 781 q 170 486 170 598 m 358 1040 l 489 1221 l 606 1221 l 736 1040 l 633 1040 l 547 1154 l 463 1040 l 358 1040 z "},"Õ":{"ha":1098,"x_min":53,"x_max":1044,"o":"m 53 486 q 118 743 53 627 q 296 924 182 859 q 549 990 410 990 q 802 924 688 990 q 980 742 916 857 q 1044 486 1044 626 q 980 230 1044 345 q 801 48 915 114 q 547 -18 687 -18 q 295 47 408 -18 q 117 228 182 113 q 53 486 53 344 m 170 486 q 219 281 170 373 q 356 139 269 190 q 549 87 442 87 q 742 139 655 87 q 878 281 828 190 q 928 486 928 373 q 878 690 928 598 q 742 833 829 781 q 549 885 654 885 q 356 833 443 885 q 219 690 269 781 q 170 486 170 598 m 335 1054 q 371 1160 335 1120 q 465 1200 408 1200 q 528 1184 495 1200 q 590 1154 561 1169 q 639 1139 618 1139 q 676 1155 662 1139 q 692 1200 691 1172 l 770 1200 q 734 1093 770 1133 q 642 1053 699 1053 q 579 1068 611 1053 q 518 1100 547 1084 q 467 1116 489 1116 q 429 1099 444 1116 q 414 1054 414 1082 l 335 1054 z "},"Ö":{"ha":1098,"x_min":53,"x_max":1044,"o":"m 53 486 q 118 743 53 627 q 296 924 182 859 q 549 990 410 990 q 802 924 688 990 q 980 742 916 857 q 1044 486 1044 626 q 980 230 1044 345 q 801 48 915 114 q 547 -18 687 -18 q 295 47 408 -18 q 117 228 182 113 q 53 486 53 344 m 170 486 q 219 281 170 373 q 356 139 269 190 q 549 87 442 87 q 742 139 655 87 q 878 281 828 190 q 928 486 928 373 q 878 690 928 598 q 742 833 829 781 q 549 885 654 885 q 356 833 443 885 q 219 690 269 781 q 170 486 170 598 m 368 1128 q 389 1177 368 1156 q 437 1197 409 1197 q 487 1177 467 1197 q 507 1128 507 1156 q 487 1079 507 1099 q 437 1059 467 1059 q 388 1079 408 1059 q 368 1128 368 1099 m 596 1128 q 616 1177 596 1156 q 665 1197 635 1197 q 714 1177 694 1197 q 734 1128 734 1156 q 714 1079 734 1099 q 665 1059 694 1059 q 616 1079 635 1059 q 596 1128 596 1099 z "},"×":{"ha":737,"x_min":65,"x_max":671,"o":"m 65 172 l 302 428 l 65 685 l 131 751 l 368 496 l 606 751 l 669 686 l 431 429 l 671 171 l 606 106 l 367 363 l 131 107 l 65 172 z "},"Ø":{"ha":1098,"x_min":54,"x_max":1046,"o":"m 54 486 q 119 743 54 627 q 297 924 184 859 q 550 990 411 990 q 823 908 701 990 l 896 999 l 965 943 l 895 852 q 1006 689 966 784 q 1046 486 1046 595 q 981 230 1046 345 q 802 48 916 114 q 549 -18 688 -18 q 272 62 394 -18 l 201 -28 l 132 28 l 203 118 q 93 281 132 186 q 54 486 54 376 m 171 486 q 275 208 171 319 l 755 822 q 550 885 663 885 q 279 771 388 885 q 171 486 171 657 m 340 149 q 550 87 431 87 q 743 139 656 87 q 879 281 829 190 q 929 486 929 373 q 823 764 929 649 l 340 149 z "},"Ù":{"ha":933,"x_min":104,"x_max":829,"o":"m 104 349 l 104 972 l 216 972 l 216 350 q 281 156 216 227 q 467 86 345 86 q 653 157 588 86 q 718 351 718 227 l 718 972 l 829 972 l 829 350 q 733 82 829 182 q 467 -18 637 -18 q 199 81 294 -18 q 104 349 104 180 m 318 1231 l 437 1231 l 538 1034 l 440 1034 l 318 1231 z "},"Ú":{"ha":933,"x_min":104,"x_max":829,"o":"m 104 349 l 104 972 l 216 972 l 216 350 q 281 156 216 227 q 467 86 345 86 q 653 157 588 86 q 718 351 718 227 l 718 972 l 829 972 l 829 350 q 733 82 829 182 q 467 -18 637 -18 q 199 81 294 -18 q 104 349 104 180 m 401 1034 l 500 1231 l 621 1231 l 497 1034 l 401 1034 z "},"Û":{"ha":933,"x_min":104,"x_max":829,"o":"m 104 349 l 104 972 l 216 972 l 216 350 q 281 156 216 227 q 467 86 345 86 q 653 157 588 86 q 718 351 718 227 l 718 972 l 829 972 l 829 350 q 733 82 829 182 q 467 -18 637 -18 q 199 81 294 -18 q 104 349 104 180 m 278 1040 l 408 1221 l 525 1221 l 656 1040 l 553 1040 l 467 1154 l 382 1040 l 278 1040 z "},"Ü":{"ha":933,"x_min":104,"x_max":829,"o":"m 104 349 l 104 972 l 216 972 l 216 350 q 281 156 216 227 q 467 86 345 86 q 653 157 588 86 q 718 351 718 227 l 718 972 l 829 972 l 829 350 q 733 82 829 182 q 467 -18 637 -18 q 199 81 294 -18 q 104 349 104 180 m 286 1128 q 307 1177 286 1156 q 355 1197 327 1197 q 405 1177 385 1197 q 425 1128 425 1156 q 405 1079 425 1099 q 355 1059 385 1059 q 306 1079 326 1059 q 286 1128 286 1099 m 514 1128 q 534 1177 514 1156 q 583 1197 553 1197 q 632 1176 612 1197 q 653 1128 653 1156 q 633 1079 653 1099 q 583 1059 612 1059 q 534 1079 553 1059 q 514 1128 514 1099 z "},"Ý":{"ha":739,"x_min":12,"x_max":726,"o":"m 12 972 l 142 972 l 370 562 l 602 972 l 726 972 l 425 456 l 425 0 l 314 0 l 314 456 l 12 972 m 311 1034 l 410 1231 l 530 1231 l 407 1034 l 311 1034 z "},"Þ":{"ha":712,"x_min":110,"x_max":672,"o":"m 110 0 l 110 972 l 222 972 l 222 782 l 382 782 q 594 708 515 782 q 672 503 672 633 q 591 295 672 372 q 382 218 511 218 l 222 218 l 222 0 l 110 0 m 222 317 l 372 317 q 508 367 458 317 q 557 501 557 416 q 508 634 557 586 q 372 682 459 682 l 222 682 l 222 317 z "},"ß":{"ha":747,"x_min":92,"x_max":705,"o":"m 92 0 l 92 760 q 161 941 92 882 q 350 1000 231 1000 q 531 940 463 1000 q 599 796 599 880 q 568 682 599 726 q 489 615 538 637 q 645 513 584 588 q 705 330 705 437 q 676 183 705 247 q 596 79 648 119 q 477 20 545 40 q 329 0 410 0 l 329 97 q 402 104 366 97 q 473 129 437 111 q 534 172 508 146 q 576 238 560 197 q 593 329 593 279 q 570 429 593 384 q 510 500 547 473 q 426 542 472 528 q 329 557 379 557 l 329 653 q 440 686 392 653 q 488 781 488 719 q 450 869 488 836 q 350 901 412 901 q 203 741 203 901 l 203 0 l 92 0 z "},"à":{"ha":708,"x_min":47,"x_max":625,"o":"m 47 222 q 125 393 47 326 q 325 460 203 460 q 439 440 389 460 q 515 395 490 420 l 515 484 q 469 601 515 559 q 340 643 422 643 q 127 581 233 643 l 83 661 q 350 741 210 741 q 558 669 492 741 q 625 476 625 598 l 625 0 l 530 0 l 518 61 q 322 -18 449 -18 q 125 50 203 -18 q 47 222 47 117 m 158 224 q 208 117 158 160 q 340 74 258 74 q 470 116 420 74 q 519 224 519 158 q 470 332 519 292 q 339 372 420 372 q 208 330 258 372 q 158 224 158 288 m 203 1007 l 322 1007 l 422 810 l 325 810 l 203 1007 z "},"á":{"ha":708,"x_min":47,"x_max":625,"o":"m 47 222 q 125 393 47 326 q 325 460 203 460 q 439 440 389 460 q 515 395 490 420 l 515 484 q 469 601 515 559 q 340 643 422 643 q 127 581 233 643 l 83 661 q 350 741 210 741 q 558 669 492 741 q 625 476 625 598 l 625 0 l 530 0 l 518 61 q 322 -18 449 -18 q 125 50 203 -18 q 47 222 47 117 m 158 224 q 208 117 158 160 q 340 74 258 74 q 470 116 420 74 q 519 224 519 158 q 470 332 519 292 q 339 372 420 372 q 208 330 258 372 q 158 224 158 288 m 288 810 l 386 1007 l 507 1007 l 383 810 l 288 810 z "},"â":{"ha":708,"x_min":47,"x_max":625,"o":"m 47 222 q 125 393 47 326 q 325 460 203 460 q 439 440 389 460 q 515 395 490 420 l 515 484 q 469 601 515 559 q 340 643 422 643 q 127 581 233 643 l 83 661 q 350 741 210 741 q 558 669 492 741 q 625 476 625 598 l 625 0 l 530 0 l 518 61 q 322 -18 449 -18 q 125 50 203 -18 q 47 222 47 117 m 158 224 q 208 117 158 160 q 340 74 258 74 q 470 116 420 74 q 519 224 519 158 q 470 332 519 292 q 339 372 420 372 q 208 330 258 372 q 158 224 158 288 m 164 825 l 294 1006 l 411 1006 l 542 825 l 439 825 l 353 939 l 268 825 l 164 825 z "},"ã":{"ha":708,"x_min":47,"x_max":625,"o":"m 47 222 q 125 393 47 326 q 325 460 203 460 q 439 440 389 460 q 515 395 490 420 l 515 484 q 469 601 515 559 q 340 643 422 643 q 127 581 233 643 l 83 661 q 350 741 210 741 q 558 669 492 741 q 625 476 625 598 l 625 0 l 530 0 l 518 61 q 322 -18 449 -18 q 125 50 203 -18 q 47 222 47 117 m 134 836 q 170 942 134 902 q 264 982 206 982 q 327 967 294 982 q 388 936 359 951 q 437 921 417 921 q 475 938 460 921 q 490 982 490 954 l 568 982 q 533 875 568 916 q 440 835 498 835 q 377 850 410 835 q 316 882 345 866 q 265 897 288 897 q 228 881 242 897 q 212 836 213 864 l 134 836 m 158 224 q 208 117 158 160 q 340 74 258 74 q 470 116 420 74 q 519 224 519 158 q 470 332 519 292 q 339 372 420 372 q 208 330 258 372 q 158 224 158 288 z "},"ä":{"ha":708,"x_min":47,"x_max":625,"o":"m 47 222 q 125 393 47 326 q 325 460 203 460 q 439 440 389 460 q 515 395 490 420 l 515 484 q 469 601 515 559 q 340 643 422 643 q 127 581 233 643 l 83 661 q 350 741 210 741 q 558 669 492 741 q 625 476 625 598 l 625 0 l 530 0 l 518 61 q 322 -18 449 -18 q 125 50 203 -18 q 47 222 47 117 m 158 224 q 208 117 158 160 q 340 74 258 74 q 470 116 420 74 q 519 224 519 158 q 470 332 519 292 q 339 372 420 372 q 208 330 258 372 q 158 224 158 288 m 178 907 q 198 956 178 935 q 248 977 219 977 q 297 956 277 977 q 317 907 317 935 q 297 858 317 878 q 248 838 277 838 q 198 858 218 838 q 178 907 178 878 m 406 907 q 426 956 406 935 q 475 977 446 977 q 524 956 503 977 q 545 907 545 935 q 524 858 545 878 q 475 838 504 838 q 425 858 445 838 q 406 907 406 878 z "},"å":{"ha":708,"x_min":47,"x_max":625,"o":"m 47 222 q 125 393 47 326 q 325 460 203 460 q 439 440 389 460 q 515 395 490 420 l 515 484 q 469 601 515 559 q 340 643 422 643 q 127 581 233 643 l 83 661 q 350 741 210 741 q 558 669 492 741 q 625 476 625 598 l 625 0 l 530 0 l 518 61 q 322 -18 449 -18 q 125 50 203 -18 q 47 222 47 117 m 158 224 q 208 117 158 160 q 340 74 258 74 q 470 116 420 74 q 519 224 519 158 q 470 332 519 292 q 339 372 420 372 q 208 330 258 372 q 158 224 158 288 m 231 922 q 266 1009 231 975 q 354 1043 301 1043 q 446 1009 410 1043 q 481 924 481 976 q 445 836 481 871 q 355 802 410 802 q 266 836 302 802 q 231 922 231 870 m 314 964 q 306 956 314 964 q 298 922 298 948 q 314 880 298 897 q 355 864 330 864 q 397 880 382 864 q 412 924 412 897 q 397 965 412 949 q 354 981 381 981 q 314 964 329 981 z "},"æ":{"ha":1249,"x_min":47,"x_max":1204,"o":"m 47 222 q 125 393 47 326 q 325 460 203 460 q 439 440 389 460 q 515 395 490 420 l 515 484 q 469 601 515 559 q 340 643 422 643 q 127 581 233 643 l 83 661 q 350 741 210 741 q 507 703 446 741 q 593 600 568 666 q 709 704 639 667 q 861 741 779 741 q 1112 638 1019 741 q 1204 371 1204 536 l 1204 338 l 625 338 q 698 149 626 218 q 884 79 770 79 q 1108 192 1028 79 l 1181 139 q 1140 85 1164 111 q 1080 35 1116 60 q 993 -4 1044 11 q 884 -18 942 -18 q 702 22 782 -18 q 579 136 623 62 q 488 27 553 72 q 322 -18 422 -18 q 125 50 203 -18 q 47 222 47 117 m 158 224 q 208 117 158 160 q 340 74 258 74 q 468 116 419 74 q 517 224 517 158 q 469 332 517 292 q 339 372 420 372 q 208 330 258 372 q 158 224 158 288 m 629 419 l 1092 419 q 1021 586 1087 527 q 861 646 956 646 q 704 585 770 646 q 629 419 638 525 z "},"ç":{"ha":711,"x_min":46,"x_max":669,"o":"m 46 361 q 94 553 46 466 q 227 690 142 640 q 415 741 312 741 q 566 710 503 741 q 669 642 630 680 l 632 547 q 588 585 613 567 q 515 621 563 604 q 418 639 468 639 q 233 559 305 639 q 160 361 160 479 q 235 163 160 243 q 421 82 311 82 q 636 178 541 82 l 669 85 q 635 55 656 71 q 583 22 615 40 q 507 -7 551 4 q 415 -18 463 -18 l 408 -65 q 490 -102 460 -70 q 519 -183 519 -135 q 475 -280 519 -248 q 363 -313 430 -313 q 304 -306 325 -313 l 317 -235 q 358 -239 338 -239 q 436 -182 436 -239 q 415 -140 436 -155 q 357 -125 393 -125 l 330 -127 l 346 -11 q 129 115 212 12 q 46 361 46 218 z "},"è":{"ha":785,"x_min":47,"x_max":741,"o":"m 47 358 q 75 515 47 443 q 151 636 103 587 q 262 713 198 685 q 397 741 326 741 q 648 638 555 741 q 741 371 741 536 q 739 338 741 351 l 160 338 q 233 149 161 218 q 419 79 304 79 q 644 192 564 79 l 717 139 q 676 85 701 111 q 615 35 651 60 q 527 -4 578 11 q 418 -18 476 -18 q 150 86 253 -18 q 47 358 47 191 m 165 419 l 628 419 q 557 586 623 527 q 397 646 492 646 q 239 582 307 646 q 165 419 172 519 m 248 1007 l 367 1007 l 467 810 l 370 810 l 248 1007 z "},"é":{"ha":785,"x_min":47,"x_max":741,"o":"m 47 358 q 75 515 47 443 q 151 636 103 587 q 262 713 198 685 q 397 741 326 741 q 648 638 555 741 q 741 371 741 536 q 739 338 741 351 l 160 338 q 233 149 161 218 q 419 79 304 79 q 644 192 564 79 l 717 139 q 676 85 701 111 q 615 35 651 60 q 527 -4 578 11 q 418 -18 476 -18 q 150 86 253 -18 q 47 358 47 191 m 165 419 l 628 419 q 557 586 623 527 q 397 646 492 646 q 239 582 307 646 q 165 419 172 519 m 328 810 l 427 1007 l 547 1007 l 424 810 l 328 810 z "},"ê":{"ha":785,"x_min":47,"x_max":741,"o":"m 47 358 q 75 515 47 443 q 151 636 103 587 q 262 713 198 685 q 397 741 326 741 q 648 638 555 741 q 741 371 741 536 q 739 338 741 351 l 160 338 q 233 149 161 218 q 419 79 304 79 q 644 192 564 79 l 717 139 q 676 85 701 111 q 615 35 651 60 q 527 -4 578 11 q 418 -18 476 -18 q 150 86 253 -18 q 47 358 47 191 m 165 419 l 628 419 q 557 586 623 527 q 397 646 492 646 q 239 582 307 646 q 165 419 172 519 m 210 825 l 340 1006 l 457 1006 l 587 825 l 485 825 l 399 939 l 314 825 l 210 825 z "},"ë":{"ha":785,"x_min":47,"x_max":741,"o":"m 47 358 q 75 515 47 443 q 151 636 103 587 q 262 713 198 685 q 397 741 326 741 q 648 638 555 741 q 741 371 741 536 q 739 338 741 351 l 160 338 q 233 149 161 218 q 419 79 304 79 q 644 192 564 79 l 717 139 q 676 85 701 111 q 615 35 651 60 q 527 -4 578 11 q 418 -18 476 -18 q 150 86 253 -18 q 47 358 47 191 m 165 419 l 628 419 q 557 586 623 527 q 397 646 492 646 q 239 582 307 646 q 165 419 172 519 m 218 907 q 239 956 218 935 q 288 977 259 977 q 337 956 317 977 q 357 907 357 935 q 337 858 357 878 q 288 838 317 838 q 238 858 258 838 q 218 907 218 878 m 446 907 q 466 956 446 935 q 515 977 486 977 q 564 956 544 977 q 585 907 585 935 q 565 858 585 878 q 515 838 545 838 q 466 858 486 838 q 446 907 446 878 z "},"ì":{"ha":298,"x_min":-8,"x_max":211,"o":"m -8 1007 l 111 1007 l 211 810 l 114 810 l -8 1007 m 94 0 l 94 722 l 204 722 l 204 0 l 94 0 z "},"í":{"ha":298,"x_min":86,"x_max":306,"o":"m 86 810 l 184 1007 l 306 1007 l 182 810 l 86 810 m 94 0 l 94 722 l 204 722 l 204 0 l 94 0 z "},"î":{"ha":298,"x_min":-36,"x_max":342,"o":"m -36 825 l 94 1006 l 211 1006 l 342 825 l 239 825 l 153 939 l 68 825 l -36 825 m 94 0 l 94 722 l 204 722 l 204 0 l 94 0 z "},"ï":{"ha":298,"x_min":-32,"x_max":335,"o":"m -32 907 q -12 956 -32 935 q 37 977 9 977 q 87 956 67 977 q 107 907 107 935 q 87 858 107 878 q 37 838 67 838 q -12 858 8 838 q -32 907 -32 878 m 94 0 l 94 722 l 204 722 l 204 0 l 94 0 m 196 907 q 216 956 196 935 q 265 977 236 977 q 314 956 294 977 q 335 907 335 935 q 315 858 335 878 q 265 838 294 838 q 216 858 235 838 q 196 907 196 878 z "},"ð":{"ha":821,"x_min":49,"x_max":766,"o":"m 49 345 q 94 525 49 444 q 220 651 138 605 q 407 697 302 697 q 493 684 453 697 q 557 654 532 671 q 483 743 528 699 q 403 810 437 787 l 179 722 l 167 803 l 329 868 q 178 960 260 916 l 249 1014 q 437 907 340 973 l 608 974 l 623 893 l 509 847 q 766 372 766 640 q 752 249 766 307 q 707 142 737 191 q 635 57 677 93 q 533 2 592 22 q 403 -18 473 -18 q 218 31 299 -18 q 93 162 136 79 q 49 345 49 244 m 161 345 q 229 157 161 233 q 404 81 296 81 q 543 120 486 81 q 628 221 601 159 q 654 361 654 283 q 586 533 654 462 q 412 604 517 604 q 229 530 296 604 q 161 345 161 455 z "},"ñ":{"ha":761,"x_min":94,"x_max":672,"o":"m 94 0 l 94 722 l 203 722 l 203 618 q 289 705 231 670 q 418 741 347 741 q 606 660 540 741 q 672 452 672 580 l 672 0 l 562 0 l 562 456 q 515 590 562 541 q 392 640 467 640 q 256 584 309 640 q 204 439 204 528 l 204 0 l 94 0 m 165 836 q 202 942 165 902 q 296 982 238 982 q 358 967 326 982 q 420 936 391 951 q 469 921 449 921 q 507 938 492 921 q 522 982 522 954 l 600 982 q 565 875 600 916 q 472 835 530 835 q 409 850 441 835 q 348 882 377 866 q 297 897 319 897 q 259 881 274 897 q 244 836 245 864 l 165 836 z "},"ò":{"ha":846,"x_min":46,"x_max":800,"o":"m 46 361 q 154 632 46 524 q 424 741 262 741 q 693 632 587 741 q 800 361 800 524 q 692 90 800 199 q 422 -18 585 -18 q 230 30 315 -18 q 95 165 144 79 q 46 361 46 252 m 158 361 q 233 160 158 239 q 422 82 307 82 q 614 161 538 82 q 689 361 689 239 q 614 561 689 481 q 422 640 538 640 q 233 560 307 640 q 158 361 158 480 m 256 1007 l 375 1007 l 475 810 l 378 810 l 256 1007 z "},"ó":{"ha":846,"x_min":46,"x_max":800,"o":"m 46 361 q 154 632 46 524 q 424 741 262 741 q 693 632 587 741 q 800 361 800 524 q 692 90 800 199 q 422 -18 585 -18 q 230 30 315 -18 q 95 165 144 79 q 46 361 46 252 m 158 361 q 233 160 158 239 q 422 82 307 82 q 614 161 538 82 q 689 361 689 239 q 614 561 689 481 q 422 640 538 640 q 233 560 307 640 q 158 361 158 480 m 354 810 l 453 1007 l 574 1007 l 450 810 l 354 810 z "},"ô":{"ha":846,"x_min":46,"x_max":800,"o":"m 46 361 q 154 632 46 524 q 424 741 262 741 q 693 632 587 741 q 800 361 800 524 q 692 90 800 199 q 422 -18 585 -18 q 230 30 315 -18 q 95 165 144 79 q 46 361 46 252 m 158 361 q 233 160 158 239 q 422 82 307 82 q 614 161 538 82 q 689 361 689 239 q 614 561 689 481 q 422 640 538 640 q 233 560 307 640 q 158 361 158 480 m 237 825 l 368 1006 l 485 1006 l 615 825 l 513 825 l 427 939 l 342 825 l 237 825 z "},"õ":{"ha":846,"x_min":46,"x_max":800,"o":"m 46 361 q 154 632 46 524 q 424 741 262 741 q 693 632 587 741 q 800 361 800 524 q 692 90 800 199 q 422 -18 585 -18 q 230 30 315 -18 q 95 165 144 79 q 46 361 46 252 m 158 361 q 233 160 158 239 q 422 82 307 82 q 614 161 538 82 q 689 361 689 239 q 614 561 689 481 q 422 640 538 640 q 233 560 307 640 q 158 361 158 480 m 210 836 q 246 942 210 902 q 340 982 282 982 q 403 967 370 982 q 465 936 436 951 q 514 921 494 921 q 552 938 537 921 q 567 982 566 954 l 644 982 q 609 875 644 916 q 517 835 574 835 q 454 850 486 835 q 393 882 422 866 q 342 897 364 897 q 304 881 319 897 q 289 836 290 864 l 210 836 z "},"ö":{"ha":846,"x_min":46,"x_max":800,"o":"m 46 361 q 154 632 46 524 q 424 741 262 741 q 693 632 587 741 q 800 361 800 524 q 692 90 800 199 q 422 -18 585 -18 q 230 30 315 -18 q 95 165 144 79 q 46 361 46 252 m 158 361 q 233 160 158 239 q 422 82 307 82 q 614 161 538 82 q 689 361 689 239 q 614 561 689 481 q 422 640 538 640 q 233 560 307 640 q 158 361 158 480 m 244 907 q 265 956 244 935 q 314 977 286 977 q 363 956 343 977 q 383 907 383 935 q 363 858 383 878 q 314 838 344 838 q 264 858 285 838 q 244 907 244 878 m 472 907 q 492 956 472 935 q 542 977 512 977 q 591 956 570 977 q 611 907 611 935 q 591 858 611 878 q 542 838 571 838 q 492 858 512 838 q 472 907 472 878 z "},"÷":{"ha":764,"x_min":56,"x_max":708,"o":"m 56 386 l 56 479 l 708 479 l 708 386 l 56 386 m 311 191 q 332 240 311 220 q 382 261 353 261 q 431 240 411 261 q 452 191 452 220 q 431 141 452 162 q 382 121 410 121 q 332 142 353 121 q 311 191 311 163 m 332 624 q 322 634 332 624 q 311 673 311 644 q 332 724 311 703 q 382 745 353 745 q 431 724 411 745 q 452 673 452 703 q 431 624 452 644 q 382 604 411 604 q 332 624 353 604 z "},"ø":{"ha":847,"x_min":46,"x_max":800,"o":"m 46 361 q 154 632 46 524 q 424 741 262 741 q 629 682 538 741 l 682 750 l 746 699 l 693 632 q 800 361 800 525 q 692 90 800 199 q 422 -18 585 -18 q 225 33 311 -18 l 172 -33 l 109 17 l 160 82 q 46 361 46 192 m 158 361 q 228 168 158 244 l 564 600 q 422 640 500 640 q 233 560 307 640 q 158 361 158 480 m 290 117 q 422 82 345 82 q 614 161 538 82 q 689 361 689 239 q 625 545 689 467 l 290 117 z "},"ù":{"ha":754,"x_min":87,"x_max":667,"o":"m 87 271 l 87 722 l 197 722 l 197 267 q 245 132 197 182 q 368 82 294 82 q 504 138 452 82 q 555 283 555 194 l 555 722 l 667 722 l 667 0 l 557 0 l 557 104 q 472 17 530 53 q 343 -18 414 -18 q 154 62 221 -18 q 87 271 87 142 m 236 1007 l 355 1007 l 456 810 l 358 810 l 236 1007 z "},"ú":{"ha":754,"x_min":87,"x_max":667,"o":"m 87 271 l 87 722 l 197 722 l 197 267 q 245 132 197 182 q 368 82 294 82 q 504 138 452 82 q 555 283 555 194 l 555 722 l 667 722 l 667 0 l 557 0 l 557 104 q 472 17 530 53 q 343 -18 414 -18 q 154 62 221 -18 q 87 271 87 142 m 313 810 l 411 1007 l 532 1007 l 408 810 l 313 810 z "},"û":{"ha":754,"x_min":87,"x_max":667,"o":"m 87 271 l 87 722 l 197 722 l 197 267 q 245 132 197 182 q 368 82 294 82 q 504 138 452 82 q 555 283 555 194 l 555 722 l 667 722 l 667 0 l 557 0 l 557 104 q 472 17 530 53 q 343 -18 414 -18 q 154 62 221 -18 q 87 271 87 142 m 191 825 l 321 1006 l 437 1006 l 568 825 l 465 825 l 379 939 l 294 825 l 191 825 z "},"ü":{"ha":754,"x_min":87,"x_max":667,"o":"m 87 271 l 87 722 l 197 722 l 197 267 q 245 132 197 182 q 368 82 294 82 q 504 138 452 82 q 555 283 555 194 l 555 722 l 667 722 l 667 0 l 557 0 l 557 104 q 472 17 530 53 q 343 -18 414 -18 q 154 62 221 -18 q 87 271 87 142 m 201 907 q 222 956 201 935 q 271 977 242 977 q 320 956 300 977 q 340 907 340 935 q 320 858 340 878 q 271 838 300 838 q 221 858 241 838 q 201 907 201 878 m 429 907 q 449 956 429 935 q 498 977 469 977 q 548 956 527 977 q 568 907 568 935 q 548 858 568 878 q 498 838 528 838 q 449 858 469 838 q 429 907 429 878 z "},"ý":{"ha":705,"x_min":8,"x_max":696,"o":"m 8 722 l 127 722 l 357 142 l 579 722 l 696 722 l 309 -249 l 199 -249 l 302 7 l 8 722 m 292 810 l 390 1007 l 511 1007 l 387 810 l 292 810 z "},"þ":{"ha":851,"x_min":94,"x_max":804,"o":"m 94 -260 l 94 1004 l 204 1004 l 204 611 q 452 741 302 741 q 705 634 606 741 q 804 363 804 528 q 708 88 804 195 q 460 -18 612 -18 q 360 -3 407 -18 q 282 36 313 12 q 233 79 252 60 q 204 117 215 99 l 204 -260 l 94 -260 m 200 363 q 271 158 200 233 q 447 82 341 82 q 623 161 553 82 q 692 363 692 239 q 621 564 692 488 q 444 640 551 640 q 315 602 372 640 q 229 502 258 564 q 200 363 200 439 z "},"ÿ":{"ha":705,"x_min":8,"x_max":696,"o":"m 8 722 l 127 722 l 357 142 l 579 722 l 696 722 l 309 -249 l 199 -249 l 302 7 l 8 722 m 176 907 q 197 956 176 935 q 245 977 217 977 q 295 956 275 977 q 315 907 315 935 q 295 858 315 878 q 245 838 275 838 q 196 858 216 838 q 176 907 176 878 m 404 907 q 424 956 404 935 q 473 977 444 977 q 523 956 502 977 q 543 907 543 935 q 523 858 543 878 q 473 838 503 838 q 424 858 444 838 q 404 907 404 878 z "},"Ā":{"ha":876,"x_min":17,"x_max":859,"o":"m 17 0 l 380 972 l 494 972 l 859 0 l 745 0 l 628 315 l 248 315 l 131 0 l 17 0 m 269 1063 l 269 1150 l 606 1150 l 606 1063 l 269 1063 m 282 412 l 595 412 l 437 848 l 282 412 z "},"ā":{"ha":708,"x_min":47,"x_max":625,"o":"m 47 222 q 125 393 47 326 q 325 460 203 460 q 439 440 389 460 q 515 395 490 420 l 515 484 q 469 601 515 559 q 340 643 422 643 q 127 581 233 643 l 83 661 q 350 741 210 741 q 558 669 492 741 q 625 476 625 598 l 625 0 l 530 0 l 518 61 q 322 -18 449 -18 q 125 50 203 -18 q 47 222 47 117 m 158 224 q 208 117 158 160 q 340 74 258 74 q 470 116 420 74 q 519 224 519 158 q 470 332 519 292 q 339 372 420 372 q 208 330 258 372 q 158 224 158 288 m 191 873 l 191 961 l 526 961 l 526 873 l 191 873 z "},"Ă":{"ha":876,"x_min":17,"x_max":859,"o":"m 17 0 l 380 972 l 494 972 l 859 0 l 745 0 l 628 315 l 248 315 l 131 0 l 17 0 m 261 1213 l 349 1213 q 370 1141 349 1168 q 437 1114 391 1114 q 505 1141 483 1114 q 526 1213 526 1168 l 614 1213 q 568 1087 614 1137 q 437 1038 522 1038 q 307 1087 353 1038 q 261 1213 261 1137 m 282 412 l 595 412 l 437 848 l 282 412 z "},"ă":{"ha":708,"x_min":47,"x_max":625,"o":"m 47 222 q 125 393 47 326 q 325 460 203 460 q 439 440 389 460 q 515 395 490 420 l 515 484 q 469 601 515 559 q 340 643 422 643 q 127 581 233 643 l 83 661 q 350 741 210 741 q 558 669 492 741 q 625 476 625 598 l 625 0 l 530 0 l 518 61 q 322 -18 449 -18 q 125 50 203 -18 q 47 222 47 117 m 158 224 q 208 117 158 160 q 340 74 258 74 q 470 116 420 74 q 519 224 519 158 q 470 332 519 292 q 339 372 420 372 q 208 330 258 372 q 158 224 158 288 m 176 990 l 264 990 q 285 919 264 946 q 353 892 307 892 q 420 919 398 892 q 441 990 441 946 l 529 990 q 483 865 529 914 q 353 815 437 815 q 222 865 269 815 q 176 990 176 914 z "},"Ą":{"ha":876,"x_min":17,"x_max":859,"o":"m 17 0 l 380 972 l 494 972 l 859 0 q 795 -43 829 -12 q 761 -115 761 -75 q 786 -165 761 -149 q 846 -182 810 -182 l 846 -268 q 812 -271 835 -271 q 706 -237 751 -271 q 661 -140 661 -203 q 695 -55 661 -93 q 768 0 728 -16 l 745 0 l 628 315 l 248 315 l 131 0 l 17 0 m 282 412 l 595 412 l 437 848 l 282 412 z "},"ą":{"ha":708,"x_min":47,"x_max":625,"o":"m 47 222 q 125 393 47 326 q 325 460 203 460 q 439 440 389 460 q 515 395 490 420 l 515 484 q 469 601 515 559 q 340 643 422 643 q 127 581 233 643 l 83 661 q 350 741 210 741 q 558 669 492 741 q 625 476 625 598 l 625 0 q 562 -43 595 -12 q 528 -115 528 -75 q 552 -165 528 -149 q 612 -182 577 -182 l 612 -268 q 579 -271 602 -271 q 473 -237 518 -271 q 428 -140 428 -203 q 460 -55 428 -93 q 532 0 492 -16 l 518 61 q 322 -18 449 -18 q 125 50 203 -18 q 47 222 47 117 m 158 224 q 208 117 158 160 q 340 74 258 74 q 470 116 420 74 q 519 224 519 158 q 470 332 519 292 q 339 372 420 372 q 208 330 258 372 q 158 224 158 288 z "},"Ć":{"ha":911,"x_min":54,"x_max":861,"o":"m 54 486 q 93 686 54 592 q 196 846 131 779 q 352 951 261 913 q 545 990 443 990 q 719 960 642 990 q 846 889 795 929 l 810 789 q 770 817 792 803 q 714 848 748 831 q 636 875 680 865 q 547 885 593 885 q 355 833 441 885 q 220 689 269 781 q 171 486 171 598 q 277 201 171 315 q 550 87 383 87 q 827 192 702 87 l 861 93 q 818 61 844 77 q 753 25 793 45 q 659 -6 713 6 q 547 -18 605 -18 q 294 47 407 -18 q 118 229 181 113 q 54 486 54 344 m 452 1034 l 550 1231 l 671 1231 l 547 1034 l 452 1034 z "},"ć":{"ha":711,"x_min":46,"x_max":669,"o":"m 46 361 q 94 553 46 466 q 227 690 142 640 q 415 741 312 741 q 566 710 503 741 q 669 642 630 680 l 632 547 q 588 585 613 567 q 515 621 563 604 q 418 639 468 639 q 233 559 305 639 q 160 361 160 479 q 235 163 160 243 q 421 82 311 82 q 636 178 541 82 l 669 85 q 635 55 656 71 q 584 22 615 40 q 508 -7 552 4 q 416 -18 464 -18 q 226 32 311 -18 q 94 168 141 81 q 46 361 46 255 m 342 810 l 440 1007 l 561 1007 l 437 810 l 342 810 z "},"Ĉ":{"ha":911,"x_min":54,"x_max":861,"o":"m 54 486 q 93 686 54 592 q 196 846 131 779 q 352 951 261 913 q 545 990 443 990 q 719 960 642 990 q 846 889 795 929 l 810 789 q 770 817 792 803 q 714 848 748 831 q 636 875 680 865 q 547 885 593 885 q 355 833 441 885 q 220 689 269 781 q 171 486 171 598 q 277 201 171 315 q 550 87 383 87 q 827 192 702 87 l 861 93 q 818 61 844 77 q 753 25 793 45 q 659 -6 713 6 q 547 -18 605 -18 q 294 47 407 -18 q 118 229 181 113 q 54 486 54 344 m 358 1040 l 489 1221 l 606 1221 l 736 1040 l 633 1040 l 547 1154 l 463 1040 l 358 1040 z "},"ĉ":{"ha":711,"x_min":46,"x_max":669,"o":"m 46 361 q 94 553 46 466 q 227 690 142 640 q 415 741 312 741 q 566 710 503 741 q 669 642 630 680 l 632 547 q 588 585 613 567 q 515 621 563 604 q 418 639 468 639 q 233 559 305 639 q 160 361 160 479 q 235 163 160 243 q 421 82 311 82 q 636 178 541 82 l 669 85 q 635 55 656 71 q 584 22 615 40 q 508 -7 552 4 q 416 -18 464 -18 q 226 32 311 -18 q 94 168 141 81 q 46 361 46 255 m 228 825 l 358 1006 l 475 1006 l 606 825 l 503 825 l 416 939 l 332 825 l 228 825 z "},"Ċ":{"ha":911,"x_min":54,"x_max":861,"o":"m 54 486 q 93 686 54 592 q 196 846 131 779 q 352 951 261 913 q 545 990 443 990 q 719 960 642 990 q 846 889 795 929 l 810 789 q 770 817 792 803 q 714 848 748 831 q 636 875 680 865 q 547 885 593 885 q 355 833 441 885 q 220 689 269 781 q 171 486 171 598 q 277 201 171 315 q 550 87 383 87 q 827 192 702 87 l 861 93 q 818 61 844 77 q 753 25 793 45 q 659 -6 713 6 q 547 -18 605 -18 q 294 47 407 -18 q 118 229 181 113 q 54 486 54 344 m 472 1125 q 494 1178 472 1156 q 547 1200 516 1200 q 602 1178 579 1200 q 624 1125 624 1156 q 602 1071 624 1093 q 547 1048 579 1048 q 494 1071 516 1048 q 472 1125 472 1093 z "},"ċ":{"ha":711,"x_min":46,"x_max":669,"o":"m 46 361 q 94 553 46 466 q 227 690 142 640 q 415 741 312 741 q 566 710 503 741 q 669 642 630 680 l 632 547 q 588 585 613 567 q 515 621 563 604 q 418 639 468 639 q 233 559 305 639 q 160 361 160 479 q 235 163 160 243 q 421 82 311 82 q 636 178 541 82 l 669 85 q 635 55 656 71 q 584 22 615 40 q 508 -7 552 4 q 416 -18 464 -18 q 226 32 311 -18 q 94 168 141 81 q 46 361 46 255 m 342 908 q 363 961 342 939 q 416 983 385 983 q 471 961 448 983 q 493 908 493 939 q 471 854 493 876 q 416 832 448 832 q 363 854 385 832 q 342 908 342 876 z "},"Č":{"ha":911,"x_min":54,"x_max":861,"o":"m 54 486 q 93 686 54 592 q 196 846 131 779 q 352 951 261 913 q 545 990 443 990 q 719 960 642 990 q 846 889 795 929 l 810 789 q 770 817 792 803 q 714 848 748 831 q 636 875 680 865 q 547 885 593 885 q 355 833 441 885 q 220 689 269 781 q 171 486 171 598 q 277 201 171 315 q 550 87 383 87 q 827 192 702 87 l 861 93 q 818 61 844 77 q 753 25 793 45 q 659 -6 713 6 q 547 -18 605 -18 q 294 47 407 -18 q 118 229 181 113 q 54 486 54 344 m 354 1221 l 458 1221 l 543 1107 l 629 1221 l 732 1221 l 602 1040 l 485 1040 l 354 1221 z "},"č":{"ha":711,"x_min":46,"x_max":669,"o":"m 46 361 q 94 553 46 466 q 227 690 142 640 q 415 741 312 741 q 566 710 503 741 q 669 642 630 680 l 632 547 q 588 585 613 567 q 515 621 563 604 q 418 639 468 639 q 233 559 305 639 q 160 361 160 479 q 235 163 160 243 q 421 82 311 82 q 636 178 541 82 l 669 85 q 635 55 656 71 q 584 22 615 40 q 508 -7 552 4 q 416 -18 464 -18 q 226 32 311 -18 q 94 168 141 81 q 46 361 46 255 m 220 1006 l 323 1006 l 408 892 l 494 1006 l 597 1006 l 467 825 l 350 825 l 220 1006 z "},"Ď":{"ha":884,"x_min":110,"x_max":831,"o":"m 110 0 l 110 972 l 310 972 q 694 844 557 972 q 831 486 831 715 q 694 124 831 248 q 310 0 557 0 l 110 0 m 189 1221 l 293 1221 l 378 1107 l 464 1221 l 567 1221 l 436 1040 l 319 1040 l 189 1221 m 222 100 l 332 100 q 613 199 510 100 q 715 486 715 299 q 612 769 715 667 q 332 871 508 871 l 222 871 l 222 100 z "},"ď":{"ha":854,"x_min":46,"x_max":949,"o":"m 46 359 q 141 634 46 527 q 390 741 237 741 q 489 725 442 741 q 566 687 536 710 q 616 643 597 663 q 644 606 635 623 l 644 1004 l 755 1004 l 755 0 l 648 0 l 648 114 q 399 -18 557 -18 q 145 87 243 -18 q 46 359 46 193 m 158 358 q 228 157 158 234 q 404 81 298 81 q 534 119 477 81 q 619 219 590 157 q 648 358 648 282 q 578 564 648 488 q 403 640 508 640 q 227 561 296 640 q 158 358 158 481 m 825 768 l 835 1004 l 949 1004 l 908 768 l 825 768 z "},"Đ":{"ha":884,"x_min":33,"x_max":836,"o":"m 33 441 l 33 542 l 114 542 l 114 972 l 315 972 q 699 844 562 972 q 836 486 836 715 q 699 124 836 248 q 315 0 562 0 l 114 0 l 114 441 l 33 441 m 227 100 l 338 100 q 618 199 516 100 q 720 486 720 299 q 617 769 720 667 q 338 871 514 871 l 227 871 l 227 542 l 428 542 l 428 441 l 227 441 l 227 100 z "},"đ":{"ha":850,"x_min":46,"x_max":847,"o":"m 46 359 q 141 634 46 527 q 390 741 237 741 q 489 725 442 741 q 566 687 536 710 q 616 643 597 663 q 644 606 635 623 l 644 812 l 465 812 l 465 895 l 644 895 l 644 1004 l 755 1004 l 755 895 l 847 895 l 847 812 l 755 812 l 755 0 l 648 0 l 648 114 q 399 -18 557 -18 q 145 87 243 -18 q 46 359 46 193 m 158 358 q 228 157 158 234 q 404 81 298 81 q 534 119 477 81 q 619 219 590 157 q 648 358 648 282 q 578 564 648 488 q 403 640 508 640 q 227 561 296 640 q 158 358 158 481 z "},"Ē":{"ha":658,"x_min":110,"x_max":586,"o":"m 110 0 l 110 972 l 571 972 l 571 869 l 222 869 l 222 546 l 526 546 l 526 444 l 222 444 l 222 102 l 586 102 l 586 0 l 110 0 m 183 1063 l 183 1150 l 519 1150 l 519 1063 l 183 1063 z "},"ē":{"ha":785,"x_min":47,"x_max":741,"o":"m 47 358 q 75 515 47 443 q 151 636 103 587 q 262 713 198 685 q 397 741 326 741 q 648 638 555 741 q 741 371 741 536 q 739 338 741 351 l 160 338 q 233 149 161 218 q 419 79 304 79 q 644 192 564 79 l 717 139 q 676 85 701 111 q 615 35 651 60 q 527 -4 578 11 q 418 -18 476 -18 q 150 86 253 -18 q 47 358 47 191 m 165 419 l 628 419 q 557 586 623 527 q 397 646 492 646 q 239 582 307 646 q 165 419 172 519 m 235 873 l 235 961 l 571 961 l 571 873 l 235 873 z "},"Ĕ":{"ha":658,"x_min":110,"x_max":586,"o":"m 110 0 l 110 972 l 571 972 l 571 869 l 222 869 l 222 546 l 526 546 l 526 444 l 222 444 l 222 102 l 586 102 l 586 0 l 110 0 m 168 1213 l 256 1213 q 277 1141 256 1168 q 345 1114 298 1114 q 412 1141 390 1114 q 433 1213 433 1168 l 521 1213 q 475 1087 521 1137 q 345 1038 429 1038 q 214 1087 260 1038 q 168 1213 168 1137 z "},"ĕ":{"ha":785,"x_min":47,"x_max":741,"o":"m 47 358 q 75 515 47 443 q 151 636 103 587 q 262 713 198 685 q 397 741 326 741 q 648 638 555 741 q 741 371 741 536 q 739 338 741 351 l 160 338 q 233 149 161 218 q 419 79 304 79 q 644 192 564 79 l 717 139 q 676 85 701 111 q 615 35 651 60 q 527 -4 578 11 q 418 -18 476 -18 q 150 86 253 -18 q 47 358 47 191 m 165 419 l 628 419 q 557 586 623 527 q 397 646 492 646 q 239 582 307 646 q 165 419 172 519 m 221 990 l 309 990 q 330 919 309 946 q 397 892 351 892 q 465 919 443 892 q 486 990 486 946 l 574 990 q 528 865 574 914 q 397 815 481 815 q 267 865 313 815 q 221 990 221 914 z "},"Ė":{"ha":658,"x_min":110,"x_max":586,"o":"m 110 0 l 110 972 l 571 972 l 571 869 l 222 869 l 222 546 l 526 546 l 526 444 l 222 444 l 222 102 l 586 102 l 586 0 l 110 0 m 288 1125 q 310 1178 288 1156 q 363 1200 332 1200 q 417 1178 395 1200 q 439 1125 439 1156 q 417 1071 439 1093 q 363 1048 395 1048 q 310 1071 332 1048 q 288 1125 288 1093 z "},"ė":{"ha":785,"x_min":47,"x_max":741,"o":"m 47 358 q 75 515 47 443 q 151 636 103 587 q 262 713 198 685 q 397 741 326 741 q 648 638 555 741 q 741 371 741 536 q 739 338 741 351 l 160 338 q 233 149 161 218 q 419 79 304 79 q 644 192 564 79 l 717 139 q 676 85 701 111 q 615 35 651 60 q 527 -4 578 11 q 418 -18 476 -18 q 150 86 253 -18 q 47 358 47 191 m 165 419 l 628 419 q 557 586 623 527 q 397 646 492 646 q 239 582 307 646 q 165 419 172 519 m 326 908 q 348 961 326 939 q 401 983 370 983 q 456 961 433 983 q 478 908 478 939 q 456 854 478 876 q 401 832 433 832 q 348 854 370 832 q 326 908 326 876 z "},"Ę":{"ha":658,"x_min":110,"x_max":586,"o":"m 110 0 l 110 972 l 571 972 l 571 869 l 222 869 l 222 546 l 526 546 l 526 444 l 222 444 l 222 102 l 586 102 l 586 0 q 523 -43 556 -12 q 489 -115 489 -75 q 514 -165 489 -149 q 574 -182 538 -182 l 574 -268 q 541 -271 563 -271 q 434 -237 479 -271 q 389 -140 389 -203 q 421 -54 389 -93 q 493 0 453 -16 l 110 0 z "},"ę":{"ha":785,"x_min":47,"x_max":741,"o":"m 47 358 q 75 515 47 443 q 151 636 103 587 q 262 713 198 685 q 397 741 326 741 q 648 638 555 741 q 741 371 741 536 l 741 338 l 160 338 q 233 149 161 218 q 419 79 304 79 q 644 192 564 79 l 717 139 q 647 58 692 96 q 538 0 602 20 q 474 -43 508 -12 q 440 -115 440 -75 q 465 -165 440 -149 q 525 -182 490 -182 l 525 -268 q 492 -271 514 -271 q 386 -237 431 -271 q 340 -140 340 -203 q 360 -71 340 -103 q 411 -18 380 -39 q 148 89 248 -15 q 47 358 47 193 m 165 419 l 628 419 q 557 586 623 527 q 397 646 492 646 q 239 585 305 646 q 165 419 174 525 z "},"Ě":{"ha":658,"x_min":110,"x_max":586,"o":"m 110 0 l 110 972 l 571 972 l 571 869 l 222 869 l 222 546 l 526 546 l 526 444 l 222 444 l 222 102 l 586 102 l 586 0 l 110 0 m 172 1221 l 277 1221 l 361 1107 l 447 1221 l 550 1221 l 419 1040 l 302 1040 l 172 1221 z "},"ě":{"ha":785,"x_min":47,"x_max":741,"o":"m 47 358 q 75 515 47 443 q 151 636 103 587 q 262 713 198 685 q 397 741 326 741 q 648 638 555 741 q 741 371 741 536 q 739 338 741 351 l 160 338 q 233 149 161 218 q 419 79 304 79 q 644 192 564 79 l 717 139 q 676 85 701 111 q 615 35 651 60 q 527 -4 578 11 q 418 -18 476 -18 q 150 86 253 -18 q 47 358 47 191 m 165 419 l 628 419 q 557 586 623 527 q 397 646 492 646 q 239 582 307 646 q 165 419 172 519 m 210 1006 l 314 1006 l 399 892 l 485 1006 l 587 1006 l 457 825 l 340 825 l 210 1006 z "},"Ĝ":{"ha":1022,"x_min":54,"x_max":940,"o":"m 54 485 q 117 742 54 626 q 293 924 180 857 q 546 990 406 990 q 675 976 614 990 q 780 938 736 962 q 852 893 824 914 q 904 848 881 872 l 832 774 q 549 885 715 885 q 395 854 466 885 q 276 771 325 824 q 200 644 227 718 q 172 485 172 570 q 278 198 172 310 q 547 86 385 86 q 655 97 604 86 q 740 125 705 108 q 796 158 775 143 q 832 187 817 172 l 832 392 l 615 392 l 615 490 l 940 490 l 940 139 q 764 20 861 58 q 543 -18 667 -18 q 350 19 441 -18 q 195 122 260 56 q 92 282 130 188 q 54 485 54 376 m 361 1040 l 492 1221 l 608 1221 l 739 1040 l 636 1040 l 550 1154 l 465 1040 l 361 1040 z "},"ĝ":{"ha":843,"x_min":46,"x_max":754,"o":"m 46 359 q 143 633 46 526 q 393 741 241 741 q 492 726 446 741 q 569 687 538 711 q 618 644 600 663 q 648 606 637 624 l 648 722 l 754 722 l 754 100 q 727 -72 754 0 q 651 -186 701 -144 q 537 -247 601 -228 q 392 -267 473 -267 q 254 -246 324 -267 q 134 -195 183 -225 l 172 -109 q 218 -132 191 -120 q 293 -156 244 -144 q 390 -168 342 -168 q 488 -156 444 -168 q 568 -120 532 -144 q 624 -52 604 -95 q 644 50 644 -8 l 644 114 q 627 90 637 102 q 594 56 617 77 q 546 20 572 35 q 480 -7 520 5 q 395 -18 439 -18 q 143 87 240 -18 q 46 359 46 193 m 157 359 q 227 159 157 235 q 404 82 298 82 q 581 161 513 82 q 648 359 648 241 q 578 564 648 488 q 401 640 508 640 q 226 562 296 640 q 157 359 157 483 m 231 825 l 361 1006 l 478 1006 l 608 825 l 505 825 l 419 939 l 335 825 l 231 825 z "},"Ğ":{"ha":1022,"x_min":54,"x_max":940,"o":"m 54 485 q 117 742 54 626 q 293 924 180 857 q 546 990 406 990 q 675 976 614 990 q 780 938 736 962 q 852 893 824 914 q 904 848 881 872 l 832 774 q 549 885 715 885 q 395 854 466 885 q 276 771 325 824 q 200 644 227 718 q 172 485 172 570 q 278 198 172 310 q 547 86 385 86 q 655 97 604 86 q 740 125 705 108 q 796 158 775 143 q 832 187 817 172 l 832 392 l 615 392 l 615 490 l 940 490 l 940 139 q 764 20 861 58 q 543 -18 667 -18 q 350 19 441 -18 q 195 122 260 56 q 92 282 130 188 q 54 485 54 376 m 364 1213 l 452 1213 q 473 1141 452 1168 q 541 1114 494 1114 q 608 1141 586 1114 q 629 1213 629 1168 l 717 1213 q 671 1087 717 1137 q 541 1038 625 1038 q 410 1087 456 1038 q 364 1213 364 1137 z "},"ğ":{"ha":843,"x_min":46,"x_max":754,"o":"m 46 359 q 143 633 46 526 q 393 741 241 741 q 492 726 446 741 q 569 687 538 711 q 618 644 600 663 q 648 606 637 624 l 648 722 l 754 722 l 754 100 q 727 -72 754 0 q 651 -186 701 -144 q 537 -247 601 -228 q 392 -267 473 -267 q 254 -246 324 -267 q 134 -195 183 -225 l 172 -109 q 218 -132 191 -120 q 293 -156 244 -144 q 390 -168 342 -168 q 488 -156 444 -168 q 568 -120 532 -144 q 624 -52 604 -95 q 644 50 644 -8 l 644 114 q 627 90 637 102 q 594 56 617 77 q 546 20 572 35 q 480 -7 520 5 q 395 -18 439 -18 q 143 87 240 -18 q 46 359 46 193 m 157 359 q 227 159 157 235 q 404 82 298 82 q 581 161 513 82 q 648 359 648 241 q 578 564 648 488 q 401 640 508 640 q 226 562 296 640 q 157 359 157 483 m 243 990 l 330 990 q 352 919 330 946 q 419 892 373 892 q 487 919 465 892 q 509 990 509 946 l 596 990 q 550 865 596 914 q 419 815 503 815 q 289 865 335 815 q 243 990 243 914 z "},"Ġ":{"ha":1022,"x_min":54,"x_max":940,"o":"m 54 485 q 117 742 54 626 q 293 924 180 857 q 546 990 406 990 q 675 976 614 990 q 780 938 736 962 q 852 893 824 914 q 904 848 881 872 l 832 774 q 549 885 715 885 q 395 854 466 885 q 276 771 325 824 q 200 644 227 718 q 172 485 172 570 q 278 198 172 310 q 547 86 385 86 q 655 97 604 86 q 740 125 705 108 q 796 158 775 143 q 832 187 817 172 l 832 392 l 615 392 l 615 490 l 940 490 l 940 139 q 764 20 861 58 q 543 -18 667 -18 q 350 19 441 -18 q 195 122 260 56 q 92 282 130 188 q 54 485 54 376 m 473 1125 q 495 1178 473 1156 q 549 1200 517 1200 q 603 1178 581 1200 q 625 1125 625 1156 q 603 1071 625 1093 q 549 1048 581 1048 q 495 1071 517 1048 q 473 1125 473 1093 z "},"ġ":{"ha":843,"x_min":46,"x_max":754,"o":"m 46 359 q 143 633 46 526 q 393 741 241 741 q 492 726 446 741 q 569 687 538 711 q 618 644 600 663 q 648 606 637 624 l 648 722 l 754 722 l 754 100 q 727 -72 754 0 q 651 -186 701 -144 q 537 -247 601 -228 q 392 -267 473 -267 q 254 -246 324 -267 q 134 -195 183 -225 l 172 -109 q 218 -132 191 -120 q 293 -156 244 -144 q 390 -168 342 -168 q 488 -156 444 -168 q 568 -120 532 -144 q 624 -52 604 -95 q 644 50 644 -8 l 644 114 q 627 90 637 102 q 594 56 617 77 q 546 20 572 35 q 480 -7 520 5 q 395 -18 439 -18 q 143 87 240 -18 q 46 359 46 193 m 157 359 q 227 159 157 235 q 404 82 298 82 q 581 161 513 82 q 648 359 648 241 q 578 564 648 488 q 401 640 508 640 q 226 562 296 640 q 157 359 157 483 m 345 908 q 366 961 345 939 q 419 983 388 983 q 473 961 451 983 q 496 908 496 939 q 473 854 496 876 q 419 832 451 832 q 366 854 388 832 q 345 908 345 876 z "},"Ģ":{"ha":1022,"x_min":54,"x_max":940,"o":"m 54 485 q 117 742 54 626 q 293 924 180 857 q 546 990 406 990 q 675 976 614 990 q 780 938 736 962 q 852 893 824 914 q 904 848 881 872 l 832 774 q 549 885 715 885 q 395 854 466 885 q 276 771 325 824 q 200 644 227 718 q 172 485 172 570 q 278 198 172 310 q 547 86 385 86 q 655 97 604 86 q 740 125 705 108 q 796 158 775 143 q 832 187 817 172 l 832 392 l 615 392 l 615 490 l 940 490 l 940 139 q 764 20 861 58 q 543 -18 667 -18 q 350 19 441 -18 q 195 122 260 56 q 92 282 130 188 q 54 485 54 376 m 482 -119 q 503 -67 482 -89 q 553 -46 523 -46 q 609 -68 587 -46 q 631 -127 631 -91 q 530 -329 631 -243 l 484 -283 q 522 -242 503 -268 q 545 -191 540 -217 q 499 -166 517 -186 q 482 -119 482 -145 z "},"ģ":{"ha":843,"x_min":46,"x_max":754,"o":"m 46 359 q 143 633 46 526 q 393 741 241 741 q 492 726 446 741 q 569 687 538 711 q 618 644 600 663 q 648 606 637 624 l 648 722 l 754 722 l 754 100 q 727 -72 754 0 q 651 -186 701 -144 q 537 -247 601 -228 q 392 -267 473 -267 q 254 -246 324 -267 q 134 -195 183 -225 l 172 -109 q 218 -132 191 -120 q 293 -156 244 -144 q 390 -168 342 -168 q 488 -156 444 -168 q 568 -120 532 -144 q 624 -52 604 -95 q 644 50 644 -8 l 644 114 q 627 90 637 102 q 594 56 617 77 q 546 20 572 35 q 480 -7 520 5 q 395 -18 439 -18 q 143 87 240 -18 q 46 359 46 193 m 157 359 q 227 159 157 235 q 404 82 298 82 q 581 161 513 82 q 648 359 648 241 q 578 564 648 488 q 401 640 508 640 q 226 562 296 640 q 157 359 157 483 m 336 879 q 436 1080 336 996 l 484 1035 q 446 994 464 1019 q 422 942 427 968 q 468 917 450 938 q 485 871 485 897 q 464 819 485 840 q 414 798 444 798 q 358 820 379 798 q 336 879 336 842 z "},"Ĥ":{"ha":961,"x_min":110,"x_max":851,"o":"m 110 0 l 110 972 l 222 972 l 222 546 l 739 546 l 739 972 l 851 972 l 851 0 l 739 0 l 739 443 l 222 443 l 222 0 l 110 0 m 297 1040 l 428 1221 l 545 1221 l 675 1040 l 572 1040 l 486 1154 l 401 1040 l 297 1040 z "},"ĥ":{"ha":761,"x_min":94,"x_max":673,"o":"m 94 0 l 94 1004 l 204 1004 l 204 618 q 290 705 232 669 q 418 741 347 741 q 607 660 540 741 q 673 452 673 580 l 673 0 l 564 0 l 564 456 q 516 590 564 541 q 393 640 468 640 q 257 584 310 640 q 204 439 204 528 l 204 0 l 94 0 m 196 1040 l 326 1221 l 443 1221 l 574 1040 l 471 1040 l 385 1154 l 300 1040 l 196 1040 z "},"Ħ":{"ha":961,"x_min":25,"x_max":936,"o":"m 25 715 l 25 803 l 110 803 l 110 972 l 222 972 l 222 803 l 739 803 l 739 972 l 851 972 l 851 803 l 936 803 l 936 715 l 851 715 l 851 0 l 739 0 l 739 443 l 222 443 l 222 0 l 110 0 l 110 715 l 25 715 m 222 546 l 739 546 l 739 715 l 222 715 l 222 546 z "},"ħ":{"ha":761,"x_min":7,"x_max":673,"o":"m 7 815 l 7 897 l 94 897 l 94 1004 l 204 1004 l 204 897 l 383 897 l 383 815 l 204 815 l 204 618 q 290 705 232 669 q 418 741 347 741 q 607 660 540 741 q 673 452 673 580 l 673 0 l 564 0 l 564 456 q 516 590 564 541 q 393 640 468 640 q 257 584 310 640 q 204 439 204 528 l 204 0 l 94 0 l 94 815 l 7 815 z "},"Ĩ":{"ha":332,"x_min":-50,"x_max":385,"o":"m -50 1054 q -14 1160 -50 1120 q 81 1200 22 1200 q 143 1184 111 1200 q 205 1154 176 1169 q 254 1139 234 1139 q 292 1155 277 1139 q 307 1200 307 1172 l 385 1200 q 350 1093 385 1133 q 257 1053 315 1053 q 194 1068 227 1053 q 133 1100 162 1084 q 82 1116 104 1116 q 44 1099 59 1116 q 29 1054 30 1082 l -50 1054 m 110 0 l 110 972 l 222 972 l 222 0 l 110 0 z "},"ĩ":{"ha":298,"x_min":-66,"x_max":368,"o":"m -66 836 q -30 942 -66 902 q 64 982 6 982 q 126 967 94 982 q 188 936 159 951 q 237 921 217 921 q 275 938 260 921 q 290 982 290 954 l 368 982 q 333 875 368 916 q 240 835 298 835 q 177 850 210 835 q 116 882 145 866 q 65 897 87 897 q 27 881 42 897 q 12 836 13 864 l -66 836 m 94 0 l 94 722 l 204 722 l 204 0 l 94 0 z "},"Ī":{"ha":332,"x_min":1,"x_max":338,"o":"m 1 1063 l 1 1150 l 338 1150 l 338 1063 l 1 1063 m 110 0 l 110 972 l 222 972 l 222 0 l 110 0 z "},"ī":{"ha":298,"x_min":-18,"x_max":318,"o":"m -18 873 l -18 961 l 318 961 l 318 873 l -18 873 m 94 0 l 94 722 l 204 722 l 204 0 l 94 0 z "},"Ĭ":{"ha":332,"x_min":-8,"x_max":345,"o":"m -8 1213 l 79 1213 q 101 1141 79 1168 q 168 1114 122 1114 q 235 1141 214 1114 q 257 1213 257 1168 l 345 1213 q 298 1087 345 1137 q 168 1038 252 1038 q 38 1087 84 1038 q -8 1213 -8 1137 m 110 0 l 110 972 l 222 972 l 222 0 l 110 0 z "},"ĭ":{"ha":298,"x_min":-26,"x_max":326,"o":"m -26 990 l 61 990 q 82 919 61 946 q 150 892 104 892 q 217 919 195 892 q 239 990 239 946 l 326 990 q 280 865 326 914 q 150 815 234 815 q 20 865 66 815 q -26 990 -26 914 m 94 0 l 94 722 l 204 722 l 204 0 l 94 0 z "},"Į":{"ha":332,"x_min":25,"x_max":222,"o":"m 25 -140 q 57 -54 25 -92 q 129 0 90 -16 l 110 0 l 110 972 l 222 972 l 222 0 q 159 -43 193 -12 q 125 -115 125 -75 q 150 -165 125 -149 q 210 -182 174 -182 l 210 -268 q 176 -271 199 -271 q 70 -237 115 -271 q 25 -140 25 -203 z "},"į":{"ha":298,"x_min":7,"x_max":225,"o":"m 7 -140 q 39 -54 7 -93 q 111 0 71 -16 l 94 0 l 94 722 l 204 722 l 204 0 q 141 -43 174 -12 q 107 -115 107 -75 q 132 -165 107 -149 q 192 -182 157 -182 l 192 -268 q 158 -271 180 -271 q 52 -237 97 -271 q 7 -140 7 -203 m 74 908 q 96 961 74 939 q 149 983 117 983 q 203 961 180 983 q 225 908 225 939 q 203 854 225 876 q 149 832 180 832 q 96 854 117 832 q 74 908 74 876 z "},"İ":{"ha":332,"x_min":93,"x_max":244,"o":"m 93 1125 q 115 1178 93 1156 q 168 1200 137 1200 q 222 1178 200 1200 q 244 1125 244 1156 q 222 1071 244 1093 q 168 1048 200 1048 q 115 1071 137 1048 q 93 1125 93 1093 m 110 0 l 110 972 l 222 972 l 222 0 l 110 0 z "},"ı":{"ha":298,"x_min":94,"x_max":204,"o":"m 94 0 l 94 722 l 204 722 l 204 0 l 94 0 z "},"Ĳ":{"ha":812,"x_min":110,"x_max":701,"o":"m 110 0 l 110 972 l 222 972 l 222 0 l 110 0 m 363 5 l 375 106 q 467 93 420 93 q 589 235 589 93 l 589 972 l 701 972 l 701 220 q 643 50 701 109 q 479 -8 585 -8 q 363 5 404 -8 z "},"ĳ":{"ha":598,"x_min":74,"x_max":524,"o":"m 74 908 q 96 961 74 939 q 149 983 117 983 q 203 961 180 983 q 225 908 225 939 q 203 854 225 876 q 149 832 180 832 q 96 854 117 832 q 74 908 74 876 m 94 0 l 94 722 l 204 722 l 204 0 l 94 0 m 240 -168 q 271 -170 258 -170 q 363 -134 332 -170 q 393 -21 393 -98 l 393 722 l 503 722 l 503 -24 q 485 -138 503 -90 q 436 -214 468 -186 q 366 -253 405 -241 q 278 -265 327 -265 l 240 -262 l 240 -168 m 372 908 q 394 961 372 939 q 447 983 416 983 q 501 961 479 983 q 524 908 524 939 q 501 854 524 876 q 447 832 479 832 q 394 854 416 832 q 372 908 372 876 z "},"Ĵ":{"ha":479,"x_min":31,"x_max":497,"o":"m 31 5 l 43 106 q 135 93 89 93 q 257 235 257 93 l 257 972 l 370 972 l 370 220 q 311 51 370 109 q 147 -8 252 -8 q 31 5 71 -8 m 119 1040 l 250 1221 l 367 1221 l 497 1040 l 395 1040 l 309 1154 l 224 1040 l 119 1040 z "},"ĵ":{"ha":298,"x_min":-58,"x_max":339,"o":"m -58 -168 q -28 -170 -40 -170 q 64 -134 33 -170 q 94 -21 94 -98 l 94 722 l 204 722 l 204 -24 q 187 -138 204 -90 q 138 -214 170 -186 q 67 -253 106 -241 q -21 -265 28 -265 l -58 -262 l -58 -168 m -39 825 l 92 1006 l 208 1006 l 339 825 l 236 825 l 150 939 l 65 825 l -39 825 z "},"Ķ":{"ha":785,"x_min":110,"x_max":762,"o":"m 110 0 l 110 972 l 222 972 l 222 525 l 610 972 l 746 972 l 338 507 l 762 0 l 625 0 l 222 489 l 222 0 l 110 0 m 343 -119 q 363 -67 343 -89 q 414 -46 384 -46 q 470 -68 448 -46 q 492 -127 492 -91 q 392 -329 492 -244 l 345 -283 q 382 -242 364 -268 q 406 -191 401 -217 q 360 -166 378 -186 q 343 -119 343 -145 z "},"ķ":{"ha":663,"x_min":94,"x_max":656,"o":"m 94 0 l 94 1004 l 204 1004 l 204 412 l 498 722 l 637 722 l 326 399 l 656 0 l 514 0 l 204 385 l 204 0 l 94 0 m 281 -119 q 301 -67 281 -89 q 351 -46 321 -46 q 408 -68 386 -46 q 429 -127 429 -91 q 329 -329 429 -243 l 282 -283 q 320 -242 302 -268 q 343 -191 338 -217 q 298 -166 315 -186 q 281 -119 281 -145 z "},"ĸ":{"ha":663,"x_min":94,"x_max":656,"o":"m 94 0 l 94 722 l 204 722 l 204 404 l 498 722 l 637 722 l 326 390 l 656 0 l 514 0 l 204 376 l 204 0 l 94 0 z "},"Ĺ":{"ha":623,"x_min":110,"x_max":586,"o":"m 110 0 l 110 972 l 222 972 l 222 102 l 586 102 l 586 0 l 110 0 m 118 1034 l 216 1231 l 338 1231 l 214 1034 l 118 1034 z "},"ĺ":{"ha":298,"x_min":94,"x_max":314,"o":"m 94 0 l 94 1004 l 204 1004 l 204 0 l 94 0 m 94 1042 l 193 1239 l 314 1239 l 191 1042 l 94 1042 z "},"Ļ":{"ha":623,"x_min":110,"x_max":586,"o":"m 110 0 l 110 972 l 222 972 l 222 102 l 586 102 l 586 0 l 110 0 m 286 -119 q 307 -67 286 -89 q 357 -46 327 -46 q 413 -68 391 -46 q 435 -127 435 -91 q 335 -329 435 -244 l 288 -283 q 326 -242 307 -268 q 349 -191 344 -217 q 303 -166 321 -186 q 286 -119 286 -145 z "},"ļ":{"ha":298,"x_min":79,"x_max":228,"o":"m 79 -119 q 100 -67 79 -89 q 150 -46 120 -46 q 206 -68 184 -46 q 228 -127 228 -91 q 127 -329 228 -243 l 81 -283 q 119 -242 100 -268 q 142 -191 137 -217 q 97 -166 114 -186 q 79 -119 79 -145 m 94 0 l 94 1004 l 204 1004 l 204 0 l 94 0 z "},"Ľ":{"ha":631,"x_min":110,"x_max":586,"o":"m 110 0 l 110 972 l 222 972 l 222 102 l 586 102 l 586 0 l 110 0 m 392 736 l 401 972 l 515 972 l 475 736 l 392 736 z "},"ľ":{"ha":304,"x_min":94,"x_max":379,"o":"m 94 0 l 94 1004 l 204 1004 l 204 0 l 94 0 m 256 768 l 265 1004 l 379 1004 l 339 768 l 256 768 z "},"Ŀ":{"ha":623,"x_min":110,"x_max":586,"o":"m 110 0 l 110 972 l 222 972 l 222 102 l 586 102 l 586 0 l 110 0 m 364 511 q 387 566 364 543 q 441 589 410 589 q 497 566 474 589 q 521 511 521 543 q 497 456 521 479 q 441 432 473 432 q 387 455 410 432 q 364 511 364 479 z "},"ŀ":{"ha":454,"x_min":94,"x_max":422,"o":"m 94 0 l 94 1004 l 204 1004 l 204 0 l 94 0 m 288 399 q 277 411 288 399 q 265 454 265 422 q 288 509 265 486 q 343 532 311 532 q 399 509 376 532 q 422 454 422 486 q 399 399 422 422 q 343 375 375 375 q 288 399 311 375 z "},"Ł":{"ha":623,"x_min":28,"x_max":586,"o":"m 28 334 l 28 441 l 110 490 l 110 972 l 222 972 l 222 555 l 395 661 l 395 549 l 222 446 l 222 102 l 586 102 l 586 0 l 110 0 l 110 380 l 28 334 z "},"ł":{"ha":350,"x_min":25,"x_max":321,"o":"m 25 385 l 25 496 l 115 554 l 115 1004 l 225 1004 l 225 623 l 321 686 l 321 572 l 225 510 l 225 0 l 115 0 l 115 443 l 25 385 z "},"Ń":{"ha":977,"x_min":109,"x_max":868,"o":"m 109 0 l 109 972 l 221 972 l 757 199 l 757 972 l 868 972 l 868 0 l 757 0 l 221 771 l 221 0 l 109 0 m 439 1034 l 538 1231 l 659 1231 l 534 1034 l 439 1034 z "},"ń":{"ha":761,"x_min":94,"x_max":672,"o":"m 94 0 l 94 722 l 203 722 l 203 618 q 289 705 231 670 q 418 741 347 741 q 606 660 540 741 q 672 452 672 580 l 672 0 l 562 0 l 562 456 q 515 590 562 541 q 392 640 467 640 q 256 584 309 640 q 204 439 204 528 l 204 0 l 94 0 m 319 810 l 418 1007 l 539 1007 l 415 810 l 319 810 z "},"Ņ":{"ha":977,"x_min":109,"x_max":868,"o":"m 109 0 l 109 972 l 221 972 l 757 199 l 757 972 l 868 972 l 868 0 l 757 0 l 221 771 l 221 0 l 109 0 m 414 -119 q 434 -67 414 -89 q 485 -46 455 -46 q 541 -68 519 -46 q 562 -127 562 -91 q 463 -329 562 -244 l 415 -283 q 453 -242 435 -268 q 476 -191 471 -217 q 431 -166 448 -186 q 414 -119 414 -145 z "},"ņ":{"ha":761,"x_min":94,"x_max":672,"o":"m 94 0 l 94 722 l 203 722 l 203 618 q 289 705 231 670 q 418 741 347 741 q 606 660 540 741 q 672 452 672 580 l 672 0 l 562 0 l 562 456 q 515 590 562 541 q 392 640 467 640 q 256 584 309 640 q 204 439 204 528 l 204 0 l 94 0 m 307 -119 q 328 -67 307 -89 q 378 -46 348 -46 q 434 -68 412 -46 q 456 -127 456 -91 q 355 -329 456 -243 l 309 -283 q 347 -242 328 -268 q 370 -191 365 -217 q 325 -166 342 -186 q 307 -119 307 -145 z "},"Ň":{"ha":977,"x_min":109,"x_max":868,"o":"m 109 0 l 109 972 l 221 972 l 757 199 l 757 972 l 868 972 l 868 0 l 757 0 l 221 771 l 221 0 l 109 0 m 301 1221 l 406 1221 l 490 1107 l 576 1221 l 679 1221 l 549 1040 l 432 1040 l 301 1221 z "},"ň":{"ha":761,"x_min":94,"x_max":672,"o":"m 94 0 l 94 722 l 203 722 l 203 618 q 289 705 231 670 q 418 741 347 741 q 606 660 540 741 q 672 452 672 580 l 672 0 l 562 0 l 562 456 q 515 590 562 541 q 392 640 467 640 q 256 584 309 640 q 204 439 204 528 l 204 0 l 94 0 m 207 1006 l 311 1006 l 396 892 l 482 1006 l 585 1006 l 454 825 l 338 825 l 207 1006 z "},"ŉ":{"ha":795,"x_min":-20,"x_max":707,"o":"m -20 921 q 1 973 -20 951 q 52 994 22 994 q 107 972 86 994 q 129 913 129 949 q 29 711 129 796 l -18 757 q 20 798 1 772 q 43 850 38 823 q -2 874 15 854 q -20 921 -20 895 m 129 0 l 129 722 l 237 722 l 237 618 q 323 705 265 669 q 453 741 382 741 q 641 660 575 741 q 707 452 707 580 l 707 0 l 597 0 l 597 456 q 550 590 597 541 q 427 640 502 640 q 291 584 343 640 q 239 439 239 528 l 239 0 l 129 0 z "},"Ŋ":{"ha":977,"x_min":109,"x_max":868,"o":"m 109 0 l 109 972 l 221 972 l 757 178 l 757 972 l 868 972 l 868 -36 q 810 -205 868 -147 q 647 -264 751 -264 q 530 -250 571 -264 l 543 -150 q 635 -163 589 -163 q 757 -21 757 -163 l 757 0 l 221 791 l 221 0 l 109 0 z "},"ŋ":{"ha":761,"x_min":94,"x_max":672,"o":"m 94 0 l 94 722 l 203 722 l 203 618 q 289 705 231 670 q 418 741 347 741 q 606 660 540 741 q 672 452 672 580 l 672 -24 q 655 -138 672 -90 q 606 -214 637 -186 q 535 -253 574 -241 q 447 -265 496 -265 l 410 -262 l 410 -168 q 441 -170 428 -170 q 562 -21 562 -170 l 562 456 q 515 590 562 541 q 392 640 467 640 q 256 584 309 640 q 204 439 204 528 l 204 0 l 94 0 z "},"Ō":{"ha":1098,"x_min":53,"x_max":1044,"o":"m 53 486 q 118 743 53 627 q 296 924 182 859 q 549 990 410 990 q 802 924 688 990 q 980 742 916 857 q 1044 486 1044 626 q 980 230 1044 345 q 801 48 915 114 q 547 -18 687 -18 q 295 47 408 -18 q 117 228 182 113 q 53 486 53 344 m 170 486 q 219 281 170 373 q 356 139 269 190 q 549 87 442 87 q 742 139 655 87 q 878 281 828 190 q 928 486 928 373 q 878 690 928 598 q 742 833 829 781 q 549 885 654 885 q 356 833 443 885 q 219 690 269 781 q 170 486 170 598 m 380 1063 l 380 1150 l 717 1150 l 717 1063 l 380 1063 z "},"ō":{"ha":846,"x_min":46,"x_max":800,"o":"m 46 361 q 154 632 46 524 q 424 741 262 741 q 693 632 587 741 q 800 361 800 524 q 692 90 800 199 q 422 -18 585 -18 q 230 30 315 -18 q 95 165 144 79 q 46 361 46 252 m 158 361 q 233 160 158 239 q 422 82 307 82 q 614 161 538 82 q 689 361 689 239 q 614 561 689 481 q 422 640 538 640 q 233 560 307 640 q 158 361 158 480 m 258 873 l 258 961 l 595 961 l 595 873 l 258 873 z "},"Ŏ":{"ha":1098,"x_min":53,"x_max":1044,"o":"m 53 486 q 118 743 53 627 q 296 924 182 859 q 549 990 410 990 q 802 924 688 990 q 980 742 916 857 q 1044 486 1044 626 q 980 230 1044 345 q 801 48 915 114 q 547 -18 687 -18 q 295 47 408 -18 q 117 228 182 113 q 53 486 53 344 m 170 486 q 219 281 170 373 q 356 139 269 190 q 549 87 442 87 q 742 139 655 87 q 878 281 828 190 q 928 486 928 373 q 878 690 928 598 q 742 833 829 781 q 549 885 654 885 q 356 833 443 885 q 219 690 269 781 q 170 486 170 598 m 376 1213 l 464 1213 q 485 1141 464 1168 q 553 1114 507 1114 q 620 1141 598 1114 q 642 1213 642 1168 l 729 1213 q 683 1087 729 1137 q 553 1038 637 1038 q 422 1087 469 1038 q 376 1213 376 1137 z "},"ŏ":{"ha":846,"x_min":46,"x_max":800,"o":"m 46 361 q 154 632 46 524 q 424 741 262 741 q 693 632 587 741 q 800 361 800 524 q 692 90 800 199 q 422 -18 585 -18 q 230 30 315 -18 q 95 165 144 79 q 46 361 46 252 m 158 361 q 233 160 158 239 q 422 82 307 82 q 614 161 538 82 q 689 361 689 239 q 614 561 689 481 q 422 640 538 640 q 233 560 307 640 q 158 361 158 480 m 245 990 l 334 990 q 355 919 334 946 q 422 892 376 892 q 490 919 468 892 q 511 990 511 946 l 599 990 q 553 865 599 914 q 422 815 507 815 q 292 865 338 815 q 245 990 245 914 z "},"Ő":{"ha":1098,"x_min":53,"x_max":1044,"o":"m 53 486 q 118 743 53 627 q 296 924 182 859 q 549 990 410 990 q 802 924 688 990 q 980 742 916 857 q 1044 486 1044 626 q 980 230 1044 345 q 801 48 915 114 q 547 -18 687 -18 q 295 47 408 -18 q 117 228 182 113 q 53 486 53 344 m 170 486 q 219 281 170 373 q 356 139 269 190 q 549 87 442 87 q 742 139 655 87 q 878 281 828 190 q 928 486 928 373 q 878 690 928 598 q 742 833 829 781 q 549 885 654 885 q 356 833 443 885 q 219 690 269 781 q 170 486 170 598 m 385 1034 l 484 1231 l 599 1231 l 475 1034 l 385 1034 m 559 1034 l 659 1231 l 774 1231 l 650 1034 l 559 1034 z "},"ő":{"ha":846,"x_min":46,"x_max":800,"o":"m 46 361 q 154 632 46 524 q 424 741 262 741 q 693 632 587 741 q 800 361 800 524 q 692 90 800 199 q 422 -18 585 -18 q 230 30 315 -18 q 95 165 144 79 q 46 361 46 252 m 158 361 q 233 160 158 239 q 422 82 307 82 q 614 161 538 82 q 689 361 689 239 q 614 561 689 481 q 422 640 538 640 q 233 560 307 640 q 158 361 158 480 m 275 810 l 374 1007 l 489 1007 l 366 810 l 275 810 m 450 810 l 549 1007 l 664 1007 l 541 810 l 450 810 z "},"Œ":{"ha":1499,"x_min":53,"x_max":1428,"o":"m 53 486 q 118 743 53 627 q 296 924 182 859 q 549 990 410 990 q 685 972 616 990 l 1413 972 l 1413 869 l 876 869 q 987 725 945 808 q 1040 546 1030 642 l 1368 546 l 1368 444 l 1043 444 q 991 253 1035 340 q 875 102 947 165 l 1428 102 l 1428 0 l 684 0 q 547 -18 612 -18 q 295 47 408 -18 q 117 228 182 113 q 53 486 53 344 m 170 486 q 219 281 170 373 q 356 139 269 190 q 549 87 442 87 q 742 139 655 87 q 878 281 828 190 q 928 486 928 373 q 878 690 928 598 q 742 833 829 781 q 549 885 654 885 q 356 833 443 885 q 219 690 269 781 q 170 486 170 598 z "},"œ":{"ha":1423,"x_min":46,"x_max":1381,"o":"m 46 361 q 154 632 46 524 q 424 741 262 741 q 612 692 528 741 q 742 559 695 644 q 863 692 785 644 q 1036 741 942 741 q 1288 638 1194 741 q 1381 371 1381 536 q 1379 338 1381 343 l 800 338 q 873 148 801 217 q 1060 79 945 79 q 1283 192 1203 79 l 1357 139 q 1315 85 1340 111 q 1255 35 1291 60 q 1168 -4 1219 11 q 1059 -18 1117 -18 q 868 30 951 -18 q 742 163 785 78 q 611 31 696 79 q 422 -18 526 -18 q 230 30 315 -18 q 95 165 144 79 q 46 361 46 252 m 158 361 q 233 160 158 239 q 422 82 307 82 q 614 161 538 82 q 689 361 689 239 q 614 561 689 481 q 422 640 538 640 q 233 560 307 640 q 158 361 158 480 m 804 419 l 1267 419 q 1197 586 1262 527 q 1036 646 1131 646 q 879 585 945 646 q 804 419 813 525 z "},"Ŕ":{"ha":760,"x_min":110,"x_max":732,"o":"m 110 0 l 110 972 l 357 972 q 582 902 505 972 q 660 703 660 831 q 616 542 660 612 q 490 446 572 471 l 732 0 l 607 0 l 387 422 l 222 422 l 222 0 l 110 0 m 222 521 l 357 521 q 542 701 542 521 q 350 872 542 872 l 222 872 l 222 521 m 297 1034 l 396 1231 l 517 1231 l 393 1034 l 297 1034 z "},"ŕ":{"ha":446,"x_min":94,"x_max":418,"o":"m 94 0 l 94 722 l 203 722 l 203 602 q 281 700 223 659 q 418 741 339 741 l 418 631 q 204 346 204 631 l 204 0 l 94 0 m 192 810 l 290 1007 l 411 1007 l 288 810 l 192 810 z "},"Ŗ":{"ha":760,"x_min":110,"x_max":732,"o":"m 110 0 l 110 972 l 357 972 q 582 902 505 972 q 660 703 660 831 q 616 542 660 612 q 490 446 572 471 l 732 0 l 607 0 l 387 422 l 222 422 l 222 0 l 110 0 m 222 521 l 357 521 q 542 701 542 521 q 350 872 542 872 l 222 872 l 222 521 m 313 -119 q 333 -67 313 -89 q 383 -46 353 -46 q 439 -68 418 -46 q 461 -127 461 -91 q 361 -329 461 -243 l 314 -283 q 352 -242 334 -268 q 375 -191 370 -217 q 330 -166 347 -186 q 313 -119 313 -145 z "},"ŗ":{"ha":446,"x_min":94,"x_max":418,"o":"m 94 0 l 94 722 l 203 722 l 203 602 q 281 700 223 659 q 418 741 339 741 l 418 631 q 204 346 204 631 l 204 0 l 94 0 m 107 -119 q 127 -67 107 -89 q 178 -46 148 -46 q 234 -68 212 -46 q 256 -127 256 -91 q 155 -329 256 -243 l 109 -283 q 146 -242 128 -268 q 170 -191 165 -217 q 124 -166 142 -186 q 107 -119 107 -145 z "},"Ř":{"ha":760,"x_min":110,"x_max":732,"o":"m 110 0 l 110 972 l 357 972 q 582 902 505 972 q 660 703 660 831 q 616 542 660 612 q 490 446 572 471 l 732 0 l 607 0 l 387 422 l 222 422 l 222 0 l 110 0 m 165 1221 l 269 1221 l 354 1107 l 440 1221 l 543 1221 l 412 1040 l 296 1040 l 165 1221 m 222 521 l 357 521 q 542 701 542 521 q 350 872 542 872 l 222 872 l 222 521 z "},"ř":{"ha":446,"x_min":53,"x_max":431,"o":"m 53 1006 l 157 1006 l 241 892 l 328 1006 l 431 1006 l 300 825 l 183 825 l 53 1006 m 94 0 l 94 722 l 203 722 l 203 602 q 281 700 223 659 q 418 741 339 741 l 418 631 q 204 346 204 631 l 204 0 l 94 0 z "},"Ś":{"ha":703,"x_min":47,"x_max":646,"o":"m 47 196 l 143 237 q 355 86 196 86 q 483 129 434 86 q 532 248 532 172 q 507 334 532 296 q 441 397 481 372 q 353 445 401 422 q 256 492 304 467 q 167 549 207 517 q 102 629 127 580 q 77 742 77 678 q 152 920 77 849 q 354 990 228 990 q 447 977 404 990 q 519 944 490 964 q 572 898 549 924 q 608 849 595 871 q 629 804 621 827 l 534 765 q 517 797 527 781 q 492 829 508 812 q 456 859 475 846 q 410 880 437 871 q 353 888 383 888 q 232 846 275 888 q 189 742 189 805 q 205 677 189 707 q 247 626 220 648 q 308 586 273 605 q 380 549 342 567 q 455 513 418 532 q 527 469 493 494 q 588 416 562 445 q 630 345 614 387 q 646 254 646 304 q 565 59 646 137 q 351 -18 485 -18 q 250 -5 297 -18 q 171 30 203 9 q 113 81 139 52 q 73 138 87 110 q 47 196 58 165 m 288 1034 l 386 1231 l 507 1231 l 383 1034 l 288 1034 z "},"ś":{"ha":579,"x_min":40,"x_max":538,"o":"m 40 136 l 117 186 q 297 75 176 75 q 392 106 353 75 q 431 191 431 137 q 415 244 431 220 q 374 282 399 267 q 316 311 349 296 q 249 338 283 326 q 182 369 215 351 q 124 410 150 388 q 83 466 99 431 q 68 545 68 501 q 134 687 68 634 q 300 741 199 741 q 389 727 348 741 q 456 691 429 713 q 499 646 482 669 q 524 602 515 624 l 443 555 q 293 648 395 648 q 208 621 241 648 q 174 549 174 594 q 189 497 174 519 q 231 460 205 475 q 289 432 256 446 q 356 406 321 418 q 422 375 390 394 q 481 335 455 357 q 522 277 507 313 q 538 196 538 241 q 468 41 538 101 q 292 -18 398 -18 q 40 136 113 -18 m 222 810 l 321 1007 l 441 1007 l 318 810 l 222 810 z "},"Ŝ":{"ha":703,"x_min":47,"x_max":646,"o":"m 47 196 l 143 237 q 355 86 196 86 q 483 129 434 86 q 532 248 532 172 q 507 334 532 296 q 441 397 481 372 q 353 445 401 422 q 256 492 304 467 q 167 549 207 517 q 102 629 127 580 q 77 742 77 678 q 152 920 77 849 q 354 990 228 990 q 447 977 404 990 q 519 944 490 964 q 572 898 549 924 q 608 849 595 871 q 629 804 621 827 l 534 765 q 517 797 527 781 q 492 829 508 812 q 456 859 475 846 q 410 880 437 871 q 353 888 383 888 q 232 846 275 888 q 189 742 189 805 q 205 677 189 707 q 247 626 220 648 q 308 586 273 605 q 380 549 342 567 q 455 513 418 532 q 527 469 493 494 q 588 416 562 445 q 630 345 614 387 q 646 254 646 304 q 565 59 646 137 q 351 -18 485 -18 q 250 -5 297 -18 q 171 30 203 9 q 113 81 139 52 q 73 138 87 110 q 47 196 58 165 m 164 1040 l 294 1221 l 411 1221 l 542 1040 l 439 1040 l 353 1154 l 268 1040 l 164 1040 z "},"ŝ":{"ha":579,"x_min":40,"x_max":538,"o":"m 40 136 l 117 186 q 297 75 176 75 q 392 106 353 75 q 431 191 431 137 q 415 244 431 220 q 374 282 399 267 q 316 311 349 296 q 249 338 283 326 q 182 369 215 351 q 124 410 150 388 q 83 466 99 431 q 68 545 68 501 q 134 687 68 634 q 300 741 199 741 q 389 727 348 741 q 456 691 429 713 q 499 646 482 669 q 524 602 515 624 l 443 555 q 293 648 395 648 q 208 621 241 648 q 174 549 174 594 q 189 497 174 519 q 231 460 205 475 q 289 432 256 446 q 356 406 321 418 q 422 375 390 394 q 481 335 455 357 q 522 277 507 313 q 538 196 538 241 q 468 41 538 101 q 292 -18 398 -18 q 40 136 113 -18 m 113 825 l 243 1006 l 359 1006 l 490 825 l 387 825 l 301 939 l 216 825 l 113 825 z "},"Ş":{"ha":703,"x_min":47,"x_max":646,"o":"m 47 196 l 143 237 q 355 86 196 86 q 483 129 434 86 q 532 248 532 172 q 507 334 532 296 q 441 397 481 372 q 353 445 401 422 q 256 492 304 467 q 167 549 207 517 q 102 629 127 580 q 77 742 77 678 q 152 920 77 849 q 354 990 228 990 q 447 977 404 990 q 519 944 490 964 q 572 898 549 924 q 608 849 595 871 q 629 804 621 827 l 534 765 q 517 797 527 781 q 492 829 508 812 q 456 859 475 846 q 410 880 437 871 q 353 888 383 888 q 232 846 275 888 q 189 742 189 805 q 205 677 189 707 q 247 626 220 648 q 308 586 273 605 q 380 549 342 567 q 455 513 418 532 q 527 469 493 494 q 588 416 562 445 q 630 345 614 387 q 646 254 646 304 q 574 68 646 144 q 382 -17 503 -8 l 375 -65 q 456 -102 427 -70 q 486 -183 486 -135 q 441 -280 486 -248 q 329 -313 397 -313 q 271 -306 291 -313 l 283 -235 q 325 -239 305 -239 q 403 -182 403 -239 q 381 -140 403 -155 q 323 -125 360 -125 l 297 -127 l 313 -16 q 225 4 266 -11 q 157 41 185 20 q 106 89 129 62 q 70 142 83 117 q 47 196 56 168 z "},"ş":{"ha":579,"x_min":40,"x_max":538,"o":"m 40 136 l 117 186 q 297 75 176 75 q 392 106 353 75 q 431 191 431 137 q 415 244 431 220 q 374 282 399 267 q 316 311 349 296 q 249 338 283 326 q 182 369 215 351 q 124 410 150 388 q 83 466 99 431 q 68 545 68 501 q 134 687 68 634 q 300 741 199 741 q 389 727 348 741 q 456 691 429 713 q 499 646 482 669 q 524 602 515 624 l 443 555 q 293 648 395 648 q 208 621 241 648 q 174 549 174 594 q 189 497 174 519 q 231 460 205 475 q 289 432 256 446 q 356 406 321 418 q 422 375 390 394 q 481 335 455 357 q 522 277 507 313 q 538 196 538 241 q 476 49 538 108 q 318 -17 414 -9 l 311 -65 q 393 -102 363 -70 q 422 -183 422 -135 q 378 -280 422 -248 q 265 -313 333 -313 q 207 -306 227 -313 l 220 -235 q 261 -239 241 -239 q 339 -182 339 -239 q 318 -140 339 -155 q 260 -125 296 -125 l 233 -127 l 249 -16 q 40 136 100 3 z "},"Š":{"ha":703,"x_min":47,"x_max":646,"o":"m 47 196 l 143 237 q 355 86 196 86 q 483 129 434 86 q 532 248 532 172 q 507 334 532 296 q 441 397 481 372 q 353 445 401 422 q 256 492 304 467 q 167 549 207 517 q 102 629 127 580 q 77 742 77 678 q 152 920 77 849 q 354 990 228 990 q 447 977 404 990 q 519 944 490 964 q 572 898 549 924 q 608 849 595 871 q 629 804 621 827 l 534 765 q 517 797 527 781 q 492 829 508 812 q 456 859 475 846 q 410 880 437 871 q 353 888 383 888 q 232 846 275 888 q 189 742 189 805 q 205 677 189 707 q 247 626 220 648 q 308 586 273 605 q 380 549 342 567 q 455 513 418 532 q 527 469 493 494 q 588 416 562 445 q 630 345 614 387 q 646 254 646 304 q 565 59 646 137 q 351 -18 485 -18 q 250 -5 297 -18 q 171 30 203 9 q 113 81 139 52 q 73 138 87 110 q 47 196 58 165 m 160 1221 l 264 1221 l 349 1107 l 435 1221 l 538 1221 l 407 1040 l 290 1040 l 160 1221 z "},"š":{"ha":579,"x_min":40,"x_max":538,"o":"m 40 136 l 117 186 q 297 75 176 75 q 392 106 353 75 q 431 191 431 137 q 415 244 431 220 q 374 282 399 267 q 316 311 349 296 q 249 338 283 326 q 182 369 215 351 q 124 410 150 388 q 83 466 99 431 q 68 545 68 501 q 134 687 68 634 q 300 741 199 741 q 389 727 348 741 q 456 691 429 713 q 499 646 482 669 q 524 602 515 624 l 443 555 q 293 648 395 648 q 208 621 241 648 q 174 549 174 594 q 189 497 174 519 q 231 460 205 475 q 289 432 256 446 q 356 406 321 418 q 422 375 390 394 q 481 335 455 357 q 522 277 507 313 q 538 196 538 241 q 468 41 538 101 q 292 -18 398 -18 q 40 136 113 -18 m 111 1006 l 215 1006 l 300 892 l 386 1006 l 489 1006 l 358 825 l 241 825 l 111 1006 z "},"Ţ":{"ha":709,"x_min":29,"x_max":665,"o":"m 29 869 l 29 972 l 665 972 l 665 869 l 404 869 l 404 0 l 375 0 l 367 -65 q 448 -102 418 -70 q 478 -183 478 -135 q 433 -280 478 -248 q 321 -313 389 -313 q 262 -306 283 -313 l 275 -235 q 317 -239 297 -239 q 395 -182 395 -239 q 373 -140 395 -155 q 315 -125 352 -125 l 289 -127 l 306 0 l 292 0 l 292 869 l 29 869 z "},"ţ":{"ha":410,"x_min":18,"x_max":378,"o":"m 18 629 l 18 722 l 103 722 l 103 873 l 212 873 l 212 722 l 371 722 l 371 629 l 212 629 l 212 257 q 242 125 212 159 q 346 90 272 90 l 376 92 l 376 -5 q 310 -9 347 -9 l 275 -7 l 267 -65 q 348 -102 318 -70 q 378 -183 378 -135 q 333 -280 378 -248 q 221 -313 288 -313 q 163 -306 183 -313 l 175 -235 q 216 -239 197 -239 q 294 -182 294 -239 q 273 -140 294 -155 q 215 -125 252 -125 l 189 -127 l 208 11 q 103 248 103 64 l 103 629 l 18 629 z "},"Ť":{"ha":709,"x_min":29,"x_max":665,"o":"m 29 869 l 29 972 l 665 972 l 665 869 l 404 869 l 404 0 l 292 0 l 292 869 l 29 869 m 161 1221 l 265 1221 l 350 1107 l 436 1221 l 539 1221 l 408 1040 l 292 1040 l 161 1221 z "},"ť":{"ha":410,"x_min":18,"x_max":408,"o":"m 18 629 l 18 722 l 103 722 l 103 873 l 212 873 l 212 722 l 371 722 l 371 629 l 212 629 l 212 257 q 242 125 212 159 q 346 90 272 90 l 376 92 l 376 -5 q 310 -9 347 -9 q 103 248 103 -9 l 103 629 l 18 629 m 285 774 l 294 1004 l 408 1004 l 368 774 l 285 774 z "},"Ŧ":{"ha":709,"x_min":29,"x_max":665,"o":"m 29 869 l 29 972 l 665 972 l 665 869 l 404 869 l 404 566 l 597 566 l 597 475 l 404 475 l 404 0 l 292 0 l 292 475 l 117 475 l 117 566 l 292 566 l 292 869 l 29 869 z "},"ŧ":{"ha":410,"x_min":18,"x_max":376,"o":"m 18 387 l 18 471 l 103 471 l 103 629 l 18 629 l 18 722 l 103 722 l 103 873 l 212 873 l 212 722 l 371 722 l 371 629 l 212 629 l 212 471 l 367 471 l 367 387 l 212 387 l 212 245 q 243 123 212 156 q 346 90 274 90 l 376 92 l 376 -5 q 310 -9 347 -9 q 103 248 103 -9 l 103 387 l 18 387 z "},"Ũ":{"ha":933,"x_min":104,"x_max":829,"o":"m 104 349 l 104 972 l 216 972 l 216 350 q 281 156 216 227 q 467 86 345 86 q 653 157 588 86 q 718 351 718 227 l 718 972 l 829 972 l 829 350 q 733 82 829 182 q 467 -18 637 -18 q 199 81 294 -18 q 104 349 104 180 m 262 1054 q 299 1160 262 1120 q 393 1200 335 1200 q 456 1184 423 1200 q 518 1154 489 1169 q 567 1139 547 1139 q 604 1155 590 1139 q 619 1200 618 1172 l 697 1200 q 662 1093 697 1133 q 570 1053 627 1053 q 507 1068 539 1053 q 446 1100 475 1084 q 395 1116 417 1116 q 357 1099 372 1116 q 342 1054 342 1082 l 262 1054 z "},"ũ":{"ha":754,"x_min":87,"x_max":667,"o":"m 87 271 l 87 722 l 197 722 l 197 267 q 245 132 197 182 q 368 82 294 82 q 504 138 452 82 q 555 283 555 194 l 555 722 l 667 722 l 667 0 l 557 0 l 557 104 q 472 17 530 53 q 343 -18 414 -18 q 154 62 221 -18 q 87 271 87 142 m 164 836 q 200 942 164 902 q 294 982 237 982 q 357 967 324 982 q 419 936 390 951 q 468 921 448 921 q 506 938 491 921 q 521 982 520 954 l 599 982 q 564 875 599 916 q 471 835 528 835 q 408 850 440 835 q 347 882 376 866 q 296 897 318 897 q 258 881 273 897 q 243 836 243 864 l 164 836 z "},"Ū":{"ha":937,"x_min":104,"x_max":829,"o":"m 104 349 l 104 972 l 216 972 l 216 350 q 281 156 216 227 q 467 86 345 86 q 653 157 588 86 q 718 351 718 227 l 718 972 l 829 972 l 829 350 q 733 82 829 182 q 467 -18 637 -18 q 199 81 294 -18 q 104 349 104 180 m 311 1063 l 311 1150 l 647 1150 l 647 1063 l 311 1063 z "},"ū":{"ha":754,"x_min":87,"x_max":667,"o":"m 87 271 l 87 722 l 197 722 l 197 267 q 245 132 197 182 q 368 82 294 82 q 504 138 452 82 q 555 283 555 194 l 555 722 l 667 722 l 667 0 l 557 0 l 557 104 q 472 17 530 53 q 343 -18 414 -18 q 154 62 221 -18 q 87 271 87 142 m 215 873 l 215 961 l 551 961 l 551 873 l 215 873 z "},"Ŭ":{"ha":933,"x_min":104,"x_max":829,"o":"m 104 349 l 104 972 l 216 972 l 216 350 q 281 156 216 227 q 467 86 345 86 q 653 157 588 86 q 718 351 718 227 l 718 972 l 829 972 l 829 350 q 733 82 829 182 q 467 -18 637 -18 q 199 81 294 -18 q 104 349 104 180 m 297 1213 l 385 1213 q 406 1141 385 1168 q 473 1114 427 1114 q 541 1141 519 1114 q 562 1213 562 1168 l 650 1213 q 604 1087 650 1137 q 473 1038 557 1038 q 343 1087 389 1038 q 297 1213 297 1137 z "},"ŭ":{"ha":754,"x_min":87,"x_max":667,"o":"m 87 271 l 87 722 l 197 722 l 197 267 q 245 132 197 182 q 368 82 294 82 q 504 138 452 82 q 555 283 555 194 l 555 722 l 667 722 l 667 0 l 557 0 l 557 104 q 472 17 530 53 q 343 -18 414 -18 q 154 62 221 -18 q 87 271 87 142 m 204 990 l 292 990 q 313 919 292 946 q 380 892 334 892 q 448 919 426 892 q 469 990 469 946 l 557 990 q 511 865 557 914 q 380 815 465 815 q 250 865 296 815 q 204 990 204 914 z "},"Ů":{"ha":933,"x_min":104,"x_max":829,"o":"m 104 349 l 104 972 l 216 972 l 216 350 q 281 156 216 227 q 467 86 345 86 q 653 157 588 86 q 718 351 718 227 l 718 972 l 829 972 l 829 350 q 733 82 829 182 q 467 -18 637 -18 q 199 81 294 -18 q 104 349 104 180 m 350 1149 q 385 1236 350 1202 q 473 1270 420 1270 q 565 1236 530 1270 q 600 1150 600 1202 q 565 1063 600 1097 q 475 1028 529 1028 q 386 1062 421 1028 q 350 1149 350 1097 m 433 1191 q 425 1183 433 1191 q 418 1149 418 1175 q 433 1107 418 1123 q 475 1090 449 1090 q 516 1107 501 1090 q 532 1150 532 1123 q 516 1192 532 1176 q 473 1207 500 1207 q 433 1191 448 1207 z "},"ů":{"ha":754,"x_min":87,"x_max":667,"o":"m 87 271 l 87 722 l 197 722 l 197 267 q 245 132 197 182 q 368 82 294 82 q 504 138 452 82 q 555 283 555 194 l 555 722 l 667 722 l 667 0 l 557 0 l 557 104 q 472 17 530 53 q 343 -18 414 -18 q 154 62 221 -18 q 87 271 87 142 m 257 922 q 292 1009 257 975 q 380 1043 328 1043 q 472 1009 437 1043 q 507 924 507 976 q 472 836 507 871 q 382 802 436 802 q 293 836 328 802 q 257 922 257 870 m 340 964 q 332 956 340 964 q 325 922 325 948 q 340 880 325 897 q 382 864 356 864 q 424 880 408 864 q 439 924 439 897 q 423 965 439 949 q 380 981 408 981 q 340 964 355 981 z "},"Ű":{"ha":937,"x_min":104,"x_max":829,"o":"m 104 349 l 104 972 l 216 972 l 216 350 q 281 156 216 227 q 467 86 345 86 q 653 157 588 86 q 718 351 718 227 l 718 972 l 829 972 l 829 350 q 733 82 829 182 q 467 -18 637 -18 q 199 81 294 -18 q 104 349 104 180 m 318 1034 l 416 1231 l 532 1231 l 408 1034 l 318 1034 m 493 1034 l 591 1231 l 707 1231 l 583 1034 l 493 1034 z "},"ű":{"ha":754,"x_min":87,"x_max":667,"o":"m 87 271 l 87 722 l 197 722 l 197 267 q 245 132 197 182 q 368 82 294 82 q 504 138 452 82 q 555 283 555 194 l 555 722 l 667 722 l 667 0 l 557 0 l 557 104 q 472 17 530 53 q 343 -18 414 -18 q 154 62 221 -18 q 87 271 87 142 m 231 810 l 329 1007 l 444 1007 l 321 810 l 231 810 m 406 810 l 504 1007 l 619 1007 l 496 810 l 406 810 z "},"Ų":{"ha":933,"x_min":104,"x_max":829,"o":"m 104 349 l 104 972 l 216 972 l 216 350 q 281 156 216 227 q 467 86 345 86 q 653 157 588 86 q 718 351 718 227 l 718 972 l 829 972 l 829 350 q 767 124 829 217 q 590 -1 704 32 q 529 -44 560 -13 q 497 -115 497 -76 q 522 -165 497 -149 q 582 -182 547 -182 l 582 -268 q 549 -271 571 -271 q 443 -237 488 -271 q 397 -140 397 -203 q 417 -71 397 -103 q 468 -18 437 -39 q 200 81 295 -18 q 104 349 104 180 z "},"ų":{"ha":754,"x_min":87,"x_max":667,"o":"m 87 271 l 87 722 l 197 722 l 197 267 q 245 132 197 182 q 368 82 294 82 q 504 138 452 82 q 555 283 555 194 l 555 722 l 667 722 l 667 0 q 603 -43 637 -12 q 570 -115 570 -75 q 594 -165 570 -149 q 654 -182 619 -182 l 654 -268 q 621 -271 643 -271 q 514 -237 559 -271 q 469 -140 469 -203 q 502 -54 469 -93 q 574 0 534 -16 l 557 0 l 557 104 q 472 17 530 53 q 343 -18 414 -18 q 154 62 221 -18 q 87 271 87 142 z "},"Ŵ":{"ha":1310,"x_min":16,"x_max":1293,"o":"m 16 972 l 136 972 l 359 143 l 599 972 l 710 972 l 949 143 l 1174 972 l 1293 972 l 1017 0 l 890 0 l 654 807 l 418 0 l 293 0 l 16 972 m 467 1040 l 597 1221 l 714 1221 l 844 1040 l 742 1040 l 656 1154 l 571 1040 l 467 1040 z "},"ŵ":{"ha":1133,"x_min":9,"x_max":1124,"o":"m 9 722 l 129 722 l 318 127 q 513 722 320 132 l 621 722 l 814 127 l 1004 722 l 1124 722 l 879 0 l 758 0 l 567 574 l 374 0 l 253 0 l 9 722 m 378 825 l 509 1006 l 625 1006 l 755 825 l 653 825 l 567 939 l 482 825 l 378 825 z "},"Ŷ":{"ha":739,"x_min":12,"x_max":726,"o":"m 12 972 l 142 972 l 370 562 l 602 972 l 726 972 l 425 456 l 425 0 l 314 0 l 314 456 l 12 972 m 182 1040 l 313 1221 l 429 1221 l 559 1040 l 457 1040 l 371 1154 l 286 1040 l 182 1040 z "},"ŷ":{"ha":705,"x_min":8,"x_max":696,"o":"m 8 722 l 127 722 l 357 142 l 579 722 l 696 722 l 309 -249 l 199 -249 l 302 7 l 8 722 m 170 825 l 300 1006 l 416 1006 l 547 825 l 444 825 l 358 939 l 273 825 l 170 825 z "},"Ÿ":{"ha":739,"x_min":12,"x_max":726,"o":"m 12 972 l 142 972 l 370 562 l 602 972 l 726 972 l 425 456 l 425 0 l 314 0 l 314 456 l 12 972 m 191 1150 q 211 1199 191 1179 q 260 1219 231 1219 q 309 1199 290 1219 q 329 1150 329 1179 q 309 1101 329 1121 q 260 1080 290 1080 q 211 1101 231 1080 q 191 1150 191 1121 m 418 1150 q 438 1199 418 1179 q 488 1219 458 1219 q 536 1199 516 1219 q 557 1150 557 1179 q 537 1101 557 1121 q 488 1080 517 1080 q 438 1101 458 1080 q 418 1150 418 1121 z "},"Ź":{"ha":825,"x_min":49,"x_max":770,"o":"m 49 0 l 49 82 l 621 871 l 66 871 l 66 972 l 766 972 l 766 889 l 193 102 l 770 102 l 770 0 l 49 0 m 349 1034 l 447 1231 l 568 1231 l 444 1034 l 349 1034 z "},"ź":{"ha":642,"x_min":45,"x_max":595,"o":"m 45 0 l 45 78 l 458 628 l 57 628 l 57 722 l 587 722 l 587 643 l 175 93 l 595 93 l 595 0 l 45 0 m 243 810 l 342 1007 l 463 1007 l 339 810 l 243 810 z "},"Ż":{"ha":825,"x_min":49,"x_max":770,"o":"m 49 0 l 49 82 l 621 871 l 66 871 l 66 972 l 766 972 l 766 889 l 193 102 l 770 102 l 770 0 l 49 0 m 339 1125 q 361 1178 339 1156 q 414 1200 382 1200 q 468 1178 446 1200 q 490 1125 490 1156 q 468 1071 490 1093 q 414 1048 446 1048 q 361 1071 382 1048 q 339 1125 339 1093 z "},"ż":{"ha":642,"x_min":45,"x_max":595,"o":"m 45 0 l 45 78 l 458 628 l 57 628 l 57 722 l 587 722 l 587 643 l 175 93 l 595 93 l 595 0 l 45 0 m 248 908 q 269 961 248 939 q 322 983 291 983 q 376 961 354 983 q 399 908 399 939 q 376 854 399 876 q 322 832 354 832 q 269 854 291 832 q 248 908 248 876 z "},"Ž":{"ha":825,"x_min":49,"x_max":770,"o":"m 49 0 l 49 82 l 621 871 l 66 871 l 66 972 l 766 972 l 766 889 l 193 102 l 770 102 l 770 0 l 49 0 m 222 1221 l 326 1221 l 411 1107 l 497 1221 l 600 1221 l 469 1040 l 353 1040 l 222 1221 z "},"ž":{"ha":642,"x_min":45,"x_max":595,"o":"m 45 0 l 45 78 l 458 628 l 57 628 l 57 722 l 587 722 l 587 643 l 175 93 l 595 93 l 595 0 l 45 0 m 134 1006 l 237 1006 l 322 892 l 408 1006 l 511 1006 l 380 825 l 264 825 l 134 1006 z "},"ƒ":{"ha":631,"x_min":-53,"x_max":596,"o":"m -53 -258 l -39 -164 q 25 -171 -8 -171 q 122 -129 89 -171 q 170 14 156 -87 l 235 488 l 135 488 l 135 581 l 248 581 l 271 751 q 304 863 279 816 q 363 935 328 909 q 435 972 397 960 q 515 983 473 983 q 554 981 534 983 q 585 977 574 979 l 596 975 l 583 880 q 518 888 551 888 q 423 852 457 888 q 376 730 389 817 l 357 581 l 501 581 l 501 488 l 345 488 l 282 41 q 268 -52 276 -4 q 233 -155 258 -112 q 174 -222 208 -199 q 104 -256 140 -245 q 28 -267 68 -267 q -11 -264 9 -267 q -42 -260 -31 -262 l -53 -258 z "},"Ǻ":{"ha":875,"x_min":17,"x_max":859,"o":"m 17 0 l 366 930 q 313 1032 313 966 q 348 1119 313 1085 q 436 1153 383 1153 q 527 1119 492 1153 q 562 1034 562 1086 q 510 932 562 966 l 859 0 l 745 0 l 628 315 l 248 315 l 131 0 l 17 0 m 282 412 l 595 412 l 437 848 l 282 412 m 396 1074 q 388 1066 396 1074 q 380 1032 380 1058 q 396 990 380 1006 q 437 974 412 974 q 479 990 464 974 q 494 1034 494 1006 q 479 1075 494 1059 q 436 1090 463 1090 q 396 1074 411 1090 m 390 1189 l 489 1386 l 610 1386 l 486 1189 l 390 1189 z "},"ǻ":{"ha":708,"x_min":47,"x_max":625,"o":"m 47 222 q 125 393 47 326 q 325 460 203 460 q 439 440 389 460 q 515 395 490 420 l 515 484 q 469 601 515 559 q 340 643 422 643 q 127 581 233 643 l 83 661 q 350 741 210 741 q 558 669 492 741 q 625 476 625 598 l 625 0 l 530 0 l 518 61 q 322 -18 449 -18 q 125 50 203 -18 q 47 222 47 117 m 158 224 q 208 117 158 160 q 340 74 258 74 q 470 116 420 74 q 519 224 519 158 q 470 332 519 292 q 339 372 420 372 q 208 330 258 372 q 158 224 158 288 m 231 911 q 266 998 231 964 q 354 1032 301 1032 q 446 999 410 1032 q 481 913 481 965 q 445 825 481 860 q 355 790 410 790 q 266 824 302 790 q 231 911 231 859 m 314 953 q 306 945 314 953 q 298 911 298 937 q 314 869 298 885 q 355 852 330 852 q 397 869 382 852 q 412 913 412 886 q 397 954 412 939 q 354 970 381 970 q 314 953 329 970 m 304 1072 l 403 1270 l 524 1270 l 400 1072 l 304 1072 z "},"Ǽ":{"ha":1126,"x_min":11,"x_max":1053,"o":"m 11 0 l 507 972 l 1039 972 l 1039 869 l 690 869 l 690 546 l 994 546 l 994 444 l 690 444 l 690 102 l 1053 102 l 1053 0 l 578 0 l 578 315 l 288 315 l 134 0 l 11 0 m 335 412 l 578 412 l 578 869 l 557 869 l 335 412 m 623 1034 l 721 1231 l 842 1231 l 718 1034 l 623 1034 z "},"ǽ":{"ha":1249,"x_min":47,"x_max":1204,"o":"m 47 222 q 125 393 47 326 q 325 460 203 460 q 439 440 389 460 q 515 395 490 420 l 515 484 q 469 601 515 559 q 340 643 422 643 q 127 581 233 643 l 83 661 q 350 741 210 741 q 507 703 446 741 q 593 600 568 666 q 709 704 639 667 q 861 741 779 741 q 1112 638 1019 741 q 1204 371 1204 536 l 1204 338 l 625 338 q 698 149 626 218 q 884 79 770 79 q 1108 192 1028 79 l 1181 139 q 1140 85 1164 111 q 1080 35 1116 60 q 993 -4 1044 11 q 884 -18 942 -18 q 702 22 782 -18 q 579 136 623 62 q 488 27 553 72 q 322 -18 422 -18 q 125 50 203 -18 q 47 222 47 117 m 158 224 q 208 117 158 160 q 340 74 258 74 q 468 116 419 74 q 517 224 517 158 q 469 332 517 292 q 339 372 420 372 q 208 330 258 372 q 158 224 158 288 m 534 810 l 633 1007 l 754 1007 l 631 810 l 534 810 m 629 419 l 1092 419 q 1021 586 1087 527 q 861 646 956 646 q 704 585 770 646 q 629 419 638 525 z "},"Ǿ":{"ha":1097,"x_min":54,"x_max":1046,"o":"m 54 486 q 119 743 54 627 q 297 924 184 859 q 550 990 411 990 q 823 908 701 990 l 896 999 l 965 943 l 895 852 q 1006 689 966 784 q 1046 486 1046 595 q 981 230 1046 345 q 802 48 916 114 q 549 -18 688 -18 q 272 62 394 -18 l 201 -28 l 132 28 l 203 118 q 93 281 132 186 q 54 486 54 376 m 171 486 q 275 208 171 319 l 755 822 q 550 885 663 885 q 279 771 388 885 q 171 486 171 657 m 340 149 q 550 87 431 87 q 743 139 656 87 q 879 281 829 190 q 929 486 929 373 q 823 764 929 649 l 340 149 m 479 1034 l 578 1231 l 699 1231 l 575 1034 l 479 1034 z "},"ǿ":{"ha":846,"x_min":46,"x_max":800,"o":"m 46 361 q 154 632 46 524 q 424 741 262 741 q 629 682 538 741 l 682 750 l 746 699 l 693 632 q 800 361 800 525 q 692 90 800 199 q 422 -18 585 -18 q 225 33 311 -18 l 172 -33 l 109 17 l 160 82 q 46 361 46 192 m 158 361 q 228 168 158 244 l 564 600 q 422 640 500 640 q 233 560 307 640 q 158 361 158 480 m 290 117 q 422 82 345 82 q 614 161 538 82 q 689 361 689 239 q 625 545 689 467 l 290 117 m 354 810 l 453 1007 l 574 1007 l 450 810 l 354 810 z "},"Ș":{"ha":703,"x_min":47,"x_max":646,"o":"m 47 196 l 143 237 q 355 86 196 86 q 483 129 434 86 q 532 248 532 172 q 507 334 532 296 q 441 397 481 372 q 353 445 401 422 q 256 492 304 467 q 167 549 207 517 q 102 629 127 580 q 77 742 77 678 q 152 920 77 849 q 354 990 228 990 q 447 977 404 990 q 519 944 490 964 q 572 898 549 924 q 608 849 595 871 q 629 804 621 827 l 534 765 q 517 797 527 781 q 492 829 508 812 q 456 859 475 846 q 410 880 437 871 q 353 888 383 888 q 232 846 275 888 q 189 742 189 805 q 205 677 189 707 q 247 626 220 648 q 308 586 273 605 q 380 549 342 567 q 455 513 418 532 q 527 469 493 494 q 588 416 562 445 q 630 345 614 387 q 646 254 646 304 q 565 59 646 137 q 351 -18 485 -18 q 250 -5 297 -18 q 171 30 203 9 q 113 81 139 52 q 73 138 87 110 q 47 196 58 165 m 281 -119 q 301 -67 281 -89 q 351 -46 321 -46 q 408 -68 386 -46 q 429 -127 429 -91 q 329 -329 429 -243 l 282 -283 q 320 -242 302 -268 q 343 -191 338 -217 q 298 -166 315 -186 q 281 -119 281 -145 z "},"ș":{"ha":579,"x_min":40,"x_max":538,"o":"m 40 136 l 117 186 q 297 75 176 75 q 392 106 353 75 q 431 191 431 137 q 415 244 431 220 q 374 282 399 267 q 316 311 349 296 q 249 338 283 326 q 182 369 215 351 q 124 410 150 388 q 83 466 99 431 q 68 545 68 501 q 134 687 68 634 q 300 741 199 741 q 389 727 348 741 q 456 691 429 713 q 499 646 482 669 q 524 602 515 624 l 443 555 q 293 648 395 648 q 208 621 241 648 q 174 549 174 594 q 189 497 174 519 q 231 460 205 475 q 289 432 256 446 q 356 406 321 418 q 422 375 390 394 q 481 335 455 357 q 522 277 507 313 q 538 196 538 241 q 468 41 538 101 q 292 -18 398 -18 q 40 136 113 -18 m 225 -119 q 245 -67 225 -89 q 296 -46 266 -46 q 352 -68 330 -46 q 374 -127 374 -91 q 273 -329 374 -243 l 227 -283 q 264 -242 246 -268 q 288 -191 283 -217 q 242 -166 260 -186 q 225 -119 225 -145 z "},"Ț":{"ha":709,"x_min":29,"x_max":665,"o":"m 29 869 l 29 972 l 665 972 l 665 869 l 404 869 l 404 0 l 292 0 l 292 869 l 29 869 m 272 -119 q 293 -67 272 -89 q 343 -46 313 -46 q 399 -68 378 -46 q 421 -127 421 -91 q 321 -329 421 -243 l 273 -283 q 312 -242 293 -267 q 335 -191 330 -216 q 290 -166 307 -186 q 272 -119 272 -145 z "},"ț":{"ha":410,"x_min":18,"x_max":376,"o":"m 18 629 l 18 722 l 103 722 l 103 873 l 212 873 l 212 722 l 371 722 l 371 629 l 212 629 l 212 257 q 242 125 212 159 q 346 90 272 90 l 376 92 l 376 -5 q 310 -9 347 -9 q 103 248 103 -9 l 103 629 l 18 629 m 183 -119 q 204 -67 183 -89 q 254 -46 224 -46 q 310 -68 289 -46 q 332 -127 332 -91 q 232 -329 332 -244 l 184 -283 q 222 -242 204 -268 q 245 -191 241 -217 q 200 -166 218 -186 q 183 -119 183 -145 z "},"ȷ":{"ha":298,"x_min":-58,"x_max":204,"o":"m -58 -168 q -28 -170 -40 -170 q 64 -134 33 -170 q 94 -21 94 -98 l 94 722 l 204 722 l 204 -24 q 187 -138 204 -90 q 138 -214 170 -186 q 67 -253 106 -241 q -21 -265 28 -265 l -58 -262 l -58 -168 z "},"ˆ":{"ha":626,"x_min":123,"x_max":501,"o":"m 123 825 l 254 1006 l 371 1006 l 501 825 l 399 825 l 313 939 l 228 825 l 123 825 z "},"ˇ":{"ha":626,"x_min":123,"x_max":501,"o":"m 123 1006 l 228 1006 l 313 892 l 399 1006 l 501 1006 l 371 825 l 254 825 l 123 1006 z "},"˘":{"ha":626,"x_min":136,"x_max":489,"o":"m 136 990 l 224 990 q 245 919 224 946 q 313 892 267 892 q 380 919 358 892 q 401 990 401 946 l 489 990 q 443 865 489 914 q 313 815 397 815 q 182 865 229 815 q 136 990 136 914 z "},"˙":{"ha":626,"x_min":237,"x_max":389,"o":"m 237 908 q 259 961 237 939 q 313 983 281 983 q 367 961 345 983 q 389 908 389 939 q 367 854 389 876 q 313 832 345 832 q 259 854 281 832 q 237 908 237 876 z "},"˚":{"ha":626,"x_min":187,"x_max":437,"o":"m 187 922 q 222 1009 187 975 q 311 1043 258 1043 q 402 1009 368 1043 q 437 924 437 976 q 402 836 437 871 q 313 802 367 802 q 223 836 258 802 q 187 922 187 871 m 271 964 q 263 956 271 964 q 256 922 256 948 q 271 880 256 897 q 313 864 287 864 q 354 880 339 864 q 370 924 370 897 q 354 965 370 949 q 311 981 338 981 q 271 964 286 981 z "},"˛":{"ha":626,"x_min":214,"x_max":411,"o":"m 214 -140 q 246 -54 214 -93 q 318 0 278 -16 l 411 0 q 348 -43 381 -12 q 314 -115 314 -75 q 339 -165 314 -149 q 399 -182 363 -182 l 399 -268 q 366 -271 388 -271 q 259 -237 304 -271 q 214 -140 214 -203 z "},"˜":{"ha":626,"x_min":94,"x_max":529,"o":"m 94 836 q 131 942 94 902 q 225 982 167 982 q 288 967 255 982 q 350 936 321 951 q 399 921 378 921 q 436 938 422 921 q 452 982 451 954 l 529 982 q 494 875 529 916 q 401 835 459 835 q 339 850 371 835 q 278 882 307 866 q 227 897 249 897 q 189 881 203 897 q 174 836 174 864 l 94 836 z "},"˝":{"ha":634,"x_min":122,"x_max":511,"o":"m 122 810 l 221 1007 l 336 1007 l 212 810 l 122 810 m 297 810 l 396 1007 l 511 1007 l 387 810 l 297 810 z "},"Ẁ":{"ha":1308,"x_min":16,"x_max":1293,"o":"m 16 972 l 136 972 l 359 143 l 599 972 l 710 972 l 949 143 l 1174 972 l 1293 972 l 1017 0 l 890 0 l 654 807 l 418 0 l 293 0 l 16 972 m 478 1231 l 597 1231 l 697 1034 l 600 1034 l 478 1231 z "},"ẁ":{"ha":1133,"x_min":9,"x_max":1124,"o":"m 9 722 l 129 722 l 318 127 q 513 722 320 132 l 621 722 l 814 127 l 1004 722 l 1124 722 l 879 0 l 758 0 l 567 574 l 374 0 l 253 0 l 9 722 m 401 1007 l 521 1007 l 621 810 l 524 810 l 401 1007 z "},"Ẃ":{"ha":1247,"x_min":16,"x_max":1293,"o":"m 16 972 l 136 972 l 359 143 l 599 972 l 710 972 l 949 143 l 1174 972 l 1293 972 l 1017 0 l 890 0 l 654 807 l 418 0 l 293 0 l 16 972 m 589 1034 l 688 1231 l 808 1231 l 685 1034 l 589 1034 z "},"ẃ":{"ha":1133,"x_min":9,"x_max":1124,"o":"m 9 722 l 129 722 l 318 127 q 513 722 320 132 l 621 722 l 814 127 l 1004 722 l 1124 722 l 879 0 l 758 0 l 567 574 l 374 0 l 253 0 l 9 722 m 517 810 l 615 1007 l 736 1007 l 612 810 l 517 810 z "},"Ẅ":{"ha":1308,"x_min":16,"x_max":1293,"o":"m 16 972 l 136 972 l 359 143 l 599 972 l 710 972 l 949 143 l 1174 972 l 1293 972 l 1017 0 l 890 0 l 654 807 l 418 0 l 293 0 l 16 972 m 471 1128 q 491 1176 471 1156 q 541 1197 511 1197 q 590 1177 570 1197 q 610 1128 610 1156 q 590 1079 610 1099 q 541 1059 570 1059 q 491 1079 511 1059 q 471 1128 471 1099 m 699 1128 q 719 1177 699 1156 q 768 1197 739 1197 q 817 1177 797 1197 q 838 1128 838 1156 q 818 1079 838 1099 q 768 1059 798 1059 q 719 1079 739 1059 q 699 1128 699 1099 z "},"ẅ":{"ha":1133,"x_min":9,"x_max":1124,"o":"m 9 722 l 129 722 l 318 127 q 513 722 320 132 l 621 722 l 814 127 l 1004 722 l 1124 722 l 879 0 l 758 0 l 567 574 l 374 0 l 253 0 l 9 722 m 382 907 q 402 956 382 935 q 452 977 423 977 q 501 956 481 977 q 521 907 521 935 q 501 858 521 878 q 452 838 481 838 q 402 858 422 838 q 382 907 382 878 m 610 907 q 630 956 610 935 q 679 977 650 977 q 728 956 707 977 q 749 907 749 935 q 728 858 749 878 q 679 838 708 838 q 629 858 649 838 q 610 907 610 878 z "},"Ỳ":{"ha":739,"x_min":12,"x_max":726,"o":"m 12 972 l 142 972 l 370 562 l 602 972 l 726 972 l 425 456 l 425 0 l 314 0 l 314 456 l 12 972 m 201 1231 l 321 1231 l 421 1034 l 323 1034 l 201 1231 z "},"ỳ":{"ha":705,"x_min":8,"x_max":696,"o":"m 8 722 l 127 722 l 357 142 l 579 722 l 696 722 l 309 -249 l 199 -249 l 302 7 l 8 722 m 214 1007 l 334 1007 l 433 810 l 336 810 l 214 1007 z "}," ":{"ha":693,"x_min":0,"x_max":0,"o":""}," ":{"ha":1386,"x_min":0,"x_max":0,"o":""}," ":{"ha":693,"x_min":0,"x_max":0,"o":""}," ":{"ha":1386,"x_min":0,"x_max":0,"o":""}," ":{"ha":462,"x_min":0,"x_max":0,"o":""}," ":{"ha":347,"x_min":0,"x_max":0,"o":""}," ":{"ha":231,"x_min":0,"x_max":0,"o":""}," ":{"ha":231,"x_min":0,"x_max":0,"o":""}," ":{"ha":173,"x_min":0,"x_max":0,"o":""}," ":{"ha":277,"x_min":0,"x_max":0,"o":""}," ":{"ha":77,"x_min":0,"x_max":0,"o":""},"‐":{"ha":469,"x_min":57,"x_max":411,"o":"m 57 367 l 57 469 l 411 469 l 411 367 l 57 367 z "},"‑":{"ha":469,"x_min":57,"x_max":411,"o":"m 57 367 l 57 469 l 411 469 l 411 367 l 57 367 z "},"‒":{"ha":469,"x_min":57,"x_max":411,"o":"m 57 367 l 57 469 l 411 469 l 411 367 l 57 367 z "},"–":{"ha":833,"x_min":57,"x_max":777,"o":"m 57 371 l 57 465 l 777 465 l 777 371 l 57 371 z "},"—":{"ha":1202,"x_min":57,"x_max":1145,"o":"m 57 371 l 57 465 l 1145 465 l 1145 371 l 57 371 z "},"‘":{"ha":256,"x_min":47,"x_max":205,"o":"m 47 774 q 154 994 47 902 l 205 945 q 163 901 184 930 q 138 844 142 873 q 187 818 168 840 q 205 768 205 796 q 183 712 205 736 q 129 689 161 689 q 71 712 94 689 q 47 774 47 736 z "},"’":{"ha":256,"x_min":50,"x_max":208,"o":"m 50 739 q 93 784 72 756 q 118 840 113 812 q 70 867 88 844 q 52 917 52 889 q 73 972 52 949 q 126 994 94 994 q 185 971 162 994 q 208 911 208 949 q 102 689 208 783 l 50 739 z "},"‚":{"ha":294,"x_min":68,"x_max":227,"o":"m 68 60 q 90 115 68 92 q 144 138 113 138 q 203 115 180 138 q 227 54 227 92 q 119 -168 227 -73 l 68 -118 q 111 -73 90 -101 q 136 -17 132 -45 q 87 9 106 -13 q 68 60 68 32 z "},"“":{"ha":462,"x_min":47,"x_max":411,"o":"m 47 774 q 154 994 47 902 l 205 945 q 163 901 184 930 q 138 844 142 873 q 187 818 168 840 q 205 768 205 796 q 183 712 205 736 q 129 689 161 689 q 71 712 94 689 q 47 774 47 736 m 253 774 q 359 994 253 902 l 411 945 q 369 901 390 930 q 343 844 348 873 q 392 818 374 840 q 411 768 411 796 q 389 712 411 736 q 335 689 367 689 q 276 712 300 689 q 253 774 253 736 z "},"”":{"ha":462,"x_min":50,"x_max":414,"o":"m 50 739 q 93 784 72 756 q 118 840 113 812 q 70 867 88 844 q 52 917 52 889 q 73 972 52 949 q 126 994 94 994 q 185 971 162 994 q 208 911 208 949 q 102 689 208 783 l 50 739 m 256 739 q 298 784 277 756 q 323 840 319 812 q 275 867 294 844 q 257 917 257 889 q 278 972 257 949 q 332 994 300 994 q 391 971 368 994 q 414 911 414 949 q 307 689 414 783 l 256 739 z "},"„":{"ha":462,"x_min":50,"x_max":414,"o":"m 50 -118 q 93 -73 72 -101 q 118 -17 113 -45 q 70 9 88 -13 q 52 60 52 32 q 73 115 52 92 q 126 138 94 138 q 185 115 162 138 q 208 54 208 92 q 102 -168 208 -74 l 50 -118 m 256 -118 q 298 -73 277 -101 q 323 -17 319 -45 q 275 9 294 -13 q 257 60 257 32 q 278 115 257 92 q 332 138 300 138 q 391 115 368 138 q 414 54 414 92 q 307 -168 414 -74 l 256 -118 z "},"†":{"ha":525,"x_min":46,"x_max":478,"o":"m 46 633 l 46 730 l 205 730 l 205 972 l 315 972 l 315 730 l 478 730 l 478 633 l 315 633 l 315 0 l 205 0 l 205 633 l 46 633 z "},"‡":{"ha":545,"x_min":57,"x_max":489,"o":"m 57 262 l 57 359 l 216 359 l 216 611 l 57 611 l 57 708 l 216 708 l 216 972 l 325 972 l 325 708 l 489 708 l 489 611 l 325 611 l 325 359 l 489 359 l 489 262 l 325 262 l 325 0 l 216 0 l 216 262 l 57 262 z "},"•":{"ha":564,"x_min":43,"x_max":521,"o":"m 111 261 q 77 296 111 261 q 43 431 43 330 q 111 600 43 531 q 282 669 180 669 q 453 600 385 669 q 521 431 521 531 q 453 261 521 330 q 282 192 385 192 q 111 261 180 192 z "},"…":{"ha":937,"x_min":68,"x_max":868,"o":"m 92 5 q 80 16 92 5 q 68 60 68 28 q 92 115 68 92 q 147 138 115 138 q 202 115 179 138 q 225 60 225 92 q 202 5 225 28 q 147 -18 179 -18 q 92 5 115 -18 m 413 5 q 401 16 413 5 q 390 60 390 28 q 413 115 390 92 q 468 138 436 138 q 524 115 500 138 q 547 60 547 92 q 524 5 547 28 q 468 -18 500 -18 q 413 5 436 -18 m 735 5 q 723 16 735 5 q 711 60 711 28 q 735 115 711 92 q 790 138 758 138 q 845 115 822 138 q 868 60 868 92 q 845 5 868 28 q 790 -18 822 -18 q 735 5 758 -18 z "}," ":{"ha":277,"x_min":0,"x_max":0,"o":""},"‰":{"ha":1554,"x_min":56,"x_max":1499,"o":"m 56 777 q 116 928 56 866 q 268 990 177 990 q 425 928 363 990 q 488 777 488 867 q 425 627 488 688 q 269 566 362 566 q 117 627 178 566 q 56 777 56 688 m 98 0 l 839 972 l 953 972 l 211 0 l 98 0 m 149 777 q 183 688 149 724 q 271 652 218 652 q 359 688 326 652 q 393 777 393 724 q 358 867 393 830 q 269 904 323 904 q 182 867 216 904 q 149 777 149 830 m 624 43 q 593 73 624 43 q 562 193 562 104 q 624 345 562 283 q 777 407 685 407 q 932 345 870 407 q 994 193 994 283 q 932 43 994 104 q 778 -18 870 -18 q 624 43 686 -18 m 690 283 q 673 265 690 283 q 656 193 656 247 q 690 103 656 140 q 778 66 725 66 q 866 103 833 66 q 900 193 900 139 q 866 283 900 248 q 777 319 832 319 q 690 283 724 319 m 1065 193 q 1127 345 1065 283 q 1279 407 1188 407 q 1436 345 1373 407 q 1499 193 1499 283 q 1436 43 1499 104 q 1280 -18 1373 -18 q 1127 42 1188 -18 q 1065 193 1065 103 m 1193 283 q 1175 265 1193 283 q 1158 193 1158 247 q 1193 103 1158 140 q 1282 66 1228 66 q 1370 103 1336 66 q 1404 193 1404 139 q 1370 283 1404 247 q 1279 319 1335 319 q 1193 283 1227 319 z "},"‹":{"ha":374,"x_min":47,"x_max":326,"o":"m 47 406 l 220 661 l 326 661 l 154 406 l 326 151 l 220 151 l 47 406 z "},"›":{"ha":374,"x_min":47,"x_max":326,"o":"m 47 151 l 220 406 l 47 661 l 154 661 l 326 406 l 154 151 l 47 151 z "},"⁄":{"ha":583,"x_min":-29,"x_max":612,"o":"m -29 -57 l 511 1029 l 612 1029 l 72 -57 l -29 -57 z "}," ":{"ha":347,"x_min":0,"x_max":0,"o":""},"€":{"ha":871,"x_min":39,"x_max":823,"o":"m 39 346 l 39 431 l 111 431 q 109 486 109 462 q 111 553 109 513 l 39 553 l 39 637 l 127 637 q 291 891 170 793 q 572 990 412 990 q 810 930 718 990 l 762 839 q 582 886 682 886 q 374 818 463 886 q 250 637 286 750 l 635 637 l 628 553 l 231 553 q 227 488 227 521 q 231 431 227 458 l 618 431 l 611 346 l 252 346 q 372 161 286 233 q 581 89 459 89 q 694 105 642 89 q 778 143 747 122 l 823 53 q 727 4 793 27 q 583 -18 661 -18 q 418 10 496 -18 q 284 89 341 39 q 186 204 227 139 q 126 346 146 270 l 39 346 z "},"№":{"ha":1555,"x_min":109,"x_max":1480,"o":"m 109 0 l 109 972 l 221 972 l 757 178 l 757 972 l 868 972 l 868 0 l 757 0 l 221 791 l 221 0 l 109 0 m 1056 567 q 1021 603 1056 567 q 986 742 986 639 q 1056 918 986 845 q 1234 990 1126 990 q 1411 918 1341 990 q 1480 742 1480 845 q 1411 567 1480 639 q 1234 496 1341 496 q 1056 567 1126 496 m 1006 317 l 1006 419 l 1459 419 l 1459 317 l 1006 317 m 1080 742 q 1122 632 1080 677 q 1234 587 1164 587 q 1344 632 1303 587 q 1386 742 1386 676 q 1344 853 1386 808 q 1234 899 1302 899 q 1123 853 1165 899 q 1080 742 1080 808 z "},"™":{"ha":1012,"x_min":40,"x_max":971,"o":"m 40 895 l 40 972 l 382 972 l 382 895 l 253 895 l 253 472 l 170 472 l 170 895 l 40 895 m 435 472 l 435 972 l 536 972 l 703 625 l 871 972 l 971 972 l 971 472 l 892 472 l 892 832 l 743 529 l 663 529 l 515 832 l 515 472 l 435 472 z "},"−":{"ha":764,"x_min":56,"x_max":708,"o":"m 56 386 l 56 479 l 708 479 l 708 386 l 56 386 z "},"◼":{"ha":722,"x_min":0,"x_max":722,"o":"m 0 0 l 0 722 l 722 722 l 722 0 l 0 0 z "},"":{"ha":319,"x_min":87,"x_max":236,"o":"m 87 -119 q 108 -67 87 -89 q 158 -46 128 -46 q 214 -68 193 -46 q 236 -127 236 -91 q 136 -329 236 -244 l 89 -283 q 127 -242 109 -268 q 150 -191 145 -217 q 105 -166 122 -186 q 87 -119 87 -145 z "}}}
